<mxfile host="65bd71144e">
    <diagram id="B5Qz3wERXB242Cz_p6G0" name="Page-1">
        <mxGraphModel dx="4435" dy="5363" grid="1" gridSize="10" guides="1" tooltips="1" connect="1" arrows="1" fold="1" page="1" pageScale="1" pageWidth="1654" pageHeight="1169" math="0" shadow="0">
            <root>
                <mxCell id="0"/>
                <mxCell id="1" parent="0"/>
                <mxCell id="3" value="" style="shape=image;verticalLabelPosition=bottom;labelBackgroundColor=#ffffff;verticalAlign=top;aspect=fixed;imageAspect=0;image=data:image/png,iVBORw0KGgoAAAANSUhEUgAABNgAAANLCAYAAACT4yAfAAAgAElEQVR4Aey9Tewsx3mfq62z0sa5y0MD1iqJSSB3kVVIKNkmPNpG1zpc5SJARBIWcDemeLgIcBEpNokACa6kUKTyJdkmwxMnsUVZFhWbSmRLNhPLiWOJEk3GNiw4MuUgUI5FiXPxDPU7fE+dnu+ame6ep4D+93R1fbz167e7qp5/9cw7/uAP/mDhpgb6gD6gD+gD+oA+oA/oA/qAPqAP6AP6gD6gD+gD+sB+PvAOhdtPOHVTN31AH9AH9AF9QB/QB/QBfUAf0Af0AX1AH9AH9AF8QMDmCj5XMOoD+oA+oA/oA/qAPqAP6AP6gD6gD+gD+oA+oA8c4AMCtgPEk1JLqfUBfUAf0Af0AX1AH9AH9AF9QB/QB/QBfUAf0AcEbAI2CbU+oA/oA/qAPqAP6AP6gD6gD+gD+oA+oA/oA/rAAT4gYDtAPAm1hFof0Af0AX1AH9AH9AF9QB/QB/QBfUAf0Af0AX1AwCZgk1DrA/qAPqAP6AP6gD6gD+gD+oA+oA/oA/qAPqAPHOADArYDxJNQS6j1AX1AH9AH9AF9QB/QB/QBfUAf0Af0AX1AH9AHBGwCNgm1PqAP6AP6gD6gD+gD+oA+oA/oA/qAPqAP6AP6wAE+IGA7QDwJtYRaH9AH9AF9QB/QB/QBfUAf0Af0AX1AH9AH9AF9QMAmYJNQ6wP6gD6gD+gD+oA+oA/oA/qAPqAP6AP6gD6gDxzgAwK2A8STUEuo9QF9QB/QB/QBfUAf0Af0AX1AH9AH9AF9QB/QBwRsAjYJtT6gD+gD+oA+oA/oA/qAPqAP6AP6gD6gD+gD+sABPiBgO0A8CbWEWh/QB/QBfUAf0Af0AX1AH9AH9AF9QB/QB/QBfUDAJmCTUOsD+oA+oA/oA/qAPqAP6AP6gD6gD+gD+oA+oA8c4AMCtgPEk1BLqPUBfUAf0Af0AX1AH9AH9AF9QB/QB/QBfUAf0AcEbAI2CbU+oA/oA/qAPqAP6AP6gD6gD+gD+oA+oA/oA/rAAT4gYDtAPAm1hFof0Af0AX1AH9AH9AF9QB/QB/QBfUAf0Af0AX1AwCZgk1DrA/qAPqAP6AP6gD6gD+gD+oA+oA/oA/qAPqAPHOADArYDxJNQS6j1AX1AH9AH9AF9QB/QB/QBfUAf0Af0AX1AH9AHBGwCNgm1PqAP6AP6gD6gD+gD+oA+oA/oA/qAPqAP6AP6wAE+IGA7QDwJtYRaH9AH9AF9QB/QB/QBfUAf0Af0AX1AH9AH9AF9QMAmYJNQ6wP6gD6gD+gD+oA+oA/oA/qAPqAP6AP6gD6gDxzgAwK2A8STUEuo9QF9QB/QB/QBfUAf0Af0AX1AH9AH9AF9QB/QBwRsAjYJtT6gD+gD+oA+oA/oA/qAPqAP6AP6gD6gD+gD+sABPiBgO0A8CbWEWh/QB/QBfUAf0Af0AX1AH9AH9AF9QB/QB/QBfUDAJmCTUOsD+oA+oA/oA/qAPqAP6AP6gD6gD+gD+oA+oA8c4AMCtgPEk1BLqPUBfUAf0Af0AX1AH9AH9AF9QB/QB/QBfUAf0AcEbAI2CbU+oA/oA/qAPqAP6AP6gD6gD+gD+oA+oA/oA/rAAT4gYDtAPAm1hFof0Af0gXn5wH//7/998Xu/93uTG1j8/u///uK1116bnN297h+u26uvvrpAh15lWs687m2vp9dTH9AH9AF9QB/QB47tAwI2AZuTEX1AH9AH9IEf+MBv/uZvLv7ZP/tni5dffnnxq7/6q4uPfexji49+9KPL7VOf+tTipZdeWnzjG99Y/Mqv/Mri85///EmhFvV+7nOfW/zzf/7PFy+++OLymn39619f/PIv//Lin/yTf7K09Wd+5mcWX/nKV267nsAn7CZN2vL0008vvvjFL96WbpcBBzDrhRdeWPybf/NvFv/tv/2328r5T//pPy2ee+65xb//9/9+Qd27lLtrWuz4D//hPyw+/vGPL9v2yU9+cvGf//N/Pmqdu9poegfz+oA+oA/oA/qAPqAPXIYPTAKw/fZv//biy1/+spsa6AP6gD7wAx/43d/9XSHCEcEoq8H+43/8j4vPfOYzyxVtgKJf+7VfW/ziL/7i4rd+67dODti+9rWvLUHav/7X/3rx6U9/egnYsOk3fuM3Fv/u3/27JRBk5R02YnNdzUY6oNONGzeWcJBVXkA4jv/Lf/kve/kRYAvYB4wEcGXlWMDbJz7xiaMDNurkWqDH7/zO7yxXsP36r//68hpNcRWiA+/LGHh7nb3Or7zyimMZx7P6gD6gDxQf4B/cc+kfJwHYgGv8t95NDfQBfUAfeMsH+MfDXDqiMbUD8MQqMFaGVcCGjWjOqi2gFqvX/sW/+BcLQBKr3P7tv/23CyAY6cj31FNPLVdUAaD+63/9r0uwBYh65plnlvlYTUYeVqWtyhNoxXkgGdAMsIoN3AfE1w24BWB6/vnnl7Ap51rARjwr9D772c8uvvSlLy3zsPKL9gCrsIk6aBfbz/3czy3Tpzz21PWFL3xh8bM/+7NL8IdexNNW2sUqO1YAYjO2/tN/+k+XelAHq+loB/WThskmaTiOhrWuVZ+xAfu5FgA17KY+dKvarcpv/O3+ox7qoQ+cxgd4XjqWcTyrD+gD+sDbPsA/iOfSBwnYBHd28vqAPjBBHxCwHWcitAqwAamAVwAoVk0BoAKjWD3Fa5qANT4D0QBIQB4GDKwU4zVKXitltRmTK45ZAcZ58vyrf/WvbsElXt0k3dAqrK9+9at3ALasXAOEPfvss4OviLYr2PAf7CKe+qgf6EY784on4AuIBQTDngqtiKe9rOij7fznkbyUBWAjPfkoEwgWPdCAeDQAtKEBr5JSBvXuMrgCqJEXaMfru0BC4KiviB7n3tjl2pjWa6APrPYBAdvbk2oBg1roA/oAPiBga/5rfuxO1BVs3ng+fPUBfeB2HxCwrZ68HNInVcAGCKrfwfYv/+W/XEI2Jkf1O9gq9AIw/dIv/dKtFWSkBXwB5fBhVmmxygrwxMorABF5+M4yVoTxGdjEyrCh1Vy1rrST8lg5RllAs9SR84Cv+h1stIkVdrQBiAY4BIgBzdiwE9vID1TjNVLAXVbbER/AFmDGHlAIeKR+wBn6UTd1UD+6AMM4jy6UEUBGWtoRm9lTH1o8+eSTy+vw8z//87d93xtlUBZwkM/kpy2/8Au/cJuttUw/H+e+UVd11Qe29wGeV45pbh/TqId66AOX7QMCNgGbHeMEV/z44L7sB/fcrr+AbfvJzC4TvwrY2ldEUw7g55iADcjGijAAVOrMfgiw5RwwLN9JVn94AMhVV7AlPXvqOASw8dortgasAbz4pxjHQDP8FDjHSjdsIA6QGMAGyOM1WvRsAVu1c+gz4I76eSWWvLSfVXAAttr+obzGHef+UVd11Qc2+4CAzfHo3MaktkefPtQHBGwCNgGbgE0f0AfO6gMCts2TmH0meocCtvZ1TwYMeUUUsASAAgbVFWxtHlajAb02ATbOAwH5JU8mbIA0YBeAqa5+2wWwkRZIxY8p8OopdQDFVr0iCuCiLlaaAcoAa8CtADbaQZuJA4DxGaiGvaxq45jVbux3fUU0ttJeXkEFuDHAw9ah12v38QfzHOc+U1d1vWQfELAJIw6FEebXh+bmAwI2AdtZJ9Zzu6Fsj52EPrC7DwjYjjNBPRSwMWkESH384x9fvtbIl/vziiWr3lYBtjYPP4CQ7zRrJ6HtCjaOAUof/ehHl/XxCibfeVbz7QLYyAec4nVOysSWoddVA/cAbHxmz2uu/AAEk8cANuAbABD4hhZ8TxqADZ2BamgVMMZxBYO1Das+YytlYCf28l1slL0qvfHHuW/UVV31ge19QMC2+5jHcaKa6QPz9gEBm4BNwObqJX1AHzirDwjYtp/MnGPiB9TadRUVK7zIw35Xm6kP0LVrvnXp92nDqvKwLa9xrkpzSDya7fqK6SH1mXfc95/Xx+szZh8QsM0bFAiCvL76wO4+IGATsJ11Yu1Nu/tNq2ZqNjcfELA5gRzzBFLb9E99QB/QB4Z9QMDmmHRuY1Lbo08f6gMCNgGbgM3VS/qAPnBWHxCwDU9cnNCpiz6gD+gD+sCYfUDAJow4FEaYXx+amw8I2ARsZ51Yz+2Gsj12EvrA7j4gYDvOBJJXGd3UQB/QB/SBt31gzLBqirYJ2HYf8zhOVDN9YN4+IGATsAnYXL2kD+gDZ/UBAVt/wMb3nzmAm/cAzuvr9dUHdvcBv9+wb38jYNvdB71v1UwfmLcPCNgEbE7ChCv6gD5wVh8QsPWd8LAKQsA278Gbg3Ovrz6wnw8I2Pr2NwK2/fzQ+1fd9IH5+oCAbUKA7R/9o3+0+OAHH53M9swzz5510u6Da74PLq/tvK6tgK3vhEfANq/7w+ed11Mf6OcDAra+/c0hgO2ZZ56ZzJyG+RfzMO/FfveiWqrlXH1AwDYhwPZDP/TnFlPa3vve99oRuTJKH9AHNvqAgK3vhEfA5qB1roNW26VvH+oDAra+/c0hgO3++69Oal7zwz/8wxvHM4f6p/l9xukD0/cBAduEANvzzz+/ePbZZyezYa8Piek/JLyGXsNj+4CAre+ER8DmPXvse9by9bGp+oCArW9/cwhgc17jc2SqzxHt1nfX+YCAbUKAbd2F9Jw3uj6gD0zVBwRsfSc8AjafBVN9Fmi3vntsHxCw9e1vDgFsx77Wlu/zRB/QB87hAwI2AZurzHyFTx/QB87qAwK2vhMeAZsDynMMKK1Tv5uCDwjY+vY3Ajbv+ync99qon57SBwRsArazTqxP6ezW5cNVHxinDwjY+k54BGzj9HOfP14XfeD8PiBg69vfCNjO79M+V7wG+sC4fEDAJmATsLl6SR/QB87qAwK2vhMeAdu4BloOfL0e+sB4fEDA1re/EbCNx7d9zngt9IFx+ICATcB21om1D4JxPAi8Dl6Hc/qAgK3vhEfA5v18zvvZuvW/MfuAgK1vfyNg834f8/2ubfrnOXxAwCZgE7C5ekkf0AfO6gMCtr4THgGbA8pzDCitU7+bgg8I2Pr2NwI27/sp3PfaqJ+e0gcEbAK2s06sT+ns1uXDVR8Ypw8I2PpOeARs4/Rznz9eF33g/D4gYOvb3wjYzu/TPle8BvrAuHxAwDYRwPbMM88s/vpf/+uLv/JX/spktk984hPCO1dG6QP6wEYfELD1nfAI2MY10HLg6/XQB8bjAwK2vv3NIYDtJ37iJyYzp2H+9YEPfGDjeMZ7fTz3utfCa3EuHxCwTQSwffrTn178hb/wlxZ33fUjk9kEbD7YzvVgs95p+Z6Are+ER8A2Lf/3eeX10gdO5wMCtr79zSGA7W/9rfdOZk7D/Ou9732vgM1/GusD+sBGHxCwTQSwOfg63eBLrdVaHzitDwjY+k54BGyn9V+fF+qtD0zHBwRsffubQwCb98107huvlddKH9jeBwRsAraNFNYbavsbSq3USh/Y3QcEbH0nPAK23X3Q+1bN9IHL8AEBW9/+RsB2GfeNz0evsz6wvQ8I2ARsAjaXuuoD+sBZfUDA1nfCI2DbfhDkgFGt9IHL8gEBW9/+RsB2WfePz0uvtz6w2QcEbAK2s06svUk336RqpEZz9wEBW98Jj4DNZ8bcnxm2Tx/f1wcEbH37GwGb9+K+96L59J25+oCATcAmYHP1kj6gD5zVBwRsfSc8AjYHrXMdtNoufftQHxCw9e1vBGzek4fek+bXh+bmAwI2AdtZJ9Zzu6Fsj52EPrC7DwjY+k54BGy7+6D3rZrpA5fhAwK2vv2NgO0y7hufj15nfWB7HxCwCdgEbK5e0gf0gbP6gICt74RHwLb9IMgBo1rpA5flAwK2vv2NgO2y7h+fl15vfWCzDwjYBGxnnVh7k26+SdVIjebuAwK2vhMeAZvPjLk/M2yfPr6vDwjY+vY3AjbvxX3vRfPpO3P1AQGbgE3A5uolfUAfOKsPCNj6TngEbA5a5zpotV369qE+IGDr298I2LwnD70nza8Pzc0HBGwTAWyf/vSnF3fd9SOLH/qhPzeZ7QMf+MBZJ+1zu1ltjx3QXH1AwNZ3wiNg81kx12eF7dK3D/UBAVvf/uYQwPa3//b/PZk5DfMv5mGH+p/5fYbpA/P3AQHbRAAbN+Ojjz66oDOayvaJT3zCjsiVUfqAPrDRBwRsfSc8hwI2+pop/TPnh3/4zy8+/ennN/qZg9r5D2q9xl7jTT4gYOvb3xwC2JgnTGVOg530jZv8y/M+g/QBfUDANiHA5g3rDasP6ANz9AEBW98Jz6GA7dlnn53UpOcnfuInnPQI8vUBfWArHxCw9e1vDgFscxzP2CbH6fqAPiBgE7BtNSDxYeHDQh/QB47lAwK2vhOeQwHbsa6z5foM0Qf0gXP7gICtb38jYPOePvc9bf364Nh8QMAmYBOw+V9ffUAfOKsPCNj6TngEbA42xzbY1B59ciw+IGDr298I2Ly3x3Jva4e+OBYfELAJ2M46sR7LjaAdPpT1gfP5gICt74RHwHY+X/Y5ovb6wLh9QMDWt78RsI3b330eeX30gdP7gIBNwCZgc/WSPqAPnNUHBGx9JzwCttMPphzAqrk+MA0fELD17W8EbNPwe59PXid94HQ+IGATsJ11Yu3NfrqbXa3Veqw+IGDrO+ERsHmvj/Ve1y5989w+IGDr298I2Lynz31PW78+ODYfELAJ2ARsrl7SB/SBs/qAgK3vhEfA5mBzbINN7dEnx+IDAra+/Y2AzXt7LPe2duiLY/EBAZuA7awT67HcCNrhQ1kfOJ8PCNj6TngEbOfzZZ8jaq8PjNsHBGx9+xsB27j93eeR10cfOL0PCNgEbAI2Vy/pA/rAWX1AwNZ3wnMoYHvmmWcWH/zgo5PZ/v7f/9BZ/dfB6+kHr2qu5vv6gICtb38jYPNe3PdeNJ++M1cfELAJ2JyYCFf0AX3grD4gYOs74TkUsN1//9XFD/3Qn5vM9iM/8iNn9d+5DhBtl5OfOfqAgK1vfyNg8zkxx+eEbdKvD/EBAZuAzYmJcEUf0AfO6gMCtr4TnkMBG4OKZ599djLb888/f1b/PWQQZl4H8frAaX1AwNa3vxGwndZ/fV6otz4wfh8QsAnYnJgIV/QBfeCsPiBg6zvh6QHYHMCNfwDnNfIa6QO7+4CArW9/I2Db3Qe9b9VMH5i3DwjYBGxnnVj7gJn3A8br6/XdxgcEbH0nPAI277tt7jvT6CeX6AMCtr79jYDN58glPkdss36/zgcEbAI2AZurl/QBfeCsPiBg6zvhEbA58Fs38POc/nHJPiBg69vfCNh8nlzy88S26/9DPiBgE7CddWI95JTG+bDSBy7LBwRsfSc8ArbLun98Xnq99YHtfUDA1re/EbBt73vep2qlD1yGDwjYBGwCNlcv6QP6wFl9QMDWd8IjYLuMAZwDda+zPrC7DwjY+vY3ArbdfdD7Vs30gXn7gIBNwHbWibUPmHk/YLy+Xt9tfEDA1nfCI2DzvtvmvjONfnKJPiBg69vfCNh8jlzic8Q26/frfEDAJmATsLl6SR/QB87qAwK2vhMeAZsDv3UDP8/pH5fsAwK2vv2NgM3nySU/T2y7/j/kAwI2AdtZJ9ZDTmmcDyt94LJ8QMDWd8IjYLus+8fnpddbH9jeBwRsffsbAdv2vud9qlb6wGX4gIBNwCZgc/WSPqAPnNUHBGx9JzyHArZnnnlmcfXq1cls733v/7X49KefP6sPO2i+jEGz13n611nA1re/EbBN/57wueY11Af6+oCATcDmpES4og/oA2f1AQFb3wnPoYDt0UcfXdx1149MZvuLf/EvCdh8hp31GebkpO/k5Jh6Ctj69jcCtun4/jHvK8vWD/SBt31AwCZgc1DqxEQf0AfO6gMCtr4TnkMBm4OktwdJaqEW+sC8fEDA1re/EbDN6/7weef11AcO9wEBm4DtrBNrb+LDb2I1VMOp+4CAre+ER8DmM2HqzwTt14eP5QMCtr79jYDNe/VY96rl6ltT9QEB24kB2yuvvLL46le/utw++tGPLn7yJ3/STQ1G4wPxTfdv3aPqcBodeC4Chdz6afB7v/d7/vPElan6gD6gDzQ+IGDr18+kz3asdJqxkjqrsz4wDR/42te+Nps5zTvyoB/z/ubNm4uEBx54YPHEE08snnrqKTc1OLsP3HXXXXFN9ypwUgX+5//8n7PpiMbS/wjY/M/vVP/zq9367jF9QMDWF7D9j//xP046XrAyFVABFRi7At/73vdmM6+ZJGBj5YZBBcagwH333TcGM7ThAhUQsPWd8AD5BGxCimNCCsvWv6bqAwK2vv2NgO0CB202WQVUYK0CArYTv5bUrmATsK31T0+eUAEB2wnFtqrbFBCw9Z3wCNiEH1OFH9qt7x7bBwRsffsbAdttwxkPVEAFVGAhYBOweRuowFIBAZuOcC4FBGx9JzwCNiHFsSGF5etjU/UBAVvf/kbAdq6Rk/WqgAqMVQEBm4BtrL6pXSdWQMB2YsGt7pYCAra+Ex4Bm/BjqvBDu/XdY/uAgK1vfyNguzWU8YMKqIAKLBUQsAnYvBVUYKmAgE1HOJcCAra+Ex4Bm5Di2JDC8vWxqfqAgK1vfyNgO9fIyXpVQAXGqoCATcA2Vt/UrhMrIGA7seBWd0sBAVvfCY+ATfgxVfih3frusX1AwNa3vxGw3RrK+EEFVEAFlgoI2ARs3goqsFRAwKYjnEsBAVvfCY+ATUhxbEhh+frYVH1AwNa3vxGwnWvkZL0qoAJjVUDAJmAbq29q14kVELCdWHCru6WAgK3vhEfAJvyYKvzQbn332D4gYOvb3wjYbg1l/KACKqACSwUEbAI2bwUVWCogYNMRzqWAgK3vhEfAJqQ4NqSwfH1sqj4gYOvb3wjYzjVysl4VUIGxKiBgE7CN1Te168QKCNhOLLjV3VJAwNZ3wgNg+/3f//3FN7/5TTc10Af0AX2g+ADPR7d+GgjYbg1l/KACKqACSwUEbCfuaG/evHnL9R544IHFK6+8cuvYDypwTgUEbOdU/7LrFrD1m+xk4vhHf/RHl+1Utl4FVEAFBhTg2ZjnpPvD+x4B24CTGaUCKnDRCgjYBGwXfQPY+LcVELC9rYWfTquAgO3wSU47URSwndaHrU0FVGAaCgjY+vY3ArZp+L1WqoAKnE4BAduFArYnnnhiAVDJdvXq1cXTTz99h+eRjnMJpCHP0Mq7Nm3qeP3115P91v7hhx9esCXwOba0e9JQRhvP8ZDNKZM9qwTbfKtWDj733HPLtEP2fv7zn7+jnKpZdGnryjFpX3jhhWUZ7NuQuod0bdMe6xhbDSpwDgUEbH0nPMA2Ads5PNk6VUAFxq6AgK1vfyNgG7vHa58KqMCpFRCwXShgAzLdc889i6eeemq5cXzXXXctAVB1wsQn7rHHHlu84x3vuCMd59u0HJO2ArqUE/DUHseeuicN4ImyKDPngHLvfOc7B21JuVeuXFnWnzyPP/748piyWtCFTcTTxjaQn3Mph33aB0h86aWXbjvX2gpAI7TtTj1oT3nnDAK2c6p/2XUL2PpOeARsl30/2XoVUIHVCgjY+vY3ArbVvuYZFVCBy1RAwHbBgK0FKkAsgFUFTEAf4E9CABsACbBUQ5uWY8oj7RDMqvXzeR1gCmBrV6xRLuUDuIYCgK22J2mor9af8mNz0mUfwJbj7Ns2Jx6bWls5F3urHikbG84Zqh7ntMO6L08BAVvfCY+A7fLuIVusAiqwnQICtr79jYBtO78zlQqowOUoIGATsN3m7cAooFhCC5A4D3DL6rEKhdq0HANtWMFGnvrqZQu4OCb9qhAA1kIrwNoQwEs5qwAb9rfgMDYOlRcIlnKzBzKSvg2rABvp2rZT77q2t2Uf6xi7DCpwDgUEbH0nPAK2c3ixdaqACkxBAQFb3/5GwDYFr9dGFVCBUyogYBOw3eZvN27cWAKjgLMWmgWwAcsAQxXKtGk55jxpgXZArYQWMnEMiKPeugXKrQJsAVyxN+VnvwqwtfXTFiAaIbakDParABs286ptG9YBttqW6LnK/rbcYx7TboMKnEMBAVvfCY+A7RxebJ0qoAJTUEDA1re/EbBNweu1UQVU4JQKCNgEbLf5W15hDPBpoVmAEJmSNq+KtmkD2EjLd5/VlWEt4OKY8+2WFWuBUgAtbGDjM+mvX79+WxvqQfsdbICy1JXvRUs70maOAYKBe5QXwJa6gYWUQ7qh11OxK7ZXe/I5K+gAe+vsT/pT7GmPQQXOoYCAre+ER8B2Di+2ThVQgSkoIGDr298I2Kbg9dqoAipwSgUEbAK22/ythU0tNKuAjYyAIiATcKpNWwEbaQE4ACXAFZ8r0OEz6VeFALakC1wD3K0LALastEud1EM7E1o7s+Iu4JB0AWykTXogWqBcysp+E2BLHdg2llCvx1hs0o7LUEDA1nfCI2C7jPvGVqqACuyugICtb38jYNvdB82hAiowbwUEbAK22zw8r1wmEphUIVAL2ABFAVht2oColAWMyquigV05F3CW43YfwFZXhQHZqm1tHo5XvSKatCkXINZuFTgFsCVfAFl97TXn2G8CbKTZ1OZa3ik+1/aeoj7rUIEoIGDrO+ERsMWz3KuACqjA7QoI2Pr2NwK22/3LIxVQARUQsAnYbt0FgWWAsYQWmrWAjXRZ9QbsqsCrBWykzauigLYKdDbBpoCwCtgSV1eaxe7sNwG2gDNeF6Ud2RKflW45Trm1LdjRBgFbq4jHKrBaAQFb3wmPgG21r3lGBVTgshUQsPXtbwRsl30/2XoVUIE7FRCwXTBg48v5gUNsACaOAWQVGG0D2HArVnIBlTYBNtIC00jbAjZWpMWeuicPx0PQKq+oAgeHwibAtg7sZbUd5Q4BNuJpb21HbBiyNeeyX1d30pxyP9SOU9ZvXZergICt74RHwHa595ItVwEVWK+AgK1vfyNgW+9vnlUBFbg8BQRsFwzYgFUU5Z8AACAASURBVEDZApNaULUtYMsrk9sANmDZ0Aq22NLuA9uIryvYuF1TLyvrhsI6wBZol1VqbX7KxE7qWAXYAJPY1ZYxZGtbvoCtVcTjS1VAwNZ3wiNgu9Q7yXargApsUkDA1re/EbBt8jjPq4AKXJoCArYLBWyX5ui2d7MCrmDbrJEpjqOAgK3vhEfAdhw/tVQVUIHpKyBg69vfCNimf0/YAhVQgb4KCNgEbH09ytImq4CAbbKXbvKGC9j6TngEbJO/JWyACqjAkRQQsPXtb84B2HgDhTdIeLuEjTdO8pk3Sl566aUB73lzsViwfX+5vbn43uLNxRu3jt86x3mDCqiAChymgIBNwHaYB5l7NgoI2GZzKSfXEAFb3wmPgG1yt4AGq4AKnEgBAVvf/uYUgA1oxncu813N+XqVCtUC1wLbSHf3PXcv0z708IOLz73wmcX3Fze33t5c/FmBb0K3E92aVqMCs1FAwCZgm40z25DDFBCwHaafufdXQMDWd8IjYNvfF82pAtsokO+GrWn5vlbi2RvGq4CArW9/cyzAxn0EROO7nYFrQLbN99b3l2Ds+4s/uwXTgGvXHvjxxb33/dXl/uuv/O6tc9tCtzcX312w4s2gAiqgAtsoIGATsG3jJ6a5AAUEbBdwkUfaRAFb3wmPgG2kjr6lWUwkn3jiieXkkj3HhnEpQH/JjxkB1BL4UahtfuAo6d2fRwEBW9/+pjdg457iXuIe2/bZ99brnt/dCM4+/tTHDgJtgLu3Xit1Vdt57l5rVYFpKCBgE7BNw1O18ugKCNiOLrEVrFBAwNZ3wiNgW+FoI4/me4PuueeeW7/uDazJxiqOCnPO3RRsGZM9p9ZDwHZqxfvVJ2Dr29/0AmxZsbYLWOP71OpqtW1XpLGq7cpdVxaPPvbIRii3qsy3VrQJ2vrdmZakAvNRQMAmYJuPN9uSgxQQsB0kn5kPUEDA1nfCI2A7wBnPlBVY9c53vnMJ1B566KHlyg3iWMGRlVFAts2vSJ2mAVeuXFnaepraxleLgG1812RbiwRsffubHoAt/1x4/PHHt7yMby54bXMV/No2/vHHP7y4+54fW+zz2uhbdbCizVdHt7xoJlOBi1FAwHZmwMbrH/XLOf381i8CqcPpdWDlhEEFzqGAgK3vhEfAdg4vPqxO4Bmr1a5fvz5YUIAO30k0hiBg8xXRMfjhPjYI2Pr2N4cCNuZBPN+2XREL0Npn1doq6AZcA7L99BMf3hvY+droPneieVRgvgoI2M4I2PjPtCDp9CBJzVdrPt9HnS0bswICtr4THgHbmL39TtsYCwDXgGyrQtLUlcYZQ2SlG18E3gI4VrwxgWUVHNvTTz+9qorl6rialrLaSW/6z6y2y3G7sq7Wi13r6l1l0HPPPbf8cnPszpecr0pb46kbu9Cn2rGp/ZRBHuraVGeAZ9WHPFzHfdpa7ffzcRUQsPXtbw4BbDxjWLG7bQBkrQJlh8Zfu/bjB70yCvRbLHxldNtraToVmLMCArYzArY5O5ZtUwEVUIFtFRCw9Z3wCNi29bxxpGOSCZgB7KwKgCLSsSUE6AT2tJCO166yMo5z2YirYIjySBtoxj6fyQN0S0gZ7b6WV8uq6YbqTbl1T1nV7mpLbX/NUz+Tn3pZlV3LiS3EoWcNHF+9evWWRknLfui6RPPa7lwPAVtVdnyfBWx9+5t9ARv38qoVu3d6TZ9XQjdBuOvXHzkYsmGpQQVU4LIVELAJ2C77DrD1KqACZ1dAwNZ3wiNgO7tL72TAvmAm+YBArAJhxRdwi1AhFfEJTGhJX1fCrUpLvsC2FkitekWUspKH1WAE8g7VG5vafaAYeVJvtTHltvlyTNoAMqAZx4QKHFtoxjF5SF/rzI9OtOkFbFF7ensBW9/+Zh/Atitc6/lK6CbI9tDD7z/odVHKF7JN77mgxSrQUwEBm4Ctpz9ZlgqogArsrICAre+ER8C2swueNUNA2a4rn5KvhT80JueGvjQ8cCigCvBE3NBqkpRTIR3lrwJsSc8rmm1IvQFY7XmOOUc6ymkDK+mAYJtWsQWwAerakHNAwNiRuKH0pMkKuqSnzLQl8I64tH3X69ja6PFxFRCw9e1vdgVsPEsA2duFN7t+39omuJbz9973Vxf80miO99kL2ba7wqZSgTkqIGATsM3Rr22TCqjAhBQQsPWd8AjYJuT8B4CZdUAnK68qAIoqAVX11c+ca/er6lgF2AKj2nI4ziqxfQEU0G4XwAYEGwqBYwGM0WMVuIvdVa+UUfVdpdWQDcadTwEBW9/+ZhfAxv3CvVNh9TpPePOI37m2Dpp96/VvLoBs33r9jw6AbH4n27pr6zkVmLMCAjYB25z927apgApMQAEBW98Jj4BtAk5fTNwXzKzLl1ckWZXVboFgLVACIDH5zfmUwb6FYkOAjclz8rR1cpxy27KKFLc+Ar+whXwpM/vW7luZfvAhdpB/KASYxY7o2K7SS96APdIlUDb2CNiiyHT2Ara+/c0ugI17qN4z67zmXHAt4I0VbNce+PEDANvN5eo7f/hg3VX2nArMUwEBm4Btnp5tq1RABSajgICt74RHwDYZ118aGuBTV0ht04KAoYCimicwChC0aquvcWbFG2l5rZRzbAFJbR2bANuqOonPyrFqb/0MQMN+4BraxJa091DAlvLTppS7yi7qxx7SJUSXCgtSTspNWvfjUkDA1re/2RawcR/Ve2i9V/BqKIDqvBuA7fBXRb+3vqmeVQEVmJ0CAjYB2+yc2gapgApMSwEBW98Jj4BtWv4/BHDaFmRVFqvAEtYBHYBQTZs8Q/t19a+qYwiw8dpXwNhQPdvEpZ3AtfY1sth5KGDLr4VmxVoA5yowNvQKqYBtm6s5zjQCtr79zbaAjXumAul13nHKHzVYB/G+/srvLu6/+jcOBn1+H9u6q+05FZifAgI2Adv8vNoWqYAKTEoBAVvfCY+AbVLuvwRJwDC2VRPQwKW6AmQV/KL1AUCrVmVVhdoVXfVcYFQLn4YAG/kSv029tZ58vnHjxh2rxXJuCHTlXN0H0qHBUMhrp9EaWwGDq9JHywA5ykxcyiBu3fUYssO48yggYOvb32wD2Hh+AbK3Ced+NbQFbo8+9sjBq9gAhgYVUIHLUUDAJmC7HG+3pSqgAqNUQMDWd8IjYBulm681KpCLVzUrtCETxy0UIn4d0AmQI19bHrCsxgdctYAJ8AT0Az6tAmztKrN17eAcdbR5qjCBXdhX01UNNk3USYvNbPxCag3Vvhoffdt2RhvO1yBgq2pM67OArW9/sw1g435pn0PDXjOOV0MrZGMVGz94UOP2+fzmwldFh6+5sSowPwUEbAK2+Xm1LVIBFZiUAgK2vhMeAduk3P+WsdeuXVtCIWAOK8cAaExMA7muX79+Ky0f1gE2ztfySBvABXiqAAuQFcDEPvWSLnUDmmoIYAIIkr5OnrPqjbKAYbVe0m8K+T448lNW6oot1LcuBLAlPWVUG2hXtZeyAHGr0hPfpo9NNR67KLuFdOts9dzpFRCw9e1vNgE27hHuwW3C2FavBaQd/ouib32XnD94sI0XmEYFpq+AgE3ANn0vtgUqoAKTVkDA1nfCI2Cb7u3AyrMApgAuYM7QK5cPPfTQEozVVxfblg+VB6irq8PIwyQ40Cj18mMHlB3oVssmPfGkZaugiXTUW88DqYbqrWXmM2UBqwK8khcNKHMTpCM/NtGetv2rtKTu1Js2US/p27aRFvuwpZ7b5nqkje7Pp4CArW9/swmwcQ+ybQ6sXvuzg1eKBYr13P/0E/9g8dNPfPhg21zFttkLTKECc1BAwCZgm4Mf2wYVUIEJKyBg6zvhEbBN+GbQ9IMVqIDt4MIsYHYKCNj69jebABuQugX6Q04FfOoJxXqWxWui/KLo4WV+d6jpxqmACsxMAQGbgG1mLm1zVEAFpqaAgK3vhEfANrU7QHt7KiBg66nm/MoSsPXtb7YBbNt40fcX3+0AsN56FfNwEHZnOffee/j3sGGXvyi6jTeYRgWmrYCATcA2bQ/WehVQgckrIGDrO+ERsE3+lrABByggYDtAvAvIKmDr29+sA2x8t+F23782vh83aCHd/Vf/xuJbr//RwRDQ10Qv4CFjEy9eAQGbgO3ibwIFUAEVOK8CAra+Ex4B23n92drPq4CA7bz6j712AVvf/mYdYON7E/mBkU1hzK+HBrQ9+PD7F7/x0q8dDNhYqWdQARWYtwICNgHbvD3c1s1eASZTDOC2+Y6P2Ysx0QYK2PpOeARsE70RNLubAvQLbAYVaBUQsPXtb9YBNn7cYJtf1X1z5K+HAtn4oYNnn/u5DoDt5uKcvybKc7HneHnTcxYfaH+Fur0nPVaBuSkgYBsJYPvGN76x+NKXvtR9+8M//MO5+aztUYHbFOA/pPzq29Cv7N2W0IPRKiBg6zvhEbCN1tU1TAVU4MwKCNj69jfrABtgZRvANvbvXwOwffypjy0+/vTH9gJsv/zCZ5bjVH4sgbLOAdi4FvllZsbM/Aryul+g3uY2zfi7ltMCN35xmR+6MKjAJSkgYBsJYPvqV7+6ePHFF7tvr7766iX5s229QAXSwQvYpnvxBWx9JzwCtuneC1quAipwXAUEbH37m3WAjbcLtgNsd/6oQF7NHMu+J2A79fewsYoMqAYIY/UaEOz69esH/3Oasig7K+Iot/2Ht4DtuM8zSx+nAgI2Ads4PVOrVGBLBQRsWwo14mQCtr4THgHbiJ1d01RABc6qgICtb3+zDrBt94ro+H/goOcKNn4o4XMv/PItKJWbgR+EYEsIvAKKtavCSEdc0mz6BzMryIZ+bOKee+5ZAMAIlEe5lEmdtd4ax+caqJs48gfksVoubamAjbS13FqOn1VgTgoI2ARsc/Jn23KBCgjYpn/RBWx9JzwCtunfE7ZABVTgOAoI2Pr2N4cDtu/v9drlqVe2PfrYI4vPvfCZvWytr4h+6/VvLl/VrN9LBqBi5ReAisDKP44BYLzKyaudFaJduXJl+dol59hIy76FX7mDgGuU1Z4PGCMdIIw0tU7KBIhRP5+zD/BjnxVrjz/++G223H///cvqKZe82SiDLQAuNrpXgTkpIGATsM3Jn23LBSogYJv+RRew9Z3wCNimf0/YAhVQgeMoIGDr29+sA2xAlIcffnjDhZwGYDvkV0QrYAMMvu+BH7/te8kAa0AnQqAVwCqhrgIjDsAGsAroyjh41eu4XIcALtIkX8pnHxCWc+yxCYDWxuWaEh/ARhntccqtaYB62EJ9BhWYqwICNgHbXH3bdl2IAhlY1P/uXUjTZ9NMAVvfCY+AbTa3hg1RARXorICArW9/sw6wAVOGXk28/ZJOA7Dde99f3Wv1GkCtBWyfe+GXlmAqK8rQaB1wYkUbUCoBwEZcDUCsVYCNdMCvQDTS8tpowBnnOdf+GMHQq6XExdYWqLXHq8odqqu2xc8qMHUFBGwCtqn7sPZfuAICtuk7gICt74RHwDb9e8IWqIAKHEcBAVvf/mYdYOMK3n333Rsu5OUBtjcX312uDstronWFF2IxrgVkEZ/tUMBWLwLlA/VqvUPQq8K05K9xLVBrj8kzVO5QXMp3rwJzUEDAJmC7w4958PKfETbevT91oH62cwY6CZZst1v+23Rs21I/+3MFrgGdP35w7uuxTgNsq4OEdWk9N04FBGx9JzwCtnH6uVapgAqcXwEBW9/+ZhNgA6asH8uOH7CxAu3Bh/9utxVsADZeswRW3bhx47bVaWjFmJZf+cycg3H4IYCNcXLKqncg37eWFYZD0KvCtOSrcbE1c4T2mDxD5Q7FpXz3KjAHBQRsArZbfszDlwcn79zzwM3noS/GvJVp4ANQ6hAwN4YHL22gg6NDq1s6kYFmr41CWzrI9YOMt5Zwo3vq3re+tcZscRJbsQFb8l8u4sYY0Ahbz6XVGDWZmk0Ctr4THgHb1O4A7VUBFTiVAgK2vv3NJsDGeHr9+HH8vyLK96/t+wMHQ6+Ivrl4YzlmZezKGJt5T0LmHzlmj377AjbmH9QzdA0Y47MRhuZenKu2ka7GtUCtPV5V7lBdSyP8owIzUUDAJmC75co81IFrFQLxmbihB/OtjM2H+vBtTm11OIYHL+0FLPYKQ53OUNl0oNRbr8FQumPGpTPmv2cJ6EEHzbmxBQHb2K7I7vYI2PpOeARsu/ugOVRABS5DAQFb3/5mE2Bj3JhVUqs87NS/CLprfYd8/9owYPveUgrG+4yt6y9qZkzLuJvP7JmHsSXs+h1sjOfJz1sp1JUfn6Bu5n6EobnX0HyuxrVzm8wfWJ2XNg2VOxSXtrlXgTkoIGATsN3yYx54Q1CJhzvnEnigZmkz8XmIsuc4K774vA+QIR8P8ASO6+okyiQuEIrOgU6DNMk79EWfpKOTZxs6n/rYp301btNnyk/9aJa2p146MtqV71xoyyMd2qVd7fnPf/7zy/Kjc8pKPaSnXlYPpk7amtWEnEv7E9fWwXHbYQ7FUT4a1nqqprlG2Jp6c81a/1nV3iHbhuIyGKk+MpTOuPEqIGDrO+ERsI3X17VMBVTgvAoI2Pr2N5sAG1ebMfW6Mdr3F3+29+uXu8KyXdPzeui1B378IPt+86VfW1y568ri66/87rKcxeLN5U3AL4UOzbsAYswHMm8gXZ0fMP6vvzJKYZxfN7ZnvB6gl3KJS3jooYcW999/fw6Xe8btxNdQ4xi/U2+9tthO+WnXULlDcbUOP6vA1BUQsAnYbvkwD1oeiqsAEAl5mPJfEB6wpGdPHh6unAOm8LDlwcrnCn9uVbThA2VWwEb5Fd5QT+qkKNJjU+qMTTUPtpCGBz+dEp/p8FeFgCjyUV4taygPZVEmZacjTBvo8DiPzZRVO7RaFulznj15aGtCrk9tJ3WmHtLxmTjyYzvtoF7ytHG1Q0wd2bf64BPE5XpSFuVSXzTiOL6Ta5RySINfZKNtNS71btqn/pqOdlD3uvbU9H4enwICtr4THgHb+Hxci1RABcahgICtb3+zDWBjfFbHqq0n8J1ku4KvU6Vn9VrAWK86A9haHTxWARWYhwICNgHbbZ4cEAQI4XNWpyVRYFGO2QfeJI5OFACzbyBv7YiBJxVwBd4EqJAeeyt8IT9widCmJy6wquap9pI/oKpCqpqmfsaG+p8jvrQUuwPIhmyo+fnMkm/qpG7gE7pynDJic47J08Kl2u6UTxnRosYFhiWu7rnusSVaVDAYzWse4shDSHtrntha/+uWuNbParn1c+BijUsZ7GvAHjbD+BUQsPWd8AjYxu/zWqgCKnAeBQRsffubbQAbV5qxZDtOiwe8ufjeKAHbs8/97MGr1+6Ect9Ns92rgArMVAEBm4DtDtcGjgDXgFZAIiBFC6LoJIEnbGMAbHTcNWBz4oBVgB9szobdtG0V2EGD2mbykb5CtFofn0kfTbJEOjAswIlyVgXKb0FY1TY2t/nJF1hGm1uoNPRdDYnDZvJkC8iMZnWlGXEJVd/EVag41N5t41Le0D66Vltybaq22IcupDeMXwEBW98Jj4Bt/D6vhSqgAudRQMDWt7/ZFrAxBmzHuG97wDh/6OAYq9feXLzxdrP9pAIqMEsFBGwCtrWODVACTgFaCHSQgLeAH0AG5yvUGYI8aytpTrbwBlAS8BMbiAtQadOTpsYBY0iP3e2WMhoTBg+BUtGhTZA60nb21IlehCG41JbRtpPzAZ18XgXYAstIk/pr2fV84hNXoSDlAxzZsKXCx9b+qm/KDOgibZueNNvGpbxV+xaypd5cS2zDfuHaKgXHFy9g6zvhEbCNz8e1SAVUYBwKCNj69jfbAjauPmPl/EO49Ybvj+w10Ucfe2Tx+OMf7r6yztdD2yvvsQrMTwEBm4DtllcDJoZWaBEPmCLwGbhWQwt12uOatn4G7tDZVpDDef7DRRkJLXhqQQ021fTkq3F05nl1MWWu2wc6sa+Bdg8BttgDoEoI9OEcIWkCgZKu7ocAHvpE71WADX0yYBnSPjCtrYuyh8Kqemo5Vd+UUds81N5t41Leun2FbKmXPXYJ19YpN85zAra+Ex4B2zj9XKtUQAXOr4CArW9/swtg4+ozxm/H/cSP6TXR33zp1xf3X/2b3eEaENGgAiowfwUEbAK2W14OnGlBFScBPIlv4RfQBPgG2EhoIQ+ginRDoa6O4zxp2/JIU2FQBSrkGYI9NS7p6yo48g3BxNhAnTV94FCFaKQlZMUX9SQAvAA9aXfy1zRJmz1tpO0V7FUtAr5SJvnauFZ70lQwlrqG4nIuelVbY3/aj77YVkONS/qhMjbF1TLXfQ5kwyfRGj8Vrq1TbLznBGx9JzwCtvH6upapgAqcVwEBW9/+ZlfAxviQsWody8YjxvBrovygwTFeDeW72ICIBhVQgfkrIGATsN3ycjo7oAkbK7XY6ASBTflvU4AOUAOgwjk2jhPIRxznKTN5cr7u+cJ7oAj5yZf6a8dbywvEIU9ADXHYWUMbFxhDfFaFZWVYzZfPsYv0qX9des5he+ql/dgY3YBmxGFnVpulruwDFykHG0nL52gRHakLm9ioo/6ENnmwoYYhmDYUV/NwPag79WB7bT91EFdtxZYAOGyu14iyt42rdmz6nOtKXWwcG6angICt74RHwDa9e0CLVUAFTqOAgK1vf7MrYOMqMzZmTFn/oUw83092548C3DxZ3DHhGvDQoAIqcBkKCNgEbHd4OpAEsAJEATS1HSArvwJegFwcV2hE+uQHqlAeMGZVoIykH6qPfJSBPaSjTAAUewL1B+ykjlVxm+pJ/pS7bXraHBuBPLExgC3lRdNaT/1MPjQgHeVU7SkfiESa2NW2m2PaXgPXJjAy8UNxOZc9ZaUebKoB+4B59drVOrC7XiPybhtX69nmcyCbcG0btcaZRsDWd8IjYBunn2uVCqjA+RUQsPXtb/YBbHhBIFvG8vGMc61iA67dfc+PLXg99BiQz9VrucLuVWD+CgjYBGxH93JgDJvhMAUC2A4rpU/uALY+pR1eSoV7h5dmCadWQMDWd8IjYDu1B1ufCqjAVBQQsPXtb/YFbPgLkI1/1lbIdo5VbEC1Y70W+hasc/XaVJ4P2qkCPRQQsAnYevjR2jJY/VQ7z7WJPblSAQHbSmk8MXEFBGx9JzwCtonfEJqvAipwNAUEbH37m0MAGxeZ+QGvi9Y3YU65iu2nn/gHyx80YAXbMVauUaar1452O1uwCoxSAQGbgG2UjqlRdyrAKq2xrAQE9vlK5p3XyJj9FBCw9Z3wCNj280NzqYAKzF8BAVvf/uZQwBaPY0zJGBfg9ubi+0eDXYFo+b6169cfOWpdrMgzqIAKXJYCAjYB22V5vK1VARUYnQICtr4THgHb6Fxcg1RABUaigICtb3/TC7DhHsA1fjwL0PaNV752FPD1rdf/aPHoY48sXwk91vetBeK99cMGb47E8zVDBVTgVAoI2ARsp/I161EBFVCBQQUEbH0nPAK2QTczUgVUQAUWAra+/U1PwBb35C0Jvpvt2gM/vvjlFz7TBbRRzv1X/+YSrH2uU5lvg7ShXzrle9eEa7mm7lXgkhQQsAnYLsnfbasKqMAIFRCw9Z3wCNhG6OSapAIqMAoFBGx9+5tjALY4Cj+CcO2B9y2hGLDt2ed+dvEbL/3aVsCNV0A//tTHFg8+/HcXV+66styfBqy9BduEa7mK7lXg8hQQsAnYLs/rbbEKqMCoFBCw9Z3wCNhG5d4aowIqMCIFBGx9+5tjAra33IZvZPuzBa9z/vTjb/0gAb/4me3+q39judINAEfc3ff82C0gR/rjvwZ65+o1f9RgRDe8pqjAGRQQsI0EsL3xxhuLmzdvdt8o16ACKqACY1ZAwNZ3wiNgG7O3a5sKqMA5FRCw9e1vjg/Y3vKW7y++O7hyjZVq2da/snknCOuf3tdCz3lvW7cKjEUBAdtIANtYHEI7VEAFVODUCgjY+k54BGyn9mDrUwEVmIoCAra+/c2pABv+xS9y9odivcCbcG0qzwDtVIFjKyBgE7Ad28csXwVUQAXWKiBg6zvhEbCtdTdPqoAKXLACAra+/c0pARtuO0bI9ubiu/6gwQU/U2y6CrQKCNgEbK1PeKwCKqACJ1VAwNZ3wiNgO6n7WpkKqMCEFBCw9e1vTg3Y3nI1vpdt+JXR065w+7OF37c2oZtfU1XgRAoI2ARsJ3I1q1EBFVCBYQUEbH0nPAK2YT8zVgVUQAUEbH37m/MAtrf8GLjFDyCcFqq99UopK+n8pVCfJyqgAkMKCNgEbEN+YZwKqIAKnEwBAVvfCY+A7WSua0UqoAITU0DA1re/OSdgi+udDrSxYk2wFt3dq4AKDCsgYBOwDXuGsSqgAipwIgUEbH0nPAK2Ezmu1aiACkxOAQFb3/5mDIDtbSf8/g++o633qra8Cvrm21X5SQVUQAVWKCBgE7CtcA2jVUAFVOA0CgjY+k54BGyn8VtrUQEVmJ4CAra+/c24AFv1x8C2fb6rDUD33R98v5pQrarqZxVQgc0KCNgEbJu9xBQqoAIqcEQFBGx9JzwCtiM6q0WrgApMWgEBW9/+ZryArXVTQNn3lxuvlPKqZ7bEv/WdagK1VjmPVUAFdlNAwCZg281jTK0CKqACnRUQsPWd8AjYOjuoxamACsxGAQFb3/5mOoBtNi5sQ1RABUaugIBNwDZyF9U8FVCBuSsgYOs74RGwzf2OsX0qoAL7KiBg69vfCNj29UTzqYAKzFUBAZuAba6+bbtUQAUmooCAre+ER8A2EcfXTBVQgZMrIGDr298I2E7uwlaoAiowcgUEbAK2kbuo5qmACsxdAQFb3wmPgG3ud4ztUwEV2FcBAVvf/kbAtq8nmk8FVGCuCgjYBGxz9W3bpQIqMBEFBGx9JzwCtok4vmaqgAqcXAEBW9/+RsB2che2QhVQgZErIGATsI3cRTVPBVRg7goI2PpOeARsc79jMk1RLQAAIABJREFUbJ8KqMC+CgjY+vY3ArZ9PdF8KqACc1VAwCZgm6tv2y4VUIGJKCBg6zvhEbBNxPE1UwVU4OQKCNj69jcCtpO7sBWqgAqMXAEBm4Bt5C6qeSqgAnNXQMDWd8IjYJv7HWP7VEAF9lVAwNa3vxGw7euJ5lMBFZirAgI2Adtcfdt2qYAKTEQBAVvfCY+AbSKOr5kqoAInV0DA1re/EbCd3IWtUAVUYOQKCNgEbCN3Uc1TARWYuwICtr4THgHb3O8Y26cCKrCvAgK2vv3NOsD23HPPLR544AE3NRiND7z++uv7PjrMpwJbKyBgE7Bt7SwmVAEVUIFjKCBg6zvhOQZge+WVVxYvvfTS1pf/vvvuWzz88MMr07/wwguLu+66a0G5xwrUsal8bGASuG+gfNr6jne8YzmB2LecueZDHzSO79y4cWN5PNf22q7xKyBg69vfrANsjz322OKJJ55YPod5FripwTl94OrVqxvHBON/gmnhFBQQsAnYpuCn2qgCKjBjBQRsfSc8xwBsQJJ3vvOdi23/+3vlypW1wAn4BZRisN0jUM5TTz11W1GAL7YE6mSrARuefvrpGrXTZwbsaLMNzNup4Jkk5rqgcXTnGnFsUIFzKSBg69vfbAJshzxfz+Uj1jtPBVhN2WvMMU+FbFUvBQRsEwFs/+t//a/FN7/5zcWrr756a6NTu3nzZi9fsBwVUAEVOIsCAra+E57egI3VR0ARABurEbYJpwZsQ+AGGFiBIIPrCtxox6GAjXaySsMwrICAbVgXY8+ngICtb38jYDufL1vzbgoI2HbTy9T7KyBgGzFge+ONNxavvfba4ktf+tLixRdfXLkx+QG+GVRABVRgigoI2PpOeHoDtoApXvlsAVX8jRVKnGejTxoCbMA5ymIfILbuv8kpkzzrVkFQFivJgGXArrpaitc/gWzE33PPPcvVZnxOvUOAjfKok7YkXdqZfcoEOqJJLZM0sZ0yWtuxiTpIQz1tHehHeRUOkqbWwbnoOWQn56JDbK5x1MExe2xo06YN2Eka6hhqC+liW65TbQ+f0TjlUx7HCRwf8opuynGvAtsqIGDr298I2Lb1PNOdW4Gh/vbcNln/PBUQsI0UsLFibRNYa6Eb6V3RNs8b1VapwJwVELD1nfD0Bmy8AhkgBBwBuNQQaAJoAsKQnnQMZhM4B4ziPDCMz6SpMCZp2QOTOE96PlPmKrgHKOJc6gywIQ4bgFHsKYONz2kDeSoASzrq5TPnA4eqfSmTdgDuapnYm7YSn8/JnzjisTG25Dz1tfVGY+plCyysdqJDwtDKuhpHedSPHpTFcRvSDtLkumFXrQdb045cJ9Lnum4CbNTNZlCBUykgYOvb3wjYTuW51nOoAvS96ZsOLcv8KrBOAQHbCAEbq9FaeLbt8Re/+MUFcM6gAiqgAlNRQMDWd8LTE7BVsIM/AYQAKTUEWiUOAAR0YTBL4IvtATMVJD3++OPLuFWDXSBchT6BTrWM1Mc+dta4ALbEYQ9xNWBXAFvKqDYN5an5K7QiPnYG8tU4zhEos0KoZWTzp7W9HqNdmx8AhuZoT2jtauOG2tqYsLzOlFn1aOsZuvY1jrwVFqbe1BVgmGP3KnBsBQRsffsbAduxPdbyeylA31v7s17lWo4KtAoI2EYG2IBj28K0VemAbK5ka13dYxVQgbEqIGDrO+HpCdgq2MF/sqopvgTwqgAl8QAeBrMEoEy7Sikgat1gF/hC+aQNmAmkSj3Z53yO2be2D8GyCthIz4ZN2VitBWRaFVqQNdRW8tL+6DFkR1t+dA6Aws5Au1pW8pGutqW1i3Q1bkivlJV9VqTlmD26UE+uSz7XNFWzpM9126beWpafVaC3AgK2vv2NgK23h1resRSg76VPMqjAsRUQsI0IsAHFdn0tdBVkW/Vf/m0disF6/qvf5uHhxACawXcG/G0aBtOcZ1v3MCPdUBnEtfk4ZnA+FGgv59o8NS1lkoa2TTFgN/ZH10xY9m0Lehxaxj51Yz8rHAwqEAUEbH0nPL0AG89TAArQiGcPW1ae5dnBnjTts7cCtiGgtCpffIL+B7AVmJTvWEu9SZc9tmFHDfsANsoY2mq59XOFVsQPtZV4bKEN69IsT/7gT4AZ7aVt9ZnZ1pl82J1+eyhNjRvSK+VkP/Ssjk9Qz6prWMtO+ly3ei71uFeBUyogYOvb3wjYTum91nWIAgK2Q9Qz7y4KCNhGBNj4QYNVwGyf+H1++IBBcL4fpw7o41ScZ9KTyQJp+FxDXiHhQZZJ0RBEI0/+012hVwbklFMDx0M2kYaJAJOL1paan7ykyUC/nhv7ZzTBfrSvulaNgIycq1quaxdardNrXd5Dzg1N2g4pz7zTV0DA1nfC0wuw5fmcZ0X29bmf53X7Tx1gDs8jAs+pXVaw8QyjDmBeQupZ9fweAjfYGxsoh8/tM69CKfqrmj51r9tXaEW6obYSX20ZsmOojuRp7aLO+uwnb4Bc+trWLtLUuCG9WhuGntVc5/Sj+cy1qQG/IQ2hvW7b1FvL8rMK9FZAwNa3vxGw9fZQyzuWAvS9bX91rLos97IVELCNCLD1Wr0WGNdOeDa5OgNfAA4Ddwb0THDakNUEiW8Hz0x+MvhOGsobKovzGaDXSVPsaPMw2cCuocBEANupewgwZVDf2jZU1hjj6BTQo7Yt2mfFQrTftvNAT7ZTh6FJ26ltsL5xKSBg6zvh6QXYeOYMAac8T/M8Sr8RryI+/wwgbujZBAjieTz0vMqzLbCIMpK+9hWpj31sqnEBVIkbAlvYkGdo+pFqE22pxykr+wqtiEtbq51pDzYShuxIeXVPenRkq+XFzuhPnkCt2EpfXSEc8ZRDXsKQXrVuPq+rJ3VTZq2HfNSdvjptj/3b1Nva4bEK9FRAwNa3vxGw9fROyzqmAvS96SOPWY9lq4CAbSSA7dvf/nbX1WuBbLt8FxsD5gyaGVi3gItzTEbqpIdbqA7kMyCvt1YmHKseagzQmRwkMDBnaydfHGeCkrTZUy+TqTqByDn2mWhRRgb6xNMm8lIfaTLRSl7OEUe9Q2kAhDyw2XO+tmNduZSPHkxMYtsqfUjLJI562kAcqzxiH+1r7Wjz5Jh62daFaiPlttCW+tEzbSVN245oRF2kGwKulEFZQ1okf7WFtG0969rhuXErIGDrO+HpAdjy3G7veTyJ52Z91ua1Ue5LnoH0CTyLOE4gjj6F83kGkGbVfcyzgPT1mUH6tv9J+diZOpMmz5OkoazYnXrJk+c+7aLO2ImtfH7ooYdSxB37FrCR4Nq1a3eUgS0JedbleNU+OmNDDa2dadf169dvJSOOtqF1vSbEE7YBXSkjeuS41pNyaBOfaScaR1/22JF+N+ljKOmrNol3rwLHUkDA1re/EbAdy1Mtt7cC9FPpm3qXbXkqUBUQsI0EsL366qtHAWz7vCaKgzCQbgf17UA5jsTgOBOpAKOcY78qX9IAZdgSGJwzQaJcJgaEdZM9zsde9uSvIfVnYJ+BPmloIxsTRDby0oYEbCCOPflpZ50sxC4mj5lgkJfPtVw+U0YCNiUu5VLP0GSWPGlXJo4pJ3viYxv2U+amgD3VpjY9Ng61PZNR0qMFaagb/WgTx0wACavKIF0C15hymLRhN77AefISojFxpEk962xP2e6noYCAre+EpwdgyzNllQdxr3IvJnDMPcn9y2fua/YJPBPSP7APOM+zIumy5/6v6TnmOVOf30mbPfZgQ+odsoEysDHP2rZM6kk5aUvKH9oD34aey1WPCqQog3Nt3FDZxGEDNrah6tO2IWlrO9Ct2srxULnJyz79KvZiB1u95kmba4n2XDNsS+D6Uk/0buulvKEyk9+9CvRWQMDWt78RsPX2UMs7lgL0RbV/OlY9lqsCAraRALavfvWrRwFsgLt9QgbWNS8PpQqXco5BdQbq7DmuYVW+pGESBJQhMPimDgbl2JCySFOhTPJmH3vJ19qITQE29RyTBuqtD9vUz55A/cCzGlixwCSCkPSZPBB348aNpQ213GiQiVhsquVWHWs8nzNJwX7a0k5iSBNbar1tOfWY+qJvjc/nobZTb64V6bAnWnC8TTvbtgecpV721ba0K9eE81w76jbMQwEBW98JTw/ANg/PmnYr8jytz75Ttij96inrtC4VOLYCAra+/Y2A7dgea/m9FGD+se0cqVed+5TDnI95DnPGKdi7TxvbPIxzaPdcgoBNwDboy0MD61WDfWAIDy0C+xbarMqXigNQSAesSX7isxoq/z1PnnZf7a1whnQAHB5UrR2ko9w2UCdAj0CatC3paly1PedrGxLHPqvc8pm6sSsbx9i6LmSlAOlauDVky7qyWp3atJQfHXKO+okPUORzXdFGuhpHmyuA43y9VrE55aWeIejK9UtAM+qpcTnnfnoKCNj6TngEbNO7B1qLecbxjN7UJ7T5eh7XZ3XPci1LBc6pgICtb38zVsDG84txYt14prbjxnY8mXEp+duQtInPcTtW5nz7/ByyJ7ZRJ4F/4Ccue2xux8ipnz3nkzZ7+o127E3adW3LHCllsGc+FCiVvPV8+xk7k6fayOdoxf5cIW05V/3b1BsNua5sQ/PUbcqZUhp8C7+ZUxCwjQSwzeUVUR5e7YqvPLTTgQzdQNxYgBry1o6KePLRWdT4tozakaUTyH8AKAMbWjt4cLXwjHLrd+oMpalxqYuyEyiTNG2o+eiUaBNxdRuypy0nx7xWQzkZBAzZkrRD+9Q7dI44ym7hWavhUJoaV7VMPfVapcPNuexr/FC7cr7qnrzup6eAgK3vhEfANr17oLWYvpBn9Dmfcfz3fGiS1trqsQpMSQEBW9/+ZuyAjWcoG2NJxtjMCSqwaseTGXMylm2fv0kbf89x5hmJZ1/HuvU49tR9Vu7kDZmcw04AC+UnTa2DzxnLJw977CJP+/ym/bSLPG0gH+eyaopjtMhchfS1DvoobKtxpKHdQ9rVctq6T3VM+7F3zIFr0163c9iLDRXu5b44hi3M74d88hh1napMAdtIABvflZYfJui558cT9gltx0AZPNx5aLbQhYdsHgbcJDzUa8hNWTu0ep7P3Fh58NeHH3GJX5e/tRcbiEu51EG52I89BB4cQzc0eQPzav5lpmIrx2lbtRkt6EjaUHVKJ9qmGTpGd+yI3TVNOjjihmypadvPlDnU/qSrOiQudeRaDPlDjRtqZ71WlEP6qh911TSps6bJoKbGxUb301NAwNZ3wiNgm949oMUqoAKnUUDA1re/GTtga72KsX8do7fjyYw5h4BQ0qbMHJO2wgjO13Hs0HHKqPuhf0pn7pV5SU3P51VjeepnfB0wx55xfWymnTUwniZ9Gz/0tTepl/lZG6in1S51nnvMjr09bUCrAMlWh1XnmPdgw9B54rgGXGvSoSVxCXwmL3pyjs+kYyMubeMcxzVvyqh70mF/2wbyZc6a8uPPnCMfYVX+2LXODspJvdw74QgpF/s5XwPlRZdV7YsWQ23POfbHDgK2kQC2N954Y/HFL36xK2T70pe+tLf/5EZqC+BBXh+o3EQ8DHIT4NDtA5r0tTNry+SY+njwt+m4gYhnWxdae1MetuRGiq256VJ2HkiUz0ONPIlr20uaGpf2Jj3nE5d6iMOGqgsPEtpU85GmHpMvgbT14UM8adEr8akj7SXNujJXdcqpkwceD9g8SIlvryVtaoFrjct1WFdG2zbS0q74WfSs2nDt6nWKze6nqYCAre+ER8A2zftAq1VABY6vgICtb38zNcCWMWXGyu14MueZ1zDOrGAraeOlOa55cm5oXtLOcZI2+yHAxjnGyZQ3FFaN5WNbxs4cp37yZO6QMklHe2lLDWlbG1/nQjU9n1N38tQxfZv2lMfMK6LHIfVSBvMjNGCuxPVJW9tzdU5EnaRNXvZoE3DEMekpFw2Bm8QRMscjP3moj7r5THo28nJdicu5VX5DeZSVNpAH24lPWdTN21KZ+5GecgmkrXXzOXO92EB+0mNXOAF5KT9l8Zl0uc+YU3KOOomv5WZOSVzKTT7Kzfmhtrfnar5lgzr/EbCNBLBxXXv/0MG+P3AQJ8WB28ANzY2C83IDcRNwA9Rw7dq15Q3B+dwAPCjWhZQbqJK03Kx52CRuaM+NU+1NvmobDwPKykOQcqqt1M35+utu3PitTTUudlN2DZSRB0R04hfcErAPe9k4Tx2kr3UnLXseeElP2qQnLnVTJmVgXx4cfEabocC5pOdzNq4ZIQ9P6qCMpMeWBPRaB9hqO7GZMtKOlJFBTHwq59OuIY3TeSdNynI/TQUEbH0nPAK2ad4HWq0CKnB8BQRsffubqQG2zA8ydm3Hk3XMmUl5xppJGy+txxnrUz6hnZekLPLUrc5JhgAb+dq5S+pnn7F7jeMzY27G0wmkI47AHIHxf2wljja29XCesXktZ6i8xNV97IpG0bCmOfVn2t/DDsqJlrSBa0R7Ce25aM25+F795WyuQ+ATQK1qXcvlHGmr/cxx67wRG8if64r2tbylgT/4g52cT6CszB1jZ53vUTb2JFBuW3fyk7bqUzWJTbGx9TvSRg/qos25V/HFzFE5F87A55QbfVIu9bTnuOco95hBwDYiwHbz5s1uq9hYvUZ5+wacLzdKWwZOy03GTcBDIjdJTYcz4/hstfOoaepnyqDM3Bj1HHZsKmPIXmyo+VbVsc5WztUbHbtqXLQY0oB8mzSgLHTcRifqqrYOac/DkLLy8OaBWR+IVVfK4ly71eueOnOt2+tD3voApvw2LhpRBnWSvtZBnpqmbVfOVY0pg3pqXG2bn6elgICt74RHwDYt/9daFVCB0ykgYOvb30wNsOFp9Z/DjEs5zviWeUOOGWMCEgJPkjbeWo9Jy6SdsS6BMWqFGxxTLmXVLeN18gDYUh9p+EyZNU3qzp50qZe62Rj7E5f5C22j7syJYmvABWUlDXljH2VgQzvOJz1p0tbYUvfRkTLqAoOa5tSfsTfXed+6o1MtBz3RaOhcjUMT9KiB41wXfARdE7LwgOP2HHH1mnJMXuaACfgn13NVwGbSsHGdMzcbspPz8aecZ5+t+kNtE3XXdmAP9SVgA+1AwwTKjF21LPLGRtKiSYAb9ddznKccQnSJrZRNnccMArYRATYuNBOjHt/Btq7DO6ZDWfZ4FKgP9fFYpSUqcKcCAra+Ex4B250+ZowKqIAKoICArW9/s26+wQS4QpxTeiB1D02imcgTH1iQyXaACZNwzrfHTN6TNu1ojymTvJRB/UCJhPY48XUPYAMYUC5bYFdN034GHlAP5Wdr/1ENWAqoCGRoy86cgVVJqZ+2tNAi9Vegkrh2TxrqjZbt+VMf9wBs6EebhkJWmdVzFSChJZokRPPApQqiSMM1ip+252q5Ka+mJw7YFgCVNOypDzvYSIPfxG8539qZe4Y6cx4NUkb2+E3S1mvO+fhRrYeyqmbkwZdJj03YRvro0+albaQjxL+XB80f8sXfYyv7YwYB28gAGxf70F8UPeTV0GM6m2WfVgEeVOv+63Vaa6xNBVYrIGDrO+HpCdgYTDLIue/eexf33H33cs9nNzWYog8wwTrXhH/1E9Azp1RAwNa3v5kaYAMCMOEOAGiP6fPqeXyTPpAJfEBE/DV5c8yeST+QgDz7ALYAA8qKLexXhQCDVeeJxw7aNLQFXqAH52tdaXfS1Dqol+fpusD5qsG6tKc4dyzABnhCv/YVT9qEj0QD9KzAC60rrGsBGdcjUKs9R13EJQRsJT3xXKPqT0kL7Kp5yUNduc5DdnI+oc2fePZtm4ir8Itycu9xDvsCu7g+1adqWa2N5K2aUEdgJOdoS7Roz3H+2EHANkLAxkXfB7LxIwn8GqlBBVRABaakgICt74SnB2BjAHXXlSuL6x/84OKFz352sXjjDTc1mLwPvPTlLy+eevLJJSBmYJ8JxZSel9p6mAICtr79zZQAG/c7sKNCjkCyTPqZ1LcQIPmIr6AheatHkpYJPVvACud53tTjmiefh76DbRNA23R+qD2pDxsDYIYAW9qSNMnHnnorDKnn8pnzm9qctKfYY0+u8771RRN0JQT8UG57jjjaj58Q0CwruTjmM3EJ+FbKzXWr5wKMiOOaVD9u05OmAqiUwx6AlnqxGV3whQTKrde8QkLSpK5oyZ4yCW2bog/1ELApaaNPjqk3PkV60sbOFihSFnpFE9KlnOTNq8mcS7mxMTovjTrCHwHbSAEb15rvUNvmhw8Aa9/4xjcW/BKpQQVUQAWmpoCAre+E5xDAxoCHQQ5g7fU//uPJAxXBoGB0lQ8EtB17oD215/Hc7RWw9e1vxg7YgANsAANgB1vAAL7OOSbqiWvhQe6HxG8CbKTn7RHSVbhE/UCM2FP3qXsIsKXeVc8p4EEgRGyte8DCqvMAiYAVbMDmtp7YHUCSsltokfi6p+6qQT13js/YE60Pqb9eX/SrbwtxXeNn7TmOq76MtQKFWhBVgVJ8oNrcQrCannRcL65nAFTNiwbYiD1sXMt6ndK+2EZZSZtyeJU4Ps65aFDbRFrs4nxCXqOORuyz8gxbq10VsOGHlJ0QvXLctilwjfPtOdrbww9S99BewDZiwJYLBmhjZdrv/M7vLL7yla/c2oBvxAvWopT7KNB2hIlnv+5cTednFTiVAgK2vhOefQEbAxZeA33l5ZcFa65WuwgfwNev3n//bf+tP9Vzz3rOo4CArW9/M1bABuhgIp2NyTkQoB0DM7knTeLpB+tx9VKgAucSkjfHdQ/MYUto7Yld7ANdsJF0bWjLqueBIBUm1HO0ifIDMOo5PlMv54ENbHym/TWsKoN6A1Vq+voZKFI1qOfO8RlbeoEVdKGs+E1tz7pzNd25P6+yH7vac2lTtXkorp5f9XlTvrbuVeUMxa/Lu+7cUFmHxAnYJgDYDrnA5r08BegwK+VvFaCDGerA23Qeq8CpFBCw9Z3w7APYlpOKe+911Zpg7SLAWruq7dr73nfbqzunevZZz+kVELD17W/GCthO71nWOHYFegK2sbdV+86rgIBNwHZeD7T2oyhAJ5L/iNUKAGur/tNV0/lZBU6pgICt74RnV8DGf/X4wnpXrvk6ZQueLumYe2Co3zzls9C6jq+AgK1vfyNgO77PWkMfBQRsfXS0lM0KCNgEbJu9xBSTU4Dltyz1rmE5iS7L4Os5P6vAORUQsPWd8OwK2JaDTl8LvciVW5cE0Da1le8c5BVp+k/DfBUQsPXtbwRs871X5tYyAdvcruh42yNgE7CN1zu17CAF+O6D+ms1dCztdyscVIGZVaCTAgK2vhOeXQAbK3YeeN/7hEu+GqoPvPHG8hdG6TsN81VAwNa3vxGwzfdemVvLBGxzu6LjbY+ATcA2Xu/UsoMU4L/w/AILe14N5ctZDSowRgUEbH0nPLsAtuUXHLt6TbgkYLzlA/XX1Mb4vNSmwxQQsPXtbwRsh/mjuU+ngIDtdFpfek0CNgHbpd8Ds27/cnXKAw8sQdusG2rjJq2AgK3vhGdbwJbvXtv06pzn/W62S/KBxz74Qb+LbdI9ynrjBWx9+xsB23p/8+x4FBCwjedazN0SAZuAbe4+fvHtYwWb3ylz8W4wagEEbH0nPNsCNla2PvXkk7dW7lwSRLGtQsNVPvDCZz+7ePjhh0f9zNS4/RUQsPXtbwRs+/uiOU+rgIDttHpfcm0CNgHbJfu/bVcBFRiBAgK2vhOebQEbEAGYsAo0GC+EulQf4OsVDPNUQMDWt7/ZBNj4GgLAhpsanNsHeP2flfsGFTi2AgI2AduxfczyVUAFVGCtAgK2vhOebQHb1atXF/xy4qVCFNstQFzlA/fee+/aZ5Ynp6uAgK1vf7MOsPH2BEDDTQ3G4gPTfXJp+ZQUELAJ2Kbkr9qqAiowQwUEbH0nPNsCNlYWrAIMxgufLtkH7vmxH5vhk9YmoYCArW9/sw6w6XEqoAIqcIkKCNgEbJfo97ZZBVRgRAoI2PpOeHYBbK5gE6RdMkhb1fa77757RE9ITempgICtb38jYOvpnZalAiowBwUEbAK2OfixbVABFZiwAgK2vhOebQHb8gt/X37ZVWxvCNlWgaZLjb/PV0Qn3KOsN13A1re/EbCt9zfPqoAKXJ4CAjYB2+V5vS1WARUYlQICtr4Tnm0B2xNPPLF47plnBGwCNn2g+MArL7+84PsJDfNUQMDWt78RsM3zPrFVKqAC+ysgYBOw7e895lQBFVCBDgoI2PpOeLYFbC+88MLi4fe/X7hS4Mqlrtiy3W+vYnzqyScXTz31VIcnm0WMUQEBW9/+RsA2Ri/XJhVQgXMqIGATsJ3T/6xbBVRABRYCtr4Tnm0BG65315Ur/pKogE3IWnyA10P5xTvDPBUQsPXtbwRs87xPbJUKqMD+CgjYBGz7e485VUAFVKCDAgK2vhOeXQDbY489tnj6yScFLAWwuJrr7dVcl6YFr4fy3YSG+SogYOvb3wjY5nuv2DIVUIH9FBCwCdj28xxzqcBisXjttdcWv/ALv7j45Cc/tdy+8IUvLOMURwV2UUDA1nfCswtge/311xf33HOPq9gEbELWN95YuHptlyf3NNMK2Pr2NwK2ad4HWq0CKnA8BQRsArbjeZclz1KBF1/8wuLq1fcsfvRH37X483/+/xjc/vJf/j8X73//g8K2WXpA/0YJ2PpOeHYBbFzN5XexPfiggEXIdtE+8Nijjy6uX7/e/wFniaNSQMDWt78RsI3KvTVGBVRgBAoI2ARsI3BDTZiCAoC1d7/7rw0CtVWgjXhB2xSu7nltFLD1nfDsCti4+oAFAMOlvRJoey/3ddB67XlN+r777jvvg9DaT6KAgK1vfyNgO4nbWokKqMCEFBCwCdgm5K6aei4FHnnkkZ3BWoVu73rXu5avkJ7LfusdtwICtr4Tnn0AGx4iZBM2Veh0KZ+Ba8vXpF9/fdwPSq3rooCArW9/I2Dr4pa70Bo+AAAgAElEQVQWogIqMCMFBGwCthm5s03prcCf/umf7rVqrcK1+vlDH/pwbxMtbwYKCNj6Tnj2BWy4EpDt6v33L/iy90sBLLbzMsHi63/8x4uHH3xwce3atQXfRWi4DAUEbH37GwHbZdw3tlIFVGB7BQRsArbtvcWUF6cA37VWAVmPzx/5yEcuTkcbvF4BAVvfCc8hgI0r9corryzuuuuuxQPve5+gze9lmx1oBazxOvQ9d9+9eO6559Y/nDw7OwUEbH37GwHb7G4RG6QCKnCgAgI2AduBLmT2uSrw4Q9/uDtcC6Dj10YNKhAFBGx9JzyHArZcF3784IEHHlj+suLD73//4omf+qnFU08+6aYGk/QBfJhfCeW71p566qm4ufsLU0DA1re/EbBd2A1kc1VABTYqIGATsG10EhNcngKvvfba0eAakI1fGTWoQBQQsPWd8PQCbLk+7F966aXlah/AhJsaTNEH8GFfBa139WV+FrD17W8EbJd5H9lqFVCB1QoI2ARsq73DMxerwHve0//V0Kxey97vY7tY97qj4QK2vhOeYwC2Oy6aESqgAiowQQUEbH37GwHbBG8CTVYBFTiqAgK2EQE2vgvkscceu217+umnl9+HM+QFvL7z8MMPL1/hIR/fmzMUajrSc5wwVGdrQy2X9NvUmfLdT0+B3/7t39559Rrf1fajP/qunfK5im16vnEsiwVsfSc8ArZjearlqoAKTF0BAVvf/kbANvU7QvunpACrsOu8fEq2X5KtArYRATa+6+Yd73jH4Ab0qoHjobTbpgOSEdbVmfIBctzM/Ix94ur+iSeeqKb5eeIKvP/9D+4EyliR9slPfmqxz6o3v4tt4s7SyXwBW98Jj4Ctk2NajAqowOwUELD17W92BWxvvPHG4tVXXz3KNjtntUEq0CjAd4hevXq1ifVwbAoI2EYI2Lh5gFpsDz300C2olZVnfPcJgOud73zn4vHHH19+Nw77QK+kY1/jgGTkJR/xnOc7SdizpQzOJ449tBwgRx5+WY44yrp+/foyjvR+r8nYbu397Xn3u999MsD2yCMf3N9Qc85GAQFb3wmPgG02t4YNUQEV6KyAgK1vf7MrYLt58+bixRdfPMrW2VUsTgVGpwCMgM0wbgUEbCMEbKwqq4EbCbiVVWdZSZbjpM2qttx4AXGkr4F0pOF8DYCzQLQaz2doebUh5ymHDVBn2F4BtEb/uvH67a6Bawn0TLhy5cryFeMc77r/9re/vTNcO2QF27Vr13Y10fQzVEDA1nfCI2Cb4U1ik1RABbooIGDr298I2Lq4pYWowFYKZN69VWITnU0BAdsEAFvgFuCNlWKALrYWat24cWMZz4oyQoAZacm76Z3tpK/AJp4ZeEfZvBK6qazkcz+sANcDLfOgZM8x2rfXdbiEt2J7AzZe2cyPEOyy3/cVUb+Hbd3VvZxzAra+Ex4B2+XcO7ZUBVRgNwUEbH37GwHbbv5nahU4RIHMGw8pw7zHV0DANkLABlADdrEFbAHJWO0E2ApgayHX0Lm8xpk8rGbjhxOGwjrARvq8JpqysHMXGDRU56XGAdh4SNYAPCVuCHDWdPXzOQDbu9/91xYPPvjgbRtg7iMf+chtcaTZ9MMH73rXu2pz/HyhCgjY+k54BGwXeiPZbBVQgY0KCNj69jcCto0uZwIV6KaAgK2blEctSMA2QsAWgFX3fBcbYQiixUOAXclTvxONPAAdwE3Ot3CHMjYBtqTJ6quUBeQx7KbAEGCjhKxCDDzlOqIvMJNr1sLRcwA2fjH0Qx/68G0bvzzKKrY2fhNgY5WcQQUEbH0nPAI27ykVUAEVGFZAwNa3vxGwDfuZsSpwDAUEbMdQtX+ZArYRAjZWmQFO2PjhAcBXQn1FtMZzPoAM8LUqsAqOVxFJ0/76Z/Jvu4Kqro6rQG9V3ca/rcAqwMb14dpET3yB60E8vsDnCkd7AzZA2S6vhiatr4i+fW39tLsCAra+Ex4B2+4+aA4VUIHLUEDA1re/EbBdxn1jK8ehgIBtHNdhkxUCthECNuDLusDNBYQBrtRAPuIDYPLdbe2PISS+zb8OsFEuW/tF/IlvYV+1y893KjAE2NAQgBbAGdiW1WyUkmsUvXsDtlP/yAGr4QwqIGDrO+ERsHlPqYAKqMCwAgK2vv3N1AEbY2zG1Of6yps6xh/22OPHYkO75R/9x6/9rRrOrQPtxQ/ObccmvQVsmxQax3kB2wQBWyALcAvAwnH9frR0EgE0rFjj1ULSAciygo3zNaTcAJ56LlCPc6Rr6xz7A6m2ZQyfA0MDKLNH52iZ10Jbe/ml0EDT3oCNuvjhgaxM23a/7wq2Rx75YNs8jy9QAQFb3wmPgO0CbyKbrAIqsJUCAra+/c1UARtj7cxtMgZnjpMx+DbOFCizL4yiLupmTnXOwNsy0SB7tNk30K7MRdeVQZpcg6G557q8Pc9lToYNtJ/jfa9pT7uGykKvQ67NUJnG9VdAwDZBwIYb1Ncz8zAEnPEaYQ1D6Ug/dHOuA2w8aLLyLfVlTx2G3RTICjY6oWztwxy9SdcGrl3ijwHYHnnkkZMBNn4cwaACAra+Ex4Bm/eUCqiACgwrIGDr299MFbABUwBLGXszFmfcTXzihj3o7djMm8i7TyAfc6lzAzbmj8zlsCPbNoBsVZszx1l1nnjaTr2kpc59NVxXxzbnshgl1yB2Mb8aYxCwjfGq3GmTgG1EgI2bmxs9N/mdl+v2GB4CADUeAuxXdQhtulXlk5/629dAa63k3abOmsfPdyqwTedDGjr/NtD5H3MFG9Br25VrSXft2rWdV76xUs6gAiggYOs74RGweV+pgAqowLACAra+/c0UARvzoiGwlfg6D8rciO+trvMnABTzIcoh/T5AKvWlXI7zOd5LXC2b89jEHpuqrcnDftP5pKWsIS1yftW+lo+NCcQDgZi/8JnyhwLnmeesCrQ5eqSdtZ5oQH40YC5MfQTOMZ9tr9lQXUPzMeKArQlpB/vYknPsc41qvbF1KK7m3fWzgG1Xxc6TXsA2IsB2Hhew1nMoMPRAb+3gQd52evlPSx7cx1jBhh3vec97doZsgW3b7j/1qU+1Tfb4QhUQsPWd8AjYLvRGstkqoAIbFRCw9e1vpgjYgB6snso/q1c5DTCFcThQI2/xZGUTeYFEnGcPbNs1MJav4/x2TE95db6Q9NjDP9vZx77UTduIp31ZkYd9xA8FQBZlsAdUBVINpSWOcigvq8+wgw3b2GIb5/lc4WDKTDs4R33US1wNfB0O5aacWg/pMkfCFrZowXUhbY3jOq4KQ5pTFroTYitxtcycJw2fYx/p+IymsaXGbdJ3lZ2Jpyw2w7gVELAJ2MbtoTO1rnaY65rIku10kuThgV1fyW07BjqkdP7ryt10bp9VbNuCNdK5em3TFbis8wK2vhMeAdtl3T+2VgVUYHsFBGx9+5spAja8JavPgCF8T3ULeEjDuQrOGF8zDg+sCuQZyruNRwbeBLq0Y3rKqPOFpH/ooYduFX/jxo2lTbEhUCc2Es88YtXcIG0gTcAQ+5R3q6IffACGAZpSPtHkpd6EanPi6j42Uw8b5aFrBWHMZ2o9aUfqid31+nCOcto47FsVaAc2ACNZxIDttf3U2869UneuG3moo2oGBCNfjaM9pN0mkA+bqs7kGwJspCFtrWubOkxzPAUEbAK243mXJa9UgIcyndQ2gXR0jHQceZgnX/7jlGPSDv23KOd32e/zXWzbQja/e22XKzH/tAK2vhOesQA2Bn0MJh30zf8etoUqMBUFBGx9+5upAjb8lb4pcAQYsqq/oi8jLWPsCk0CWvbt48hHeRnbbwvYkj5tqGUAhyqoIg3tAsAMBdrG/CJtYE8Z26ySIi0baakjgc/r8mdlYF0wgA1AKuwhDC0YIA22EYa0z1s+ywQ/+FPjyMNxNpKk/dSNzZRfwRbtq/qmbGAZ9hBob+zK+SENhuKSvt3H7goZSYONVVvsJw02bjuvbOvyuL8CAjYBW3+vssRZKPDtb3978e53v7v7q6If+tCHZ6GPjeingICt74RnLIBt1cC0n+dYkgqogArspoCArW9/M2XAVj0HoAEkYQvkAcgAL4AvxLMHZNC3EYYgTy1z0+e2j+wB2LBvaKtQZpNdAWDRoU2PndEEXagPeJSwCSQlf9Kzpy7KYTUhYQiwBTpxfkj7en5ZyGKxhGmUS6DeAKroEWiXtrLnmgdIttco5ZI/aWgvOtQwpMFQXM3Tfk57KmSL/aSNrbSPtIbxKCBgE7CNxxu1ZHQK9IZswrXRXeJRGCRg6zvh6QnYGLQxoGPwyD4TizgOA1YGf5xnsJnzDJKJZ+DHPv/pJR9pSJsyM6BOmQycUycDUv4ry3EN6+xiFS/pmSSwp27spKwaON/G1fN+VgEVmJ8CAra+/c0UAVv79ke8nPhAHuAFEKmusmqhTnuccob29HukryH1JZ5+ah2ooQzsS3rKauM4T99GfLvVuvOZNIFLiVvXLl6/xEbyJdDP1r6Uz22fnbTs6b/Rtg3RnvghwEa7km/IRsqljBqG4up5xifoXkO1j3a2mpO2tpn2rrtuKXuTLklX97EfO7lO1MsmXKsqje+zgE3ANj6v1KJRKQBke//7HzxoJduP/ui7Fh/5yEdG1S6NGY8CAra+E55egI1BJwNLJhgMZhkcMrjNwDr/+QWAcR5oxnkGfkwcGIgnf15dIC9p+A4Z4ii7Dl5znrI4n4EuaRKwizKqXZynTkIG3gx4sZFyGJiTpk4kGLDSJoMKqMDlKCBg69vfTBGwBVqkL4v3B3jRZ6QfqWmIpx9J3FCalNXu6YvSP+Zc7EjfNQTY6AsDq6iX+qk3oY0LgMl59rXfq/F8HoI+Q3YkX7UncdRZ+9KhMpOWfWszcdE+bQOwoVkNtW1D2kfPmmcorp4fqidjDNLFVq59AnFcS8YVBNp7LMBG+WkDY5a64QucM4xPAQGbgG18XqlFo1SAX/3kxwm2/Z61pLt69T2L1157bZRt0qhxKCBg6zvh6QXYAqiqlzC4y6CXwWUGw6TJQDRx7TFpGIhSRg0Mmhm053w7UGWwy0CSwESBgW39EmPihwbembTUfBkQD9m2rMA/KqACs1ZAwNa3v5kiYMPB6Yfoa9KPASo4Tv+Tvoa+iXOBLhWwpR/hXPo9+qL0M/VGoj+i76I80qa+9H2kJZ7yKQ+gk76PMgmpL3UNxaUM+lo+Uw5tavvMZYGlTvp10mM7dtaVe0nLPjbFRuxPu5KOuomjvFVw79q1a0u7WMEeG9NOygF8UUauD/ZVoJR2okkCmmassC4u59jnH4Gpp21/NEdD7GSL76TuYwM27EzbaF824gzjVEDAJmAbp2dq1WgVALS95z3vWQvaWLH24IMPLvwxg9FexlEZJmDrO+HpAdja/yavcpgMyBlsZwBMHCED0xwTx8A0ExYGh2wcZ1LDAJvBag0ZWBKXQXWFZ8RnUFzTZPCbsqgnA3jKTJ05714FVGD+CgjY+vY3UwVseDr9AH0CfQEbfVgFQvQzOc+e/if73CmAKPKm3xp6tTFp6ZNSHnnIW+sjHXEBOJTJcX41NPlr/zcUFzvTrlVwLXbtmr7ayGfKp39NwKa0odqa89mjd9K12qMj7WcbakeuTdUP+IW+NQzF1fN8rn6APVUv2gLQIi7Xjn1tF+OfXP+UTVyu27q4nNtmn7EQ9vDZMF4FBGwCtvF6p5aNWoE//dM/XQK0T37yU8vXP9mzfeUrXxm13Ro3PgUEbH0nPD0BG4PLVYEBJP9hZmDMYI8BKAM/BuuEDExzTByDZgawGThnTxk5n8/LiPKfW44pizpauzLwXJcmeRmQM0BuB8Spz70KqMB8FRCw9e1vpgzYenv5UJ/Xu45LKW8dqDylBmO7pox1hGun9ID96hKwnRiw/Z2/83eWA3sG925qMBcfyCR5Lu2xHae9N//hP/yHC6CQWz8NmEQeEoBQgCz++1sD/7Vly/k60GsHou0x5TBobgFaLZ//grfgq8Iz6q4QL3mBffyXmxCQRv1tCBAcKqNN67EKqMD8FBCw9etn6LMFbG/fI/SXrOgyHK6AgO1wDS3hfAoI2E48qbt58+b5rvYeNTOJYrLChIiJDysP2FoAwXk6lqEJzR7VmkUFVOCCFHAFW98JT48VbLhfnvNxRZ7vQCyAVwAbYCuBzxVcJU2FdFn1VvsK+pikyaue9TzAjXITsKt9HQW7AubWATb6KiBbYFzKdK8CKnAZCgjY+vY3ArbLuG9O3Ur6+fqq5qnrT30Z9zCuMKjAtgoI2ARsg77Cg4QJDBv/jeGYydKqwPm8n85DkS+tNKiACqjANgoI2PpOeHoBtgwsA68AUzzfE+gbAF/E5Z8vHNfnP3nZAsToR0hLOuLIS7l1JRznUxefyV8BG6vYUi5QjbSkSx9Ff0T6Culic86tW0WXtO5VQAXmp4CArW9/I2Cb3z1ii1RABQ5TQMAmYLvNg5h8MOFh0sLnfQKTGr7YkXLqRGufssyjAiowfwUEbH0nPL0AG57H8xz4xcqzoT6BlWecCyDjGACWQH7++ZLziacs8nEuYCzn2Kdc0rGqrQI2zq+zi/Kob6hc8lFWtbHW62cVUIF5KyBg69vfCNjmfb/YOhVQgd0VELAJ2JZew0SE/+gDxZiA9AiUA6hj61VmD7ssQwVUYFwKCNj6Tnh6ArZTewp9EUCtBlan0Tf1CJTN6jeDCqjAZSogYOvb3wjYLvM+stUqoAKrFRCwCdiW8IvJy7HedWcFAuW7YmD1jegZFbhkBQRsfSc8UwZs/DOmvv5J38EroIf+k+bzn//88p89rF5rV9Nd8r1n21Xg0hQQsPXtbwRsl3YH2V4VUIFNCgjYLhywMWlhAnPo5GWTo6WefJH1pvSHnmcC1a6COLRM81+uAse6Pyj3WGXverWAMj/zqU8t/vd3vrNr1oPTC9j6TnimDNjiTHlFdNUrpEm37Z5/8Bzy1Qfb1mM6FVCBcSsgYOvb3+wK2N54443FN7/5zaNs4/Y8rVMBFbgUBQRsFwzYAr1ONcHn1R9e9dllJVu+BLvekNjLKoT2+92YPFE+gc+Aw0MC9Qx959AhZZp3egqs8rdDWkKZ+Cp+zMaKnV3ui33r/n//3t9b/D8f+MBt2//3j//xsrivv/zyMv5P/uRP9i1+73wCtr4TnjkAtr2dyYwqoAIqsEYBAVvf/mZXwLbm0nhKBVRABWahgIDtQgEbsOsUK9fauySQDcCwTWAVGq8H1cDqNKAEEK0GgEV+Ga4HYOMLuP2unqrw5X5mNQ2+2yvgq2yUGdjG8bEDcO2Xnn9+AUzLBowhCNj6TjrQ9Zwbk0iDCqiACqjA7QoI2Pr2TQK22/3LIxVQARUQsJ14EnTz5s1ReB0A6lzfQwNQ2HZ1Gat6gGl1JRl5AV8VvAEqSJdXUAPYiKedxA9BPcofOk99lEE9fB7KmwvJuaEyOE/5nKeM2JZ8xJFvXdnkZ6sh5SWONqYs9jXkHPuExOV4aE+atInzaQef2/rbOGxo29TmqeW3aas9td7Et20kf6vRKj1qGbSvLSvaxL6USzriCLW+1DPUhpSR617bArxN2ZSJLfjvMcN3vvOd5Qo1QNpQqIDt5ZdfXnzp1399Cd2G0vaOcwVb3wmPK9h6e6jlqYAKzEUBAVvf/kbANpc7w3aogAr0UkDAdoGAjck88Oicge/VATJsEwBp9fvUAtLYB1IAOjgO6AgcA5CxMihALumpl/ope+h8IB5l8rkFMbGbMkhDGWx8DlAhzZUrV27FBwhiY+yhbPKs0mLoFVnyEE8YKqte21YX8myCOdiPrdgYHTjOK7nYyrkaojdx5GGrAW1iV8onjnS0v17fmo/zyUf8jRs3lunr9ahpgFocY2/2NX+rF+3AjsCzaJPrQ1vJg42pk7joQ17SttcdrYjjHHakvGhY28hnVl6S5pjhD//gD5aAjX1Wr9X6AtiefuqpBa+SPv5TP7VM/6u/8is12VE+C9j6TngEbEdxUwtVARWYgQICtr79jYBtBjeFTVABFeiqgIDtAgEbE36gwbkDkChgY50tpAtQAnIANwi0I2AG6AHsSAjwSTuph3x5hXQIPFEeW8IQSMo59imjAjXqrWUA2AAntZ2cT3tqOQE4Q3WkHYE9qZOyq46cp53YXstOfuICkWo99TNlVihFXcCiwKEhXaI35SR92hyb0z6uUy2fa4LNSV9taV8RJh+25DqSlrzRI3akrOgR2zlf/SS25Xy0uX79+i0zkib20/4WqNVrSt2thik39dwqvPgRaY4ZAtAe/cmfXIIzXhcFpOU713L+M88/f8uMn79xY3H9kUduHR/rg4Ct74SnB2DDj/F1fPueu+9e3HfvvW5qMF0fuO++Zb9R/8l2rOeZ5Y5bAQFb3/5GwDZuf9c6FVCB0ysgYLswwMYk/tgT+W3dGGARELQuT4UsAJLAqUz+yMskkHMJfCauhjZNzjGRBKK0q4goH1CyTVhVBoCttrGFNSmbdIGFicu+AjOuHccEJgqAnoCfpK/t4BxpqDeBMogbCknfTkJIHzg0pAt6Ryu0wMa0h/pyjjoBXFzDalP9XO2KXjlPuax+THmxlzoJtd6Us+q6UyZbvUZD2sSG6DzU/k2aY0vVMLZRNjZXoJdzvfd/8q1vLQBm7AnsAWzrfuSA10QBcYFwvW1KeQK2vhOeQwAb9z73DEDtuWeeWbz+x3+8WLzxhpsaTN4HXvjsZxcPvO99S//O8zzPIPeXo4CArW9/I2C7nHvHlqqACmyngIDtwgAbEycm9WMJdfXVKpsCUbAbsAIEIRAPnAjQSTzntgFsACDKo4y6jx1DICXnst9URoU35ElbgC3tVldlpXz2xHPdCOgVkJiy2utZIdFQmnq+1sPnVecqHBrSpQI2yqk2t4CLCTx6UybnAHdtG6pdgY+0hXy53pSD/tGGMlpNc5w05MXWXPPYQZtWtT/lUj9hqP01bhsNlwX9AAwHGCfulHte/wSgEbKCrcI0AVvfiQjg61Qbk8hdA34MWHvpy1+ePEwRCgpFV/nAKy+/vARt9FP558yu94rpp6uAgK1vPyRgm+69oOUqoALHUUDAdsIJDxOrc/7IAUAicOY47rR7qQCSrIxalxsgwuQPYFJhDPGU0cbTzkCVlMtx2j/0XV4VkpCnPU452aMn9QJUEto8qwAbsIZ21G3VQD+QLPUF9CS+6oEd0YPPQ2lWASDS51xrC+3MdWrbSD50BVYlpN7W5pxnzznqI1/AWT2fz0yCAhZz/biW2MGe9hLQIdej6prPpImdtX31GqX9qbuWG92H2l/jhsqgnKphyqddpD9XCED739/5joDtxH3BsUHbLoCN+4F7ie/dWwUljBdYzc0HnnryyeXrz20feq7nsfWeRgEBm4DtNJ5mLSqgApeqgIDtxJOqcwI2IEC+q2osDs/EbpsVPEz+gDD1+7NoQ4BJhTuJJ08NHAfQVCCSNCkrx0Npco4954EmNQCD/n/2zudVk+M+9/MHZDGr3OxmFtb2asK9a4/IXSULawzBZKUR2Y/PQCBxYo1mFgFjm/Gca7jBshFzEgckkTEzNvgmToRtFCk2GYNMJIhvkOPIIINjLMuOkQYk6MunNc/R99RUv939vtX99o+noE93149vVT1d/VbX51R1x7JEeEM86itYGNNF4BP9dYwd6h5ty5YAk+JSD9VdoCsOIJoAEOmbgFiEQzlduIaxbNiinmmZKQflIx85wc7opzD21AFb2Bfkog7UkXLFdMTTNZaNqG16PYgTr0dOG8pMPso7V//ol9OQMkQNVbYx988988zxclDlyww2loniPIOt7KBjaIDWZr8PYONeAjYsDaC4PoaCbW2A2Zq8YzD2E/p99H6ZChiwle3rPINtmfeJa2UFrMD2ChiwrQiwMYia4kPkww8/3NqCBbMAWNEJiKSQLkImxaf+gi8CT9jlWPYjJAJcAV8Ij4BK9ppskEYuB3SoA3GYEQaMoQ4RHilt3Kt8Kr/C8I+2sB1hENebcPShvMqLOE0OnVQegCxpIxxqqnfUDttNZSYe4A071F9Qsqltqg7Rfs6PPHk/G2Ulb2xTftIJLKtunLNxrvikV3uK2vQFbKRVPtSRfFINZZ82ppmB8htqL4DGRwyAM8xe44MH+qiBwr1EtOzgow2EDRXeFbBxr3jmmkFUG4hacjjvZuM3224dChiwle3jDNjWcd+4llbACnRXwIBtZYCte9MYLybQKAewYgkAFTwAA02iA7TgL4CiMAaNBwcHOq33gBwAjBwvlgf0AKCwwXl8yMa2wlP7soE9xSEt59EGYAVokzrlDdwhfSxXGpfzFPLEOLKleqBVdJQ9lpHyxDLGuBxTb64J9oBTlC0CNuKQJ2HKk/MU/lEO0qXXjLrIvtKncdIyEZ88osv5EU79qC95q/xKF/NWWLSDVqk2pMFPZcQ+aaJL/XL5pBqSvsu1j/nsevy9u3drmKIviP5D+GLoT954o57hxnJRuVdfeeUBP4WV3PsjB2UHPEC7LoCNNs1L35cMT1w3w8MubeDalSvHrxso+dtmW9NTwICtbH9jwDa9Nu4SWQErsF8FDNhWAtiAJsCeKTpgWBPAmmJ591EmAA5AaAxHW4kOWAQc6nuNxixzLO8UjktpOIW6jFEGA7ayA56ugI3fFF743gVAOI5B1ZLbAF/L9VLRMX7t95+HAVvZ/saAbf9t2iWwAlZgWgoYsK0EsNUzFZJZN1NpioCYsZbJTaXOXcsBqGEmGAPhdAZXVxt94zGritl+tBny5rwP3Itl5tqu0e2q4do0M2ArO+DpAti4tz17zdBsydCsb90Or1/3LLYVdD4GbGX7GwO2Fdw0rqIVsAK9FDBgWwlgYzDFTLEpOgO25qvCNWP2WLpssTnF7iFxeaOWcOLX1anMU50x2bUeu8RDL+qPfkQMITIAACAASURBVNtouEvec0xrwFZ2wNMFsLHMmRe894UQjm8ot9Q2wCy2Nfdbc+w7timzAVvZ/saAbZtW6DRWwAosWQEDNgO2vbdvA7a9XwIXwArsVQEDtrIDni6A7ZHz5w3X3jUsWyos27Ze3BfpEv+9/jg68+IKGLCV7W8M2Io3URu0AlZg5goYsK0EsGlW0hTbK19S7Pt+rynWw2WyAlZgOwUM2MoOeNoAGwDhwqOPGrAZsLkNJG3g8qVL9asRtvslc6o5KGDAVra/MWCbQ6t3Ga2AFRhTAQO2lQC2ekA14Y8csIS1qwMW+j/MXdWafjyuZZ8lqNOvkUvYVwEDtrIDnjbAxu8tIGHbWT5O55lvS20DN59+2u+E7fsDPrP4Bmxl+xsDtpndAC6uFbACgytgwLYSwEZLOs+SoAk63nmyCZgxwy0CON5J5o8iTPBCblkk3tnW5yMKW2bjZBNWwICt7ICnC2C7duWKAVsye2mp0Mj16g5EDdgm3FEUKpoBW9n+xoCtUMO0GStgBRajgAHbigBbG8jaV6tue4H/mTNnjj/QwEwnAFsEbvsqd8z329/+dsVLwzc53jUHLLQ7qUAJwKav5G4CtSxD5uuodtNTwICt7IDHgK07UDF8slaxDRiwTa9/KF0iA7ay/Y0BW+kWantWwArMXQEDthUBNuDO1ACPwMimGykCNso/xdlOwDPA3yYHgGuDiZvSLzWsBGADuKL/pqWmJfJZ6jXYd70M2MoOeNoAG/fJ44895hlsnsHmNpC0AWZ2+p2w++4Rhs3fgK1sf2PANmx7tXUrYAXmp4AB24oAG7N7pgZ4gE5ts9EiYGNgKIii+vAwTL0Ab+wJx2bq13R7Ek+zm2QjfcDGJjMAFR6XqFIH/AE82Iph5Klynj59umIjDmBRYQI/586dq2fBqX4q76a8FSfuia8yYTNCVfIl/5hH6kda0lBf0itu1JQw+ce8Oab+2IiO+FFTZvxRDrRR/WVfOhAmF+MpXPkzKw0/6Y+91JEX10j6x7IQn/Sp3dSGz4dTwICt7ICnDbBxJf0VUc/cijO3fPx+e7jwkY8c98/D/eLZ8j4VMGAr298MAdjefffd6te//nX11ltv1RvHdlbACliBuShgwLYiwEajTOHKvhsq5WlzEbDFuAAWoApghBlkQBMgirbUL6aNx9hgu3r1am0DGASIEeAhH84FibDLuUAO+QKUsEGY4JnywA7+1FVlFRzinPJiQ+XHr2veyiPusUde2EvLCsSinMqfdKkfehOH+lJHyoItaUT8VKOY/507d+q4qoPsR+gGFNO1Jw/0lDYqc1zOSZ0IpxzYUx1VfuJSPsAg4anDpsrMsepPmbCFH+l0PVT21I7Ph1HAgK3sgKcTYANw/+xnnsGUzGAyaFo3eKzB8zA/c7Y6EQUM2Mr2N6UAG1DtJz/5SfXKK69UL774YnYj7Kc//elEWpKLYQWsgBXIK2DAtjLABkSIoCPfLMbxBWqwtbk2wBaBiuBOzk9QJc0PMCNYRhjx8APm4ARhYjpADnEEYqgH55scdgSViKc0sVwcA5s066xL3jHPtOzKR7AKXShnzDP1Q++0jQChUr9YzlgGNCFM14C8AVf4SS/OVUcBNoVhizTkicOfOLHM0k75pnWQf9xjQzbxV5oIRFX22B6iDR8Po4ABW9kBTxfAxv13eP26AZsBm9vA/Tbwreeff6CfG+YXz1b3qYABW9n+pgRgY6ba3bt3s1AtB9uIe+/evX02I+dtBayAFWhUwIBtZYCNlgDkiVChsXUMGAAsibBpU1Z9AJugSYQxOb+YH8ApXdYZ/YBBKXABxMQ4KfCJ9nWcAjYgUk4D8hPMytU9zVv2tQcisTGATq9zTovUL81T+VFe6qktllN5a0+9iI8jHrBS0E32VLYUfJEm50c58WdjNhr6y6V1kH/cpzY5p0ypQ3vs242ngAFb2QFPF8DGfXju4YcNVwzY3AbutwFmr8Vnh/F+AZ3TmAoYsJXtb3YFbD/+8Y87g7UUtpHWzgpYASswNQUM2FYI2HiA3DdAEKzpckOkwEdpqAeQBbgilwMtOT/FZx9BmfyjHxAGGJO6GGcbwJYCN9kHTgm8kbdmeimcfcw7+nOMLpQHG8QDtglm5bRI/VK9pTOgTGXT/saNG2n29TllJj5pBbG45mzMMowzyVLwhYHUj/ZKGrUbtKNucmkd5B/3qc30XHGbrovCvS+vgAFb2QFPF8DGVeT+Pfzc5wxYDNlW3wb4eii//XbLV8CArWx/swtg2wWuCbaxrNTOClgBKzAlBQzYVgjYaIAMrAAM+3DAn4ODg85Zp8BHCQV+gCtyOdCS81N89jlYFf3IH7ATXZr3NoANmxE0yT5gSvnl8gaWUb5Yb6VlVgplk+NYcAq/nBapX6q3Zpyls/yUR24vfWhjgrnkA2xjEBMHMjnQFf1UPkFC8kv1VpxY97Rc0SZhQEDBvxgXeKgyR38fD6eAAVvZAU9XwMYVpb3/6LXXVg9Y/O619b57jfbv2WvD/b5PzbIBW9n+ZlvARjpBsl323/3ud+sPIuzaznjWzTn8ecZka3I8nxK+6RmUtLnw9LldeRC3qUyE5WwprfJqSh/jTfm4q65tdWjSuC1diXCesfTKoRL2bGMeChiwrRSw0TwvXrz4wNLIoZstHQIAqc+Pfgp8VEZspaApB1pyfrLBPsI0+Uc/wAwgJnZmAKIIx1LgIztxTxrqLqdyRXAF9Il16pK37LHnR5z0sawRLOU0IzymyelNB5FeN8oa84nl4Bg72EUbOXRki51NLJ/iRT/pxF4OAIZtOcXZVJ5ok3S0QcqCv5zgZSyzwrwfTgEDtrIDnj6AjXumhguGbIaMK5zJx4c+WCod/4Ez3C+dLU9BAQO2sv3NtoCtzzvX2gAcHz/YxvHsyD+0eRaMz+KyxfMhz5o87xOHfXzOrPvPRx45DiNufKaUHfZ65uTZOTrlkY6LyC+Nq3Tkw5amUbjGJDy7z9FxXai/tGfPc3+qfdffbY0R2I/tKHuubY1dDuc3rgIGbCsGbPwwA03GuvHVEcUfyC7NPQd8SIcdfrjiD6Z+RGMeOb+Yb+7HL/qhE50UHSs/8Bzzwx9/2JUHYU16xg5PaflyKXnJLsf4yXXJW3G1T8ua2lT5yZPrr05MmuX0Joz6Rw3SBw3lrz0PLeQtu/jLLz4U8HCBrehSP5VTZec82sYe9cC/6eEmXiMBPmZyYge7AFBsRP1jmXw8nAIGbGUHPH0AG1eVe9SQbb0zuNY6e08z1/wPleF+26do2YCtbH+zDWDjS6Bt0KxvOB9K6ON4BtbzH/v02Z1+EX+9CoVznjF5XpTTP9v1nKvnTPY5p2fNGIYf+ei5lDDGCPg12SGMrel5VzZjWWOeUz5GS57FWemksUKT9l3r13ZdhtSD65S2rSHzs+1pKGDAtmLARhPkx4tOpulHulQz5ceNjkmdUB+7dDoCUjEdZefBONqUn36UVUfiRb9oJ7VBWM6PcqATnW3OFmUkPFdW5Ydd4sQyc4xNtqbOtC1v2dc+xs/ZVDmIl2qGX1MdZJf0OQ2UP3vqRfzocn7klcbL+anM1EdlTnVE21x9VQaVP03Xpr/Sez+MAgZsZQc8fQEbV5V7gt/oo6ef9kyuFc7kWhtk44uhQOWmvm6YXzpbnYICBmxl+5ttANu//uu/FgdsP/zhD3s1r/gcm4MgPE+m//wlDfBHz78cp7PM6Ef1mpe0QKlN+l3yTtNgE9tNjjTApVwc2SQ8BVB6dqYc6XM36aQJz9G5OKThN1Ph0mGTXdWBONSLjbyaHO9ppn7pb3P0p5zUjeujMjfZw5/yYnPT+IB4KiN1T+NqXBLrmsZRXtQRqKZrkQI20jVpIY1Vlja9NtXbYftTwIBt5YBNTY9ZO/wnZtOPnuL23dPRAPH4sbCzAlbACqQKGLCVHfBsA9h0TegLzp45Y9BmyLZI0CqwFmdHqO17vw4FDNjK9jfbADbem9Z3hlpb/BTI9GnNwJcUgjAmSgEVYIS4jJUY03CcgirSMebJuZiecOCQIFGEeaRP8472yBfwwj6FPJpVl5afMpMHMA/7OtbYTGUjjDjkj33syAlqAfZIj03ZxU92FaZ0aEQ46Ymj8is87rmOhAO5co78Yjk4brv2qluqVbTP9SffWMZYBo5Vb+KwET+2G10T6YcOaRzGxNjR9UnDsUs6NulJfOptNx8FDNgM2I5bq/4jEH8sjgO3OOCHjB8ZZgfZWQErYAWaFDBgKzvg2QWwcY14kFN/wCyfa1euVHxl0Zs1mGMboP1eePTR+l1rAGQNKJt+j+y/bAUM2Mr2N30B27vvvlscrgHfgHbbuhRyYEcAJNoUqKGPZCNdCm1y6WRDUE7jLOKyyV8QBbgS4Y7Sa6/yCvTInz1p6b/TcgjYKC55AW6Uj+oWX5NCGHnpN1PwR+fYIh9sy4+9ABPhnBMe7TIuJG+lUZm0Jy75kh9aSReFs0/rF8PSY9UtvVaKp2sZy5imkRYR5kX9c/WUDV1vrgv1ivURcJMW0lhx8Ecr4J3dfBQwYDNge6C18gOz6UftgQTBgx8CfgSg7tjRD0aI4kMrYAWswAkFDNjKDnh2BWzx4vAbzkMiD4berMEc2wCzJzRYiW3bx+tUwICtbH/TF7Ddu3dvEMAGZNvWCVjF9DmAI2DC7wkb6fCLLpcuhjO+0hJSwJNmwOHP+KnJbrSh8qo8GmtFgBPLoVlhaVmBRsAbnGzF38rUjzJiV458KQv5RqdyEK6lndGu0qnuMa2OyZu8KB95cBxtxPopTdNe9WCfc+guHWJ4rC9acb2ii365ehJX14pj7DE+jk5aCMLFPBWPd2NH3eXv/XQVMGAzYGtsnfxAcqOz0RnwQ8iPEz9w2vjRxp8fJ/1w8J8JfjDsrIAVsAJdFDBgKzvgKQnYulw/x7ECVsAKzEUBA7ay/U1fwLbmGWzcI4ynmOEl6KPxErCGcZRAzab7KUIbwBBpcaQXiIkASnlFQEV8gTCOc3FSv2ifNNijLMSLLqajbMTJbYJKMW3umHICt8hfLtZPfk17lSctp+JHUCY/9jGPXJzoF7WMNuK14rqTJnXx43KpxsQ1YEsVm/65AZsBW6dWyo8S4IyOgR+cuOEPZFMn0cmgI1kBK2AF7itgwFZ2wGPA5lvLClgBK5BXwICtbH/TF7BxVe7evVt8Ftsrr7ySv+AdfCMEUXSBMJ2zF6jReCeXDkCSzlLK2cB+BEbYBpal/jGtjmO+ABvSpbArwiHNYEsBG5MjsIVT3WKc1C+FP8oznYkW0ykP4qabdFS9VA7Sp07gUeWL9UvjpucqT84ucSMoi2m5jrpGuTjRT4AtrVO8VgA2yp06rh864VKN8TNgSxWb/rkBmwHb9FupS2gFrMCiFTBgKzvgMWBb9O3iylkBK7CDAgZsZfubbQDbv/3bvxUHbH2/IhqbUIQg8geYAD4iMAGOxGWCORhCuGCJbMU99sgvQhWF40d6INsmF8sre8CbWLYIoIiDbYBQdBEgCUIJYBEv9cvVNweNok6ykcKt+C6zWCbKmOpOuACW0sX6xfS546YyKG4uHB3Qk3xxEaYpXfQjPtcl1lN+mqmXq1uad05jAzYpPp+9AZsB23xaq0tqBazAIhUwYCs74DFgW+Rt4kpZAStQQAEDtrL9zTaA7a233ioO2Hi327YuAivZAEoBWIBQQBCgGeAnvghf0IcwZnEJLEVIJXtxD5QizzQe6VNIE9PpOC0vUAY/wSDipQBKHxZQWYF4sQwCPbFMqV8O/lBv7GCP+ECktCwXL16stQQ0EYe4OYhGuaU72qus0j7ODKR+2KDOpMFuBIzSir3qQRrKFzcBO+pGespInQQspQdpUvupH+WTDcql6yzAprqpTRGH+HzVWi6nsQGb1JnP3oDNgG0+rdUltQJWYJEKGLCVHfAYsC3yNnGlrIAVKKCAAVvZ/mYbwMZlZEknHyYosTEjbhcH1ADCpA64ApQBggBLgFSpA5IIzrAXsEnjxXPsRFikMMAONgAxm1xaXsqOvZgO+BPBDfbSssY6U+4079QPMJbTQOVGp7RsqgfpBK0o6yad0J342JLN9MN5xFE4tgTRlF/cqx7ET7eoAXmojNRVcE3a0RaiQ8/oh/6kwwb56DrHPNSmlE8EttjOaYxeOd1jWXw8LQUM2AzYptUik9LwQxQ7DILjDx7nhKdx+DHlB7/pB1zh8UdPtpQnYWleSfF8agWsQAEFDNjKDngM2Ao0SpuwAlZgkQoYsJXtb7YFbMw4++53v7szYON9brvMXltkI19hpQBdQC07KzAFBQzYDNim0A4by8CPZfzvgF5yGcEYZD/G4Zxpw/x3QNOWlQHADJuEsyc8/iDz3wj8lJb/ANlZASswrAIGbGUHPAZsw7ZXW7cCVmC+Chiwle1vtgVstKCf/vSnOwE2AN2vf/3r+TZGl7yYAowDPSmimJw2tKMCBmwGbDs2oWGTs+6e6cFy/ICm0Exr8InD1Fri60eWPeHMZsORnnDNeCMce1ofL8CWTkVW/t5bAStQXgEDtrIDHgO28m3UFq2AFViGAgZsZfubXQAbLYr023xVlDSGa8u4J10LK7A0BQzYDNgm3aYFwATMgGOCaBScmWwAshgOlIsunQUXwzjm5ZGaqSbAlsbxuRWwAsMpYMBWdsBjwDZcW7VlK2AF5q2AAVvZ/mZXwEZrYolnny+L8sXQd999d94N0aW3AlZgsQoYsBmwTb5xA8CAZsA0zT5jVhpQDX8t8RSMI4x42jhXHGau6asvgDltBmyTbwYu4IIVMGArO+AxYFvwzeKqWQErsJMCBmxl+5sSgE0XFND27//+7w98AIGloHwU4fXXXzdYk1jeWwErMFkFDNgM2CbbOFUwZqzpPWt61xrADCjGXjPWBNhY3gmMi5s+dqAlojonD89gk9LeW4H9KGDAVnbAY8C2n3bsXK2AFZi+AgZsZfubkoBt+q3HJbQCVsAKtCtgwGbA1t5K9hwDUKZZaRzjWMoJXMM/wjLONRtNxdb71jiPME3hMY2XiEoV763AeAoYsJUd8Biwjdd2nZMVsALzUsCArWx/Y8A2r/bv0loBKzC8AgZsBmzDt7IdcwCQAcHY5PBjeSfLQKO7ceNG7c+sNma0AeT4Iqg+cgCUIw3++DEzDjuCcjnAxqw3gT3y4lz2cuexPD62AlagXQEDtrIDHgO29jbnGFbACqxTAQO2sv2NAds67yPX2gpYgWYFDNgM2Jpbx4RCAGEHBwcnSpTzIwKQDIgGOAPKsWRUDugGZIth0Q7gLEI7QB7ngDtc03nMQ3l5bwWsQDcFDNjKDngM2Lq1O8eyAlZgfQoYsJXtbwzY1ncPucZWwApsVsCAbSGATbO1gEvamHXFBhSyswJWwApMVQEDtrIDHgO2qbZ0l8sKWIF9K2DAVra/MWDbd4t2/lbACkxNAQO2mQI2oJm+oMkSSJYtssyRmVYCbJzzgQBmbLGlSxun1hhdHitgBdapgAFb2QGPAds67yPX2gpYgXYFDNjK9jcGbO1tzjGsgBVYlwIGbDMDbMxIEzADpPWZncbHAABwgm3MerOzAlbACuxbAQO2sgMeA7Z9t2jnbwWswFQVMGAr298YsE21pbtcVsAK7EsBA7aZADbgGGCMd331gWpNDUugjhluJew15WN/K2AFrECbAgZsZQc8BmxtLc7hVsAKrFUBA7ay/Y0B21rvJNfbCliBJgUM2GYA2LQUdIgZZ8yCA9wB8OysgBWwAvtQwICt7IDHgG0frdh5WgErMAcFDNjK9jcGbHNo9S6jFbACYypgwDZhwMbMMr5wOfQXKvVlTd7ZZmcFrIAVGFsBA7ayAx4DtrFbsPOzAlZgLgoYsJXtbwzY5tLyXU4rYAXGUsCAbaKADbjGxwuYYTaWY7moIdtYajsfK2AFpIABW9kBjwGbWpb3VsAKWIGTChiwle1vDNhOti+fWQErYAUM2CYK2Ji5NiZc061w8eLF+uukOvfeClgBKzC0AgZsZQc8BmxDt1jbtwJWYK4KGLCV7W8M2OZ6J7jcVsAKDKWAAdsEARuzyIZeFrqpQfmdbJvUcZgVsAKlFTBgKzvgMWAr3UJtzwpYgaUoYMBWtr8xYFvKneF6WAErUEoBA7aJATbeh/b444+Xur5b2dE72bZKnCTia6UsPX3k/Pnq3MMP13uOvVmD2baBRx6p2zRt266MAgZsZQc8Bmxl2qWtWAErsDwFDNjK9jcGbMu7R1wjK2AFdlPAgG1igO3s2bPVEF8L7dtMmEXH10u3dSxvBahdvXKl+tbzz1fVu+96swaLaQO06ccfe6wGxUdHR9veJhvT8TvAfcR9yP04h43ybgMeDdjKDngM2DbeWg60AlZgxQoYsJXtbwzYVnwzuepWwApkFTBgmxBgY2C679lraiV8ZAHY19eRjiWmB5cuVb/42c8WA1QMCA1Ic23gR6+9Vl2+dKm+b2n7uzpsANLOnjlTA7wb169XN59+uobUQL2pb5QVPZidyG9Z138WGLCVHfAYsO16Jzq9FbACS1XAgK1sf2PAttQ7xfWyAlZgWwUM2CYE2PoMSLe94H3SMdDvMxulXlp6/rxnrHmm2urA6u1bt+oZm12BUu4+ZKYasz6xlYN5c/MDPjLLjyXibfDRgK3sgMeALXeH2c8KWAErUFUGbGX7GwM231VWwApYgZMKGLBNCLCdO3fu5NXZ8xmwoOuMOsE1BtVzAwEur2enlWgDL3/ve/XszTaYlLutgdlLnfXJrDbA4Sb4aMBWdsBjwJa7y+w3ZQV++ctfVj/+8Y+PtymX1WWbtwIGbGX7GwO2ed8PLr0VsALlFTBgmwhgY6YYMz2m5h5++OFORQLE+V1rBlUlQNWcbTD7rO99DFzjXYVTrjfwcBd4TlogWxN8NGArO+AxYOvUbTnSHhV48cWXqieeuFJduPDR6kMfeqj6zd/8bw9sv/M7/6u6ePFi9cwzz9bgbY/FddYLUsCArWx/Y8C2oJvDVbECVqCIAgZsEwFsLA+7fft2kYta0siFCxcaB8XKhxebsxRsyoDAZTP8G6sNcC90XVrNvcPMtbHKtm0+Z86cqa7tCAEB8Pye5JwBW9kBjwFbrpXZb98KMEvtM5/5bCNQy0G26AeMe+mll/ZdDec/cwUM2Mr2NwZsM78hXHwrYAWKK2DANhHAxqyXroPy4q1gg0HK9fLLL2+IUdUfQ9hldsu2g/6h0/39179e/eM3vzl5+DG0DrbfD05yL/Chjy6OjwHM4WMgJQAb7YgPIOR+5wzYyg54DNi63H2OM6YCTz311NZgLUI2jgFtLCe1swLbKGDAVra/MWDbphU6jRWwAktWwIBtIoBtah84UKNv+9AB8G2ps9e+duvWCcD21a98pXrur//awG3Ajzh84fOfr15YANQEnG165xj3F7PXeD/ZHABmKcAGTMzNYjNgKzvgMWBTD+b9vhUAhAHEUkhW4pzZcHZWoK8CBmxl+xsDtr4t0PGtgBVYugIGbAZsG9t4G2Crw59/fhaQYFeQ8dyXv1wBgHa14/TNM8I+de1axczBuWsEOGPZ9ybHLLdtZq8dfu5z1dkzZ6pTp07V+2tPPnlCr/pjC+fP1+GnT5+uYvidW7fqNNggDBv1BwjCx0lqCPboo3UY4Zc//vGqFGDjugLkU/howFZ2wGPAtunOc9hYCrzyyivFZq01ATne0cbSUzsr0FUBA7ay/Y0BW9eW53hWwAqsRQEDtokAtjaQta8Gycy6TUtEt4UEQwKUt3/1qwpQ88Mf/OAYPNz9zncegGM3Pv3pCn/KIrDz5J/8SX2M319+6UvV177ylerNn/609iPsjw8O6uOfvP56ne6d//qvCvCmMI7f/M//PM43redrP/hBXQ7ssBH/nV/9qjE+toB6MX60r3DlT9wYrll3QCvFoV7EScutcqCb9GCvOuPPklnZIUw6qJ4x/PDTn65eZXnx/Rlv5MsMQGYGysZXb92qw5UneRGG7VgP2ZjLnmWim77Ay8v+meXWtz7YBXrxUQSOAXmcA8ywhR/wjfe6ccx7z2rIdv/9aYoPVCMMGMdxLAsADBsKJy/y2PUdbKprDj4asJUd8Biw7avHdL5S4Nlnnx1k1loOtPExBEM2Ke99mwIGbGX7GwO2thbncCtgBdamgAHbRAAby8XaZrzso3G2vUuqDh9wyaAG5X33wDNAjtJxDrwRtAEMcS5AJLADIBKYA1ZpSSjpAEQCWIJRQCQ20rzx+usV+RBH+cY9NsiHcnFM/Cc/8YkT5YzxOQY0Kc+cfcJj/kdf+lKdRuUDosU8v/ed79R5Xr2fL+UAglEOzRyjLqSJdqVf6kf+KrPgGumx+w9f/3pFPhwTh3rEsrz4zW/W56QjnHjYkz6yO9f9pnuH95BtA6wEyOLMN/z4eik68Y4z4FjUjHzkp/TAN8U5vH69hnCcYxeYRjyFsy85g428U/howFZ2wGPAto/e0nlKgTFmrqWgjWWodlagiwIGbGX7GwO2Lq3OcayAFViTAgZsEwFsLJlKB51TaIjnzp3bWIzzW8zCiQP3oY6BOwJdgBvADpBIEImZaxEOES7QozKRXoANP2CVbHIuEMUMN6U59svMYiPe3X/6p+O4pAEmxXLIDnvKSLlS+8SnTrlwZu9FWEaZU/v4oUXMCz8AIn6qg+AjfkA4ypLzE0AjH+kr29EP7ZSHwilH1DjGV5y57jcBtjt37lSArb51A4ABy9iAaQJrssNMNMKYhabtkQ9/uIZmxBFgU/zUj1lrADZmtsU4pQFb+h42A7ayAx4Dto3dlgMHVIB3rv2P//E/R5u9FkHbJz/5xIA1s+mlKGDAVra/MWBbyp3helgBK1BKAQO2iQA2LujDDz9c6roWsQME4Cuim9xUAZsgETO5AFHAHQCaAFm9XPHLXz6GCMAj4kWovVfu7AAAIABJREFUQNwIf1LABkwiHXG0MYMMP/KPtnTMklLSER/7ACU2hcc98C0FYWm46hP9qZtAVhNgS9PFukk7gTNst/kBAam3NJMe1I1jbCgsljX1Wwtgq2esbgHYpB2g7MKjjx7DNgExABtLPpm1lm6k7QrY4gw30hmwlR2QAMCG3hhE2lmBsRW4dOnje4FrAm0vvfTS2FV2fjNTwICtbP9jwDazG8DFtQJWYHAFDNhGGOjEgdS9e/caL+rU3sPGjLr0ZeRp4ZmJEperCQBMYc9Mrle///0a7LA0ktldQCCgGyAnQjD8twFsLIEEmKVbnHUmLQBWvF8MmMVMNvLPATDFJ2wTYGsKB64JoOXs46fwmJf82mCa0sR4AmzYTrXQe9hSmIad1G8pgI17Ip2lFe8d3mvIDDRp2XUP+BJMUxqgGrCN8wsf+ciJ96kpjvZtgA37zGBjJpvSsC8J2Ch/Cu49g63sgMcz2OLd5uOxFHjmmfHeuyaglu6ZPWdnBTYpYMBWtr8xYNvU2hxmBazAGhUwYJsQYOPF55sG5WM20K5LVhkop4PxODDf5zGw5+iLX6yhmoBXDXTuv5cslm0bwMaMOACb3ncW7eWOAU/Ej2H4AZWin45lX+fsgYTAOfLMhRMHe8x+43gswCZ4mULKWPYUphGW+i0FsPG1zk3vVNz2IwfMSuOjBXGGGTPWBNi0xFMfPUDjI75oev8jCG2AjfgAOzaBc9kk73g9tz2mDMzgi86AreyAx4Atti4fj6XAvpaGppDtM5/57FhVdj4zVMCArWx/Y8A2w5vARbYCVmBQBQzYJgTYuNLMYjs6Ohr0oncx3mX2Gna2fVn7toPzPukAUVq2qHRAKWaRAXbkx74rYIszyvS+M30JEzvMUgPq5aCbgJiWXrIHKDUBNtkHwqmsvFuO+NjPhZMHdRFQHAuwUT40pWyqH8thAX2aKZjCNKXRElLO03ey4ccMuKinACNhbOm5/Pe55/1nm76+y70DFBPE6lpW4gO/mGUGWAO28c61CNz01U/CCSMOUIs8ugA2bCkde22lABvapDNjDdjKDnimCtjoL9ruC+4N4hDXbj4KTGH2mkDbQw89NB/hXNLRFTBgK9vfGLCN3oSdoRWwAhNXwIBtYoCNmS18WCAdgI7Zjph5c/Xq1c5ZMgDvCwq6AoVd4mlWFdBJduTHklH5se8C2EhDPCCSXvYP/OGcjS9sEh6BWMyDvIknG4A+0qSz2mIa5Uk80pLmjf/4j+Oyx/wVHus7JmAD6ql+wDSBTMG+LoANgCh9AHXozDlLfdGl7Txqt69jABVwq81xn20LrVhmyQcOmmaPUgbC2eK9yXGEcWjU5Cf7hGvbVVPyzn38wYCt7IBnSMBG37TN6wxIBxju8jEf2sjZs2fbbqHFhN++fbteNk3/P1f30Y9+dOd3rwHGnnrqizvbAbT5XWxzbUnDl9uArWx/Y8A2fJt1DlbACsxLAQO2iQE2mg//vW/7eudQzYxBUN+8b9y4sTUo2HXA3pYeSBNnPxG/qx/p0rTMxkpnTBEn599UthiXtJrx1RQfQAVIS2dyKb7yz4Xn7Hfxy5Wpqx/1oyxvvP76MQikrOTLpnI3+Sm94nGuY/a589RujD/28bUnn3xgCWTufhVMB16NXcZ95cfsNWBC6gzYyg54hgRsADJAWQ6Uptc1nhuwVRX3PHAyvQek6Vxn7fHlUM0e22XPElPA2C42lJaPLdhZgZwCBmxl+xsDtlwrs58VsAJrVsCAbYKAjQbJO4q6/Ke/ZONlAMSgiX1fV6d77bXVgIJ9AQrn+/6y0Knq0DRDq+l+YkANdJpqfUqWixlxTb9pBmxlBzxDAjZmlrHsGMjWZ8aVAVtV961Ns/i6LJ1t+h3Zt3+p5aElAZuXie67VUw3fwO2sv2NAdt027pLZgWswH4UMGCbKGCjOTAzrP5K5wjLRni43xauUVYGTyyLS5eflRyg29a04dLar08N186f7w2oWY7NrLcl68eSVn4fmoCMAVvZAc9QgA0gDCDiH0DsmY21yRGf2Vr0D5sAG/0PNjWDi76o6xLRmDbXvshX/jHupnKnYW3pYh6qM2miI470o1+PaSgf5znXJ29sRB1z9obwY7aYZo7tsi8J2CgHM+vsrECqgAFb2f7GgC1tYT63AlZg7QoYsE0YsNE4GZzsAr66NHDeBVUiDwYChmyGYEsGRU112xau6f4EsjGTbYnLRfmCKR9maAIIaGDAVnbAMxRgYwaiwBd9BjPZco5rTTwgnDagEsfpLEbOFYc96XhNgfLJ2cePPChDTMtx+vVe/Mg7jYtfmyMPyhLzoFwpPCMc+2lc6ia4d+bMmRN2SKMPGgEqOY/3SK5+5J0uLyVfNr7onZZTebfVc9fwEu9fA4iVBmzMrLOzAqkCBmxl+xsDtrSF+dwKWIG1K2DANnHARgPlQZsHdR6g4wP4ro2X/6YzyOjzQYO2POtBwfnz1dH9rxY2AQn7G8QtpQ0AkGqw3DADpe2eUTgzTwBRS7l3+AAD9Tk4ODiGDKprujdgKzvgGQKw8dsOwBEgA/Rwrlln8ZoCgoBvxAHy1P98uQ+qlJ74Aku0Eeyz0R9htw2wCcIpf9IKcEWwJOgU87h48WKdRwqrYh2wRxnYlAf1UN0Il0vzIJ7y0Cw/4mOHuPS7nKuc0iHaVD6kIR5hqp/KQ/4Ch9gkX+JKQ+Wtcg61B4ztMnNNaUsDtqeeemqoKtvujBUwYCvb3xiwzfhmcNGtgBUYRAEDthkANl35egD+yCP1ACc+iCu8656Hcx7K9ZDfNV3XeHrA5+uiwIIlzspZChxyPbYDnbTpw+vXqwuPPloPZjVQ7nqPbIqn+xzbfGX05tNPz2ZDk8uXLtXAsc8/BAzYyg54hgBstEvgEBAHR5sHotGPRCeIlP7jhnSkj4BNACum51jwLPWP58CjFJDduXOnzkMzw4gvoBXT0n/iTxttcqpvmkcuLbboU1MnSCZ/pY0aEJYCNtWDMkQnzWNeHOdmEuIX40U7pY8FyHbdlwZsn/nMZ0tX1fYWoIABW9n+xoBtATeFq2AFrEBRBQzYZgTYdOUZwPCAziCEB3PONw3weajnQZ3BBA/8DHzwG9opXx7ymckCMGAZnDdrMOc2QFumTfOOxE333a73F/cP9zb37pw2AZg+9TdgKzvgGQKw5aAXfQogJ94HgkVpO6A9R8Am4Eb81HF/0Vd1cdjR/aGZWylgS4FWWpZcPpQhB66Im2rRBNjQhzDywzXlK80UT+miriojdcGmwpq0YkkqYWO4vmCNpZu8Hy23/fKXv8z6E7fvUlQDtjGu/vzyMGAr298YsM3vHnCJrYAVGFYBA7YZArbYJBiA83DOLAIeptONgQAP5MCAdMAT7YxxzODBmzWYexsY415ZWx4GbGUHPKUBm2AY4Ic+R5vAUHzvmQCQYJHaMucRsGGD8wjDFLcJGimcPWUCwmGDPWno71KbMU+lT8si/7hPIVoMUx3lRx7knzrpQ11xTfkqnjRL7Ue7adwmraYM2JqAnGewxSvt46EUMGAr298YsA3VUm3XCliBuSpgwDZzwDbXhudyWwErYAWkgAFb2QFPacAm4ANIym0RLmn2lWCRrnEKlwTtIpxT3CZopHBmbwHV2GI+OWg3BGCjfHF2Wxtg0z+3Ug1UnxSaSW/NUlM89tJXYU1ajQnY/A62eIV8PHUFDNjK9jcGbFNv8S6fFbACYytgwDYyYOOluzxMe7MGbgNuA2ttAyzpi86AreyApzRg0wwxAFG6CfholhbXFuDU9O4y4BEOQES89B1uhDVBI7UZgbQUzsk/zorbFrCpXgJZypt9+n6zJsBG3QiTja6AjXqRTprGvAUW5dek1ZiAre/SzbFmsL300kuSyXsrcKyAAVvZ/saA7bhp+cAKWAErUCtgwDYyYPvud797vLyGh2dv1sBtwG1gbW1AM3rUDxuwlR3wlARsAmYpFNW100w0gBQOmASASmeXAZNT2AUcwi+2B+4F/Ejf5JRnhHPkW3KJqMoR86A8qkfUg/JSZwCanNILKOJPGVMNok2ll4bUR34xHq98kJsCYHviiScm+RVR3ttmZwVSBQzYyvY3BmxpC/O5FbACa1fAgG1kwHbv3r21tznX3wpYAStwQgEDtrIDnpKATRAM6NPkiANgUhxBOc1806yrFC4BjwjDHxsCZIrflB/+Fy9ePAZxpNOsMmzFmW1pnqQl35x/mp8+mkB5AG0qX/qFVGyRP3vqIc1IFwEZ9mWDOJrlJ2gX40YNY97UOzrskE/qxpzBxkcLmmal9fEv+Q42bNlZgZwCBmxl+xsDtlwrs58VsAJrVsCAzYBtze3fdbcCVmACChiwlR3wlARswJ84WyvXXJitRbwIiDhmVhszuABSwDfiCCrJToxHfGanESdCMsVN95QL+2wc5/LI5ZmLl9rWeVo+6po6gbUYlzpznroYR7aknwCl0sS41FHxFc6eeue0wq/tukU7uxy/9dZb1Yc+9NDOkK0kYLt06eO7VMlpF6yAAVvZ/saAbcE3i6tmBazAVgoYsBmwbdVwnMgKWAErUEoBA7ayA56SgK3UNV6yHQG2JdexrW4l3sP20EMPVYCxPrPemuL6/WttV2y94QZsZfsbA7b13kuuuRWwAnkFDNgM2PItw75WwApYgZEUMGArO+AxYBup4d7PxoCtqgBaTbBrbH8vDx23/c8tNwO2sv2NAdvc7gCX1wpYgaEVMGAzYBu6jdm+FbACVmCjAgZsZQc8Bmwbm1vxQAO29yUtMYutBIx79tlni19jG1yOAgZsZfsbA7bl3BuuiRWwAmUUMGAzYGttSbwXhne/8E4XvVNH771hr3fcpO+PaTXsCFbACgymwAsvvFB96s//vPrha689kAdhX/iLv3jAf18eBmxlBzwGbOO2ZPrH+CXUcXOfTm5TmMX2O7/zv6YjiEsySQUM2Mr2NwZsk2zmLpQVsAJ7VMCAzYAt2/yAZQA1fRENsMYLkxlE8OJlbZzrBc2Ke3R0lH25czYje1oBKzCIAn//jW9Uf/xHf1RDtnfefvtEHoQB36biDNjKDngM2KbSstdXjieeeGKvS0V//OMfr09017iXAgZsZfsbA7Zezc+RrYAVWIECBmwGbCeaOWCNGWnnzp07/vLbiQgtJ6QHxJGe2W2AODsrYAXGV0CA7cknnqi+eufOiQI0AbZ33nmnnvHGPro333yzyvnFOIQTbxtnwFZ2wGPAtk0rdJoSCvBFUd6BVmKpZ18bTz31VIkq2MbCFTBgK9vfGLAt/IZx9ayAFeitgAGbAdtxo2EmGmAMQFbCYYdZbcyEs7MCVmBcBQTYXnzhhXom20/eeOO4ADnA9rU7d45nvDHz7blnnqk0843juKQUkEacuPyU9DeuXz/Oo8+BAVvZAY8BW5/W57ilFWAW2diQ7TOf+WzpatjeQhUwYCvb3xiwLfRGcbWsgBXYWgEDNgO2uvGwBPTg4KAa4j1qV69erS5cuLDK2WzM4BtC063v+PsJKVPf2YV94+9aRqffTQEBNqwAxw4D/EoB2z/cXzIqYPbmz39eLyHVzLe7//zP1dUnnjgGbv94H9o9F14mTh5Atm2cAVvZAY8B2zat0GlKKjAmZDNcK3nllm/LgK1sf2PAtvx7xjW0AlagnwIGbCsHbIAWZpnduHGjX8vpGVuz47aBNCxZJX3qKDthpV4uzUy7XD7kmwujLuSfAjRm7mkW4JkzZ+o4adn3fU65+fKdHPXj3XlNjroSv0mfpnT2358CEbABzFgqih8uBWy8jw1oFh3ngmpvv/32iRlrwDRmtRGOS8OjnS7HBmxlBzwGbF1aneMMrcAYkM1wbeiruDz7Bmxl+xsDtuXdI66RFbACuylgwLZiwAYYKrkktK0pAmmAeX0hG2AHIJQ6QZ9NYChNs+l8Ewyj3LxTLjpBqhQ6nT59+ri8m2xGW2Mfq+zKlxmGzGBsctI6rWtTfPvvX4EI2CgNs9RY1snyzgjYgG/pck/iM5sNfy0tBaqRTstDBe2I9+orr+z00QQDtrIDHgO2/d9/LsH7CvBOtiE+fPChDz1U8dVSOyvQVwEDtrL9jQFb3xbo+FbACixdAQO2FQM2fRl0zEbObDNgVTrra1MZpgDY0Ors2bMnikk9KBthctQvzvSaC2BT+Zv2BmxNykzXPwVslJR3pAmU6SuiAmyvvvrqicqkgA1AR9q7d+8ev4+NJaHamNG2rTNgKzvgMWDbtiU63VAK/N//+7dF3ssGWPvsZz9b/fKXvxyqqLa7cAUM2Mr2NwZsC79hXD0rYAV6K2DAtlLAxgwm3o22D3f79u0TUKqtDH0Am5aNAsOYnaeZb/gDxMg7OmZu6SMMm2AYM7coh2bfYY9z0kfwxtJQ/OWwCYCjHCpTOuMOm8yOy4V/+9vfrstNGQlXWtII+lFP+SvfdE/5qT82yIstllNlVDrsq26kYwkx8TfNYIt5kEZaUTZsRZeCVuKqfOxjfZReGnAN43WTXerAJofmaKM6qzyEoys2YpnRJMYhHnmqXLlw5TXFfQ6wAV6YlQZcE2Cj7HH5qOoCSNMSUPwE3L7wf/5P9b27d+to+GEHcCc/pe+zN2ArO+AxYOvT+hx3TAUAbR/96Ed7f2XUYG3Mq7TsvAzYyvY3BmzLvl9cOytgBforYMC2QsAGRAA67NMBQjbBmlg2wI5AWfSnHoRFGEO9gCpAGGBXXK4JKGGTI3/S6x1umwCbgJryunPnTq2hykA4DggT88AmebD8kjIJbKnuuhbAHsIFspSPgB31QgPSkRfn5BPrKVCo+mmvMioP6UK55LBF2eSwz0Zc8uCY+Cq34mmvcgJtiUNeaE9ZOU/TRp0oH3GlkTRQXtSb9AKmXC/aD2WSUx0pB07hnKs8xCceTuXFJsdshMdrR76Ui/JEG7rWtaEJ/8kBNoqrpaIRsPGlUWCaZrG9dh+cYSM6QFy9zPTnPz/2zvkdB3Y8MGArO+AxYOvY8BxtbwrwfjZg2xNPXKmBG18dBaL95m/+t3qmG+cXL16snnrqKS8F3dtVWmbGBmxl+xsDtmXeJ66VFbAC2ytgwLZCwAb8EGjYvunslhJIAdzoAiuAK4AOAEi6EZbCqFg3oBNpcTpWnoIwqskmwEYc4AtpcAAiASnSqQzUSXGIR5ji1Qmrqi6PYFhaBuLgJ9AjEBTrJBikepBGMEh5xD35o1t05IF2chGwAQ8Ji3mmS1+VTnvsb6qn4FiMTz1wufLRRqWB6hbrm0I76UQcyk35ZV950g50bRQ/1lH5EB87qQ35CfzJ7lT3TYCNDxKkM9iog8AbAO3JT34y+0VQloMyWy06loaydHQXZ8BWdsBjwLZLa3RaK2AFlqyAAVvZ/saAbcl3i+tmBazANgoYsK0MsAEHUhCyTcMpkQagwdbmAB2UmbLHjZlVhAluCdTILnv8iANIESBRfKCQgAtlAIYJfOXKRFxAEY605I/Dn3xkPwKYHLSLfkAkwSeVW7O/sC0QVGd0/w/h5K/47PGjnpQhdSn0I5w0xJeLgI0w7EcnaBXrpnCFoUEsEzbww0Wb2NA1IYzykX9My7nKENMqT/YAM8Jw1J8Nl9MMf66TbObiYEuaqIxpnWKedWYL/MNHDN55++1Ra2bAVnbAY8A2avN1ZlbACsxIAQO2sv2NAduMGr+LagWswCgKGLCtDLABIeKsnVFaWUMmwCABj4YotTfQQyAlxhPYETADhgjqcBw3gSfADZvSRi0AX7IV89GxZnYJvsgm54CX1J90EabJTvTjGMAUy6pj4udAkOCT4sW9yqS8msoQYRJxsIkdHGHpdZFe1DF1CqNtxbJwTPlxlIvrSHr8BcMIa9JA8DNXHtJFf/QX8NRMxTrj8CfGz+lKuACbwnN1Uj7BtA93VMCAreyAx4Btxwbp5FbACixWAQO2sv2NAdtibxVXzApYgS0VMGBbEWADhABSpuSAGjloE8vYFbDFGWYxfTwGjmgWEmArOsqRA1SKI0gEIIo64o9NYEz0J12EabIT/SLYUnjcC/REvzT/GJY7zuURYRJpYpwcoBJEy10r6dIGnshDkEvgjbzRQzAtV36lScMoC22DtOgvJ83Saxmvj+IoDfuoSduS2JjOx7srYMBWdsBjwLZ7m7QFK2AFlqmAAVvZ/saAbZn3iWtlBazA9goYsK0IsAEVItjYvtmUSwkk2QRXyKkrYBNwibPQAENx2adgGDajP/mkQCZXS6BcLi3wSLAnposwTf7RjxfoA4f0oQXicKyy5UCQ6sleLq2n/NkDjsiDOHLAJsorFwGbYJrKQByOiR/zVFr2pEebqCFpYp6cU44Iw0ibKx/5CNg1ATbliz2go5yucWxXqpPaf07XCNiwxSw+dIqOOLFOMczH2ytgwFZ2wGPAtn1bdEorYAWWrYABW9n+xoBt2feLa2cFrEB/BQzYVgTYgAVThAPpTLK0GQN2ABupEzSJQI2vWBIf4EN9gS/4RQd4IU6qhZaXxrjpsdJGIEYcAShBIaWLMK3JTzYpr0Ad4A2XA0H4d6mn8gM4oTH1wz57gULFwT9CqmhfaTcBNrTELhv1UJqoscBXzIf88Ve9pQHXTTBsE2ATFEvBn2Yqql7Y44t0cjldZUtxuMaqE2XGBuexTorr/W4KGLCVHfAYsO3WHp3aCliB5SpgwFa2vzFgW+694ppZASuwnQIGbCsCbMCGKTqgCpClyQFDUqBFXNIQlgIPzgFUbCl4IR0wLKcFUCa1lZaJcIGfGKaypPXAZlr2nB/lVJmjjab8yDumydUzlo9j8gUiETe1i19qg3PiU1/Vr00f5aE0uTI02VB+6BA1QD/s5hzvxQN65ZzqmGsHCovpyCe9tsRTnZrKEG34eDsFDNjKDngM2LZrh05lBazA8hUwYCvb3xiwLf+ecQ2tgBXop4AB20oAG8AiB5X6NZdhYjODK4VQw+T0vlWATApShszPtodTgJll6Yy44XKz5aEUMGArO+AxYBuqpdquFbACc1fAgK1sf2PANvc7wuW3AlagtAIGbCsBbACsqYIIYFdc5lm6kcses7GAjE0znhTP++krQJvhWrJss2lG3PRr4RJKAQO2sgMeAza1LO+tgBWwAicVMGAr298YsJ1sXz6zAlbAChiwrQSwafndFJv8WICNfJgtZyAzxVbQr0ws1xx75mO/Ejp2HwUM2MoOeAzY+rQ+x7UCVmBNChiwle1vDNjWdPe4rlbACnRRwIDNgK1LOxk0zliAbdBK2LgVsAJbK2DAVnbAY8C2dVN0QitgBRaugAFb2f7GgG3hN4yrZwWsQG8FDNhWAtiYtbX2JaK97w4nsAJWYBQFDNjKDngM2EZpts7ECliBGSpgwFa2vzFgm+FN4CJbASswqAIGbCsBbHzkgK91TtHpy5Zjlk3vpGtbLopubXHGLLfzsgJLVMCAreyAx4BtiXeJ62QFrEAJBQzYyvY3BmwlWqVtWAErsCQFDNhWAthotOfOnZtk2wX8jfkVUUTgnXSnTp2q9zlRgGq8RJ84bHwYYewy5splPyuwRAUM2MoOeAzYlniXuE5WwAqUUMCArWx/Y8BWolXahhWwAktSwIBtRYANYMSMrKk5yjW2awNslElQDbAGnPTXR8e+Ss5vLQoYsJUd8BiwreXOcT2tgBXoq4ABW9n+xoCtbwt0fCtgBZaugAHbigDbPpZitt1AzBTbtHQVIAgMw7HngwhNSzYVrvjKWzbY8/VJ0hMnncEGSMOfeKlWd+7cqeM35a28vLcCVqC/AgZsZQc8Bmz926BTWAErsA4FDNjK9jcGbOu4b1xLK2AFuitgwLYiwAY8unz5cvfWMUJMgBlbkxMIA8Ixg4wNMAYAkwN6McPs9OnT9bJO9pwDynDYJw1+Siu77HHANcKuXr1an6d/Dg8PPYMtFcXnVqCQAgZsZQc8BmyFGqbNWAErsDgFDNjK9jcGbIu7RVwhK2AFdlTAgG1FgI22AqgSeNqx7RRJHkFYzqBAWARfHAPDBMf4OirgTfUCuBF+dHRUmxRgI53iyC574BpQLuYRy9IWHuP62ApYgf4KGLCVHfAYsPVvg05hBazAOhQwYCvb3xiwreO+cS2tgBXoroAB28oAG7Apzv7q3lTKx6QswLFNTiAsXZoJEGNWWZM7c+bMcT0F2GJc2SVsE1wjX+DdxYsXY3IfWwErUFABA7ayAx4DtoKN06asgBVYlAIGbGX7GwO2Rd0erowVsAIFFDBgWxlgo820zRor0K46mQBcpeAsTSgQlsajDoJzzEoDGgLK2NJlpJsAGzPd4my4NH/yIC87K2AFhlPAgK3sgMeAbbi2astWwArMWwEDtrL9jQHbvO8Hl94KWIHyChiwrRCwAa32/S42Zp81LcmMzXwTYFMdtESUpZxyXWewMTONLS4xlQ322AbQ2VkBKzCcAgZsZQc8BmzDtVVbtgJWYN4KGLCV7W8M2OZ9P7j0VsAKlFfAgG2FgI1mBJzii5r7cMxG6zorLAfYSM+sM4GvCNNUH2ayaSnsphls2GcGHIDtkUceUXLvrYAVGFEBA7ayAx4DthEbr7OyAlZgVgoYsJXtbwzYZtX8XVgrYAVGUMCAbaWADagE5EqXXg7d5sgPkNU1XwE2ysoMNTaO4/JS7HFOXKAh5wC4roCNOutDBul73TjfF4gc+lrYvhWYigIGbGUHPAZsU2nZLocVsAJTU8CArWx/Y8A2tRbu8lgBK7BvBQzYVgrYaHh9YdeujRWoB/yKSznbbAqwsZwUiAY4S21QD76OSpg+WMC53tEGICNtdJRBUE7+N27cqP1i+cjr4OBAUby3AlZgAAUM2MoOeAzYBmikNmkFrMAiFDBgK9vfGLAt4rZwJayAFSiogAHbigEb7WgsyKZ8Irzq0o4F2EhvZwWswDIVMGArO+AxYFvmfeJaWQErsLvbd5e8AAAgAElEQVQCBmxl+xsDtt3bpC1YASuwLAUM2FYO2GjOwCuWXabLI0s1dSBZOuusq20Dtq5KOZ4VmK8CBmxlBzwGbPO9F1xyK2AFhlXAgK1sf2PANmx7tXUrYAXmp4ABmwHbcatlGSbLKkvNFmNJKB9TYLkmx9s4A7ZtVHMaKzAvBQzYyg54DNjm1f5dWitgBcZTwICtbH9jwDZe23VOVsAKzEMBAzYDthMtVUs5dwFtwDQ+MABYA5DZWQErYAU2KWDAVnbAY8C2qbU5zApYgTUrYMBWtr8xYFvz3eS6WwErkFPAgM2ALdcuajAGZGNpJ7AMUNY0Cw1/3q3GElPisxmsZWW1pxWwAhkFDNjKDngM2DKNzF5WwApYgaqqDNjK9jcGbL6trIAVsAInFTBgM2A72SIyZ8AylnoKnrHnC5w6Z6Ya4Tdv3myEcBmz9rICVsAK1AoYsJUd8Biw+cayAlbACuQVMGAr298YsOXbmX2tgBVYrwIGbAZs6239rrkVsAKTUMCAreyAx4BtEs3ahbACVmCCChiwle1vDNgm2MhdJCtgBfaqgAGbAdteG6AztwJWwAoYsJUd8Biw+Z6yAlbACuQVMGAr298YsOXbmX2tgBVYrwIGbAZs6239rrkVsAKTUMCAreyAx4BtEs3ahbACVmCCChiwle1vDNgm2MhdJCtgBfaqgAGbAdteG6AztwJWwAoYsJUd8Biw+Z6yAlbACuQVMGAr298YsOXbmX2tgBVYrwIGbAZs6239rrkVsAKTUMCAreyAx4BtEs3ahbACVmCCChiwle1vDNgm2MhdJCtgBfaqgAGbAdteG6AztwJWwAoYsJUd8Biw+Z6yAlbACuQVMGAr298YsOXbmX2tgBVYrwIGbAsCbL/4xS+qH/3oR9XLL79cbxzbWQErYAWmroABW9kBjwHb1Fu8y2cFrMC+FDBgK9vfGLDtqyU7XytgBaaqgAHbjAHbt771rery5cvVI488Up07d666cOFC9fjjj5/YCGMj7PDwsAZwU22MLpcVsALrVMCAreyAx4BtnfeRa20FrEC7AgZsZfsbA7b2NucYVsAKrEsBA7aZATZmqV27dq06e/ZsdfXq1QrIhl+bYzbb7du3a/gGjDs6OmpL4nArYAWswCgKGLCVHfAYsI3SbJ2JFbACM1TAgK1sf2PANsObwEW2AlZgUAUM2GYC2ATWmI0GVNvFAdtu3rxZz2wzaNtFSae1AlaghAIGbGUHPAZsJVqlbVgBK7BEBQzYyvY3BmxLvEtcJytgBXZRwIBtBoCNmWfMOtsVrOUaCrPggHZ+X1tOHftZASswhgIGbGUHPAZsY7Ra52EFrMAcFTBgK9vfGLDN8S5wma2AFRhSAQO2iQM2loNevHix0zLQbRsKcA3IxscR7KyAFbACYytgwFZ2wGPANnYLdn5WwArMRQEDtrL9jQHbXFq+y2kFrMBYChiwTRiw8cECZpiN4YBsfjfbGEo7DytgBVIFDNjKDngM2NIW5nMrYAWswPsKGLCV7W8M2HxnWQErYAVOKmDANlHAxsy1seCamgTveQOyeSabFPHeCliBMRQwYCs74CkJ2OgX6BN4VQHv7vRmDebUBmi3XT8GNcZvnfPYvwIGbGX7GwO2/bdpl8AKWIFpKWDANkHAdnh4ODpcU7MUZPM72aSI91bACgytgAFb2QHProCNfoB+iFcHPHL+fHX50qXq2pUr1c2nn/ZmDWbVBmi3tF/asWbp+/lm6F/0ads3YCvb3xiwTbu9u3RWwAqMr4AB28QAm5Zqjt8UPsiR2QoMrEo6Bmz8F/ny5cvVhQsX3h+4MXjzZg1m2gZox0AID9Z2/6UwYCs74NkFsNGmzz38cHXj+vXqFz/7WVW9+643a7CYNgAkPnvmTMUqAZ5L7NangAFb2f7GgG1995BrbAWswGYFDNgmBth479oUBuyAsBJfLeUBlgfZC48+Wl29cqX61vPPe9DmwdoiBmsvf+971e1bt6rHH3ushqRHR0ebf223COW3gPtwTts2g1YDtrIDnm0AG20NaAxYM1QzVFx6GwC0MattH89b7777bnXv3r3qrbfeOt5+/etfb9FDOMk2Chiwle1vDNi2aYVOYwWswJIVMGCbEGDjQQ/ANgXHIJnB1i4O4MBMCKDa0h/WXb91D0h/9NprNWgrAciBaVqaB7xjidNcNi3FYuDK/d918GrAVnbA0xewcZ24ZkBj/5at+7dsTdef322eUcZ47yww7V/+5V+qz3/+89XHPvax6nd/93er3/7t3z6x4fenf/qn1Ve+8pUawO3y/OW0zQoYsJXtbwzYmtuaQ6yAFVinAgZsEwJsDM5LzBor1ZR3mcXGrLWDS5c8W82z1VY1YAcmbzsrgkEeUJuZnktYmqcZIiw5bHMGbGUHPH0Am+AasGFNcMV1NUikDfBbW8Pll19u+5naKhyw9ld/9Vc1SDt16lTVdfut3/qt6g/+4A86/5Niq8KtNJEBW9n+xoBtpTeSq20FrECjAgZsEwJspd971njVOwYA+4BsfV39BdQrVzxYM1xbZRsAVPSFbPUL5VmutEDIATAEHG5aOmrAVnbA0wew8eL3JbY7AzQDtK5tgPbPTLZNv1F9n4NYBspMNGapdYVqTfFKzIzuW/4lxzdgK9vfjAHY+EfQnF6V4bLO69Umvl7Lv14l+/cu/aMB20QA27Ywq8tF3iUOg68+7vbt2/VSua4Pto7nQdAS2wBL7bousQauXXzssUXDyHo224YPpxiwlR3wdAVsN2/erGdMLvEedJ3ct/RpA8w+3uYfirnnI+DapUuXdgZrEbidPXu24vnKbncFDNjK9jdDATYGxPzDnnEIkJljb9bAbcBtYJs2wJiMiUxdVtXs3stUlQHbRAAbF3yKD09tM0/SRljP3FngLJw+D+qO64EdbYD3prX9kGt53tTbDO+CO3r66Z0gIC/PbxrAGrCVHfB0BWz8Xk+97bl8/j0dqw1wP5T4L/fv//7vF4VrEbS19SnpM5nPH1TAgK1sfzMEYGPSAWCNvZ0VsAJWoJQC/GMZ0Mb4a0hnwDYRwLbL+86GbCCUq+sLgGm0zFQZ62HY+XjgNeU2wLt9mHWwacA2FyB95syZGhjuqjf1zT0wG7CVHfB0AWz+vfbv567389LSM4uN/4zv4kgfgdgQx7nf0F3KvLa0Bmxl+5vSgE1wbdOz09rarOtrBaxAOQXqyQ0DQzYDtokAtqm+Y4OHxa4Pc1OYDfHOf/2XAZ/f/TaZNsAstqaZqXNanlcKsNXvp8ssFTVgKzvg6QLY6v/gebbxZH4rlgar5lqfvq/FiI/8PLSXAmp85KDJVts/bmKZfPygAgZsZfubkoANqDbG7JIHW4V9rIAVWJMCTB7it2YoZ8BmwLaxbXUFbDRUlpHt+6H6xqc/Xf3ll750XI43//M/K0O3YWdqWONmfQFKwPOc2wVw3L51q55RxrLN3AvqmYlxeP16vawzhnOsWabsawB469bx/aL7l3ikZ+O4FGDDfm4ZlgFb2QFPJ8Dm5aEPtHu1f++bf9OWrg3PMdsuHeE3vQmK9fHnwwh/+7d/W33sYx9rtLfrTLtcn7QWPwO2sv1NScBWz6y+eXMtTdH1tAJWYI8KDLl60IBtIoBtyIu8S9vtukR0KsuNvved71Rv/Md/HA+cvvD5z1fP/fVfH58vfXCwj/p96tq16u+//nVr3DBz8DwgI+O2nfHJ1+5Onz5dA+2zZ85UbBGiXXvyycZwoBoDPWyQPxvnh5/73PH1A95hX3E4ZgPGlWhfNfg7OjqhiAFb2QFPG2DjHyIXHn20yPUs0SZsY71Aa2rXnt+nplnHJ360kpNSs9d+7/d+r3rxxRerv/mbv6k2zWIb8j/vSdUWd2rAVra/KQnYaNdeGrq4W84VsgKTVIAVenCOIZwB20QAG4DqKBl0DnHB+9rs2tnVM92ef37rARuzzJgJFR+28Utnn8XZUor/xuuvVz/8wQ/qtAqXPQAbM9oUV/YJf/Xll+t0aR6KE/cxfvRvOo7xc/Y3hROm7bUf/OBEGZvS4a86ogd10zllzPnFsjeFRz2ll9IpTwDb127dOpGf4nj//oyt9L6rf9QvXTrR3rtodefWrRqICajxnjfg1+X7tgTQFI5NgTSOFc4HB5QfMzaAdDrnOM5GxVZJwMYXVtMOzYCt7ICnDbDR/koBU7Ub7w3JltAG+I3c5lnszp07jbPNus5e+8M//MMarvE8+Bu/8Rut9gwi0p6127kBW9n+piRg22WJdrer71hWwApYgQ8UGOqfVQZsEwFszChIB50fXP79HXVtePU75HZ4n8/bv/pV9ccHB8egjAf157785erqJz5xPPBXnFe///3qzZ/+tI4PQCMde9JoxtpPXn+9AvwQ9uSf/El9LOAETJKf9sRvGhz8w9e/Xtth+aniy1YuzT9+85vH8RQ/2meWnfy1x0+2qDdl10YdOAZwKb78VA4AI35HX/pSHZd4nDOzDE1ILz/Kp7xIT3i0G2ej1XqG8ijfd371q7o82MVP6WXX+w8G27klRwzGtgEcLP1MZ5xFrS985CM1UIt+DBgBZPgJsKXh2MQP+MUx+cQ4JZeIAuzSZbMGbGUHPAZsH9x/sR372Lq0tYFtARtQbBNI+/CHP1wB0JrifPzjH6/h2p/92Z91gmvY2XYp6/6eKKeRswFb2f6mJGDrOuaYRktyKayAFZi7AkP95hiwTQSw0UB5ce2UHLMc0oFwU/mIx+C87eF1Uzgwh5lQivPkJz5RwxvNThNEAu4IsB1++tMV50pTA6GwJDQ9BygBhSJEIk/8ZCPugVoAJPKTP6Ctadkp9okfIVa0r/CYPwAPkEgYeQiwKU/20kLLX+UnvaRNtEsYZUn9IrRUXtJQdqQ5+qFNWpZYv1RP6eT9+4NZoFc604DBGEuRttHo6pUr9YwzBljMTuM9bLKjJZ+5QRxx2gCbAF6cAUe60oAt7dAM2MoOeNoAW/0PnS1mUKqdeW9QtdQ2MBRg0+y0T33qUyeWfjJTDajGstBNAC73m27A1vREutnfgK1sf2PAtrm9OdQKWIHpKpCOR0qV1IBtQoCNGWxArak4oFnX8hweHla8u2mXh25AE/AKGwAewA2AR4AIYMQ54QAf4JFAkPJNgVp6fvc73zkxK450zC6rIVqyRJWwGuYl/kAplUP5ak9ZU1jHzDuAHLZy4aQFoKmeOfs5v1g3gTFBOmwew8FQ/rv/9E91XQmPMwJVfvYRmMU8FCeGp/EVx/sPBuBAr9SVWKIH0Aa2MTtN71AjL96tBSBLN65JG2DTDLYhARt5pODegK3sgKcNsDEwj8uAfb9+cL9ai3Vrwczirs898XedNDkIFv0E2Xi/2kMPPVTPVOOfLdvAtXpWciyAjzsrYMBWtr8xYOvc9BzRCliBiSlgwNbeH5xiUDH17d69e41Ni0HPUBe6MdOGAMrS510ILHnbdkaOBjSCRIAogBIbQEgwi71mTm0L2DSrC0gUtxysU7nIk7yJo01lUhztcyBMYeybwrGnWXG5ODm/mEbaRcCW84uATeFa3ik9OFdZYh6qhwFbvwFo7j5iRts2L5nnHkvBSFwWyuCQgRfvZtP1Yi9g1gbY9E63dPkqNlO/aL/PMe+RA8hHZ8BWvu9iELnJ8RGLPtfNcfvd99ZrnnrxT4p0xvGm+yiG8TsZgVrumA8XANiAanwplD0fNsjF3eSX/pMilsPHmxUwYCvb3xiwbW5vDrUCVmC6CgzFXTyDbWQotwmw0fz6zBobsrlSDv6z2tVtCwzSQQgzuZhlBsQBADHLCj/em1bPMru/VHMXwMYSSWynm5ZJxjJRFsE3hedgl9IQpll48ov7pvAIsnL2c34xjWBZH8CmmXtAt1QLLQmNeageBmzdB44suWx6tyKALQVh0rhpryWclz/+8fo9aQA3BnU37n8FFHt8pAB4QlxmlWpWGzbbABtxBOmwTXrKyUCvFGADELJEMToDtrIDnrYZbGjPb/yuy/qb2qn9u/9GWKvpaMXvZ+4fIvG3atMxH3vaBMUUBmRjWSiA7UMf+lCnNEqr/Taz7DaVfU1hBmxl+xsDtjXdPa6rFViWAgZs7f3B7Gew0WQBVTzgbfsf1BLNnge3bf47SiPddcBWg6T//b9PLLME8rABdjQY2RawaQZXBFHY5IuYsh33zHhLgRlfJaU8MZ6Ome0GwBOMw5+8tES0KRyIpw8d5GBazi/Cr20Am+CllqaqDlGLmIfCDdi6DwhzHzjQPcpgLL4/Tfq27QXNBNLiF0FJy2w18gWyEYdlpAJ5ShvzyPmRRumxD9ADzsV02xxTNoBf6gzY2ju4vrOz22aw8TtfCppu0xacpvvviLUaRyt+4/r8YzH9HeO5jXfpCoK17bt8KTRnY5vns7Ssaz43YCvb3xiwrfluct2twLwVMGBr7w8WAdhopjzg7esBSstU2fd1NZh77LGdBuECYAAlDSqAUgCo6NcVsJGGDyEwAw7oBVQCEMkP+AVg4lz5xb3yZq+4lCWFbkoj++RLnmzYln2FA+kIw6bgoWaNkTYFeDm/CL+2AWyUGYAIEGSmHmV57f6777BHeMxDdcwBNspHeuKwByh2PZfdpe1r0PX44423UQ3TV7ZM79qTT2YHsAZs7R1cacBGw9xmFuXS7lPXZxx4NQedgf/bPPvEH3lm53ZZKpoDZ138AHj7/AdsrOtcjw3YyvY3BmxzvRNcbitgBQzY2vuDxQA2mvvVq1crZriM6fTetV0eMAGDLE3b9mFaAOrV73//2Ib8BH2wDYwC9EQ//AE9X/vKV47TArGIp2WeSks8/NiASPo6Z67cem+b4vIxBgGzXHzKhk3i8z6zoy9+8eSMthAum4Jr2KP8ALhoO+cX68pyT+opqEXanB8fPiBetE19pBHlBSYqPOYhP+oW47z4zW/W9aQuxOGaYOeH/+//HZ8Tpmuqpak6l92l7bsM1m7cuFHPDlta3XP1ATg2Lb8yYGvv4IYAbPxThNmJuetlP4OnNbUB4D+/xyUckK3PTLYuYI04/H7u8nxWom5LsGHAVra/MWBbwl3hOliBdSpgwNbeHywKsNHMx4Rsgmvpu5H63m78Z7UGC6+95kHbux6grWmAFuvKYI37t4u7ePHiVktFY35TP9bS0KbBoQFbewc3BGCjffKOwG2WKk+9zbl87n+6tgFebdEE/7v8hufi8FvHg3tXeNYW7+DgwDPXckJv4WfAVra/MWDbohE6iRWwApNQwICtvT9YHGCj5TFIv3DhwqD/tWQWAw1sV7imO6V+sGSphSGbIeMKIWMfuKZ7BshGuq4DwjnFY/DaNpvPgK29gxsKsNVLlc+d2/n9mXNqky6r4ZvaQBv812/0tnte+bHLbDaezXhGsyungAFb2f7GgK1c27QlK2AFxlXAgK29P1gkYKOZAb5oAEdHR0VbHQMrZi8A8Eq/00OQzTMjPJDRQGbpez4kAEjqOnMtvZlJp69/LkEr9AAa8tvVNHNNGhiwtXdwQwE2roEg2+H9r9Euof25Du572toAr7PgN7ft90m/U7vs63fUPv54PVNu02w13t/Gbyb9wRjl2qVOc01rwFa2vzFgm+ud4HJbAStgwNbeHywWsKn588BVArQxmOL9boC1If8zSj51mc+fr/hSYdvDrsM9IJpjGxBIKnE/MaDiPYYM+vjCIwNANmZZzGGjrIfXr9egsY8eBmztHdyQgC32MfWXbz372P3Vgmcf85vNuweH+Oei7qVNe56NePZiY4YbG8cGaptUKxdmwFa2vzFgK9c2bckKWIFxFTBga+8PFg/YaHI8gPEwRoNgIH779u1OD2WkOzw8rNORdkiwlt4a5M1MOaABX60DHDAIv/n0096swSzbAO338qVLNUga4n7SAAwQzr3DvT6HjfLy+0T5+zgDtvYObgzApj6m7l8ee2ynD9bMEZa7zMv+Jw//AOB3uw/87/M75rjzUMCArWx/Y8A2j3bvUloBK/CgAjzvDuHee++9qu9z+1TjrwKwxUbA0lG+esXDIg1EmwbinPPiXvb4bTPwjfmVOBY4oCzerMFc2wBgm/uvL0gqcQ8t0YYBW9kBD500g8hdnP4xUvcr58/X/xxhdps3azC3NsA/92jH/LNizH8u7nL/Oe1wChiwle1vDNiGa6u2bAWswLAK8GwwhDNge6NsR9NGH+/duzfEdTy2yYCfgRGbB//HsvjACliBCStgwFa+H9oVsKXNJfYt6mO8f7+vtQ7T1iFtyz5ftwIGbGX7GwO2dd9Prr0VmLMCBmzt/cEsZrA999xznrnl2WtuA24DbgOhDbzwwguLmUrd9k+WscJLA7Y5P0C57FbAClgBKWDA1j6g6tNPGbCpZXlvBazA3BQwYGvvD2YB2P7u7/7OA+swsJ7rEkGX28tb3QbKtQEDtvYOrs+Ah7gGbHN7zHN5rYAVGEMBA7ay/Y0B2xitdp558DoVAMbZs2frjdcVMeO7j+N1LKT38v4+qjluVwUM2Nr7g1kAtqGXiHZtUI5nBayAFZiKAl4i2t7BGbBNpbW6HFbACsxZAQO2sv2NAduc74bhys5Hr06dOlUdHBzUH+QTbDt9+nQvyMbrKbYBc8PVzJaXpIABW3t/YMC2pBbvulgBK7AaBQzY2js4A7bV3A6uqBWwAgMqYMBWtr8xYBuwsc7UNLPUgGtXr149UQNgGYCND86kTu95Tf03nbeloRzEsbMCTQoYsLX3BwZsTa3H/lbACliBCStgwNbewRmwTbgBu2hWwArMRgEDtrL9jQHbbJr+aAW9c+dODdhyy0FZ6slsNjkAGJADIMfGctDDw0MF10tD8ZctZrOdO3euunDhwok0CiehlpXKpmbTeZnpsaw+uK+AAVt7f2DA5tvFClgBKzBDBQzY2js4A7YZNmwX2QpYgckpYMBWtr8xYJtcE997gQBazFTr4gBlQDWgGO7GjRs1OBMMY58CNs6ZHacZbHFWHH7Yw67CL168eMJml3I5zjoUMGBr7w8M2NZxL7iWVsAKLEwBA7b2Ds6AbWGN3tWxAlZgLwoYsJXtbwzY9tKMJ50pgA3IJQfoih8G0ww2oBqwTDBN8YEeAh85wKYwxWdWG0ANl5s9x+y2XD5K7/16FUjbUikl3nvvvarvc/tU4xuwlWoVtmMFrMDiFLh792713LPPVu+8/fYDdfv7b3yj+scXXnjAfywPA7ayAx46aQaRdlbAClgBK3BSAQO2sv2NAdvJ9uWzqkoBG4AL4MbGbDPBN8GwVDOWiGoGXFfAJlCS5o1tA7ZUYZ9LAbUbnZfaG7C9UbajaaOP/opoqaZrO1bACvRR4Llnnqn++I/+qPrqnTsPJPvCX/xFxbYvZ8BWvh8yYNtXa3a+VsAKTFkBA7ay/Y0B25Rb+37KBiBjxhgz11LHbDMBNma1ES91BmypIj4fSgEDtvb+wDPYhmp9wS7/BWBKL/9RYOPczgpYgekrAGB78pOfrCHbD1977USBDdjaO5i2f55MLdyA7UQT94kVsAJWoFbAgK1sf2fA5hsrVQCwBjhjNlnqImBrWiJKHIGPvjPYBO0i3PMMtvQq+FwKqJ3pvNTeM9g8g62xLWnNPD90fLGFjWM+r8yPJnv9CNJAWf9+dHRk6NaoqAOswP4UALAJpH3qz//8xFJR+cfSsWxUQI74LDGVI35cUgqwS22S39e++lUl2bj3DLayAx4vEd3Y3BxoBazAihUwYCvb3xiwrfhm2lB1xogs82RcKAcsY/Ya40k5xo+ca8KGgBqgDKdzhWvcqfTsox9j1/SjB5TF72CLivlYChiwtfcHnsGm1rLjnh8zfowAZnzNRT9qbWaJxw+iYBt27KyAFZiGAgJsb/7859WTTzxxYqloCti+dudODcwAZ2+++Wb1D9/4xomZb4STRg7bLD+N0I08vhegnOLm9gZs7R1c3xlynsGWa2n2swJWYO0KGLCV7W8M2NZ+RzXXny99AruAW9oYI8ZxJcf4EU5cNsaecn0BG+lIA8hTnoxnOfa4VKp6LwUM2Nr7AwM2tZYt9/qRo7Ht+iOELf6jEP8rsWWxnMwKWIECCgiwYerFF144AcwiYAOoActSOBbjAN6uPvHE8Sw4Zq/F8J+88UZtA5jXxRmwtXdwBmxdWpLjWAErYAU2K2DAVra/MWDb3N4cWtWvFmI5aFy2merCuLEpDmFy2Ijn+Of88GcsK7sGbFLQ+6iAAVt7f2DAFltMz2NeKFkCrKXZ8sMGaMutw0/j+twKWIHhFIiAjVwAYofXr9cZRjgGPAOwpV8bZXYa/ri33367ngVHXDYAGzBN0I24N+7brhO0/DFga+/gDNhaGpGDrYAVsAIdFDBgK9vfGLB1aHSOMqoCzFgD1uGAb5zrwwqjFsSZTV4BA7b2/sCAbYtmzA8PAOzg4GCL1N2TMN3Xs9m66+WYVqC0Ailg01JR3rUWAdurr7ySBWx3//mfjwEbZSMNS0XZsI0DtAHc/vLmzdq/ax0M2No7OAO2rq3J8ayAFbACzQoYsJXtbwzYmtuaQ/ajgJamaskpcE3AbT8lcq5TVcCArb0/MGDr2XqBa0AvvUiyZ/Le0flxoyGnU3t7G3ICK2AFeiuQAjYM6N1qWuKJH+CNmWqAsuhIH2elMUsNyIbfq6++WkfF3nPPPns8uy2m33RswNbewRmwbWpBDrMCVsAKdFPAgK1sf2PA1q3dOdb4CrBE1GBtfN3nlKMBW3t/YMDWs0WPCddUNOCaZ7JJDe+twHgK5AAbuQPIAGrAMjmOWT7K+9hwwB2+KBo/YiAQx7JQOaActgB2fZwBW3sHZ8DWp0U5rhWwAlYgr4ABW9n+xoAt387sawWswPQVMGBr7w8M2Hq0Y96JFr/S0iPpzlE1k21nQzZgBaxAZwWaABvgJgVswDMgGVCNPeEsBU0dYSwHjY6vh2s7+YcAACAASURBVJJXH2fA1t7BGbD1aVGOawWsgBXIK2DAVra/MWDLtzP7WgErMH0FDNja+wMDto7tmCWhvHdtnw64x4cV7KyAFRhHAT5aoBlpaY5NYcxIY9uULv0YAuepX5pfem7A1t7BGbClrcbnVsAKWIH+Chiwle1vDNj6t0GnsAJWYBoKGLC19wcGbB3bKo1pCu9B46suUyhHR9kczQpYgYEUMGBr7+AM2AZqfDZrBazAqhQwYCvb3xiwrer2cWWtwKIUMGBr7w8M2Do0eWavjfVRg7bi8PLJfc+kayujw62AFRheAQO29g7OgG34dugcrIAVWL4CBmxl+xsDtuXfM66hFViqAgZs7f2BAVuH1j9UQ+qQdTYK5eFrpnZWwAqsVwEDtvYOzoBtvfeHa24FrEA5BQzYyvY3Bmzl2qYtWQErMK4CQ3GR9957r/5AXN9n9ynGN2BraZNTnDF2+/btig8u2FkBK7BeBQzYyg546KAZRNpZAStgBazASQUM2Mr2NwZsJ9uXz6yAFZiPAgZs7f2BAVtLe2Y5Jl/wnJJj9hrvYrOzAlZgvQoYsLV3cH3/q2XAtt77yTW3AlagWQEDtrL9jQFbc1tziBWwAtNWwICtvT8wYGtpw0M1opZsW4MpV9MyUT6CkAvLfRyBeDn/1gIMGIG6MUuvlAOQYnNq9exbv29/+9t1Pfqm2yX+5cuXR50tOcX2uIt+Q6Y1YGvv4AzYhmyBtm0FrMBaFDBgK9vfGLCt5c5xPa3A8hQYio14iegbZTuatkHQvXv39tY6h2pEu1YI8NE0s45Zd2m5iXvq1Knq6OjoRNbMhEvjnoiwh5NcOXcpBst8sTl3wMaHNqjHmI62MeZHNdROuWZ2mxUwYCvfD3kG2+Y251ArYAXWqYABW9n+xoBtnfeRa20FlqDAUNzAgG0lgA0gMyZc6HPTHR4ePgDLlJ6w06dPn5jFhh9wJq3PuXPnKmDdlJwBW/5qrAGwcc9x/Q3Y8m0g+hqwlR3w+B1ssXX52ApYASvwgQIGbGX7GwO2D9qWj6yAFZiXAgZs7f2Bl4huaNMM8qf6MQFgSzobTVXJQQpuBjbAm5zixeWYLNEDxlHv6K80cU8ZiK+PLuTKQzjxsIdd8pTjmDD2hCm/FLBxHZSX0urapDYVHstEXGzGvBVP+031VjmJq7rk6ipb2jMbS1pShtTFPHPhxFc92JM39Ygu2pB+Cuccu2zoT1xcTNNWD9pMCmVlD5uppuSJn+I0XR+Fk3+0wbEBm67g5r0BW3sH1zY7Og33DLbNbc6hVsAKrFMBA7ay/Y0B2zrvI9faCixBAQO29v7AgG1DSxcE2BBlb0HAlk1wBJAG3MABVIAWwA/8qRfuzp07tb/AC3Dj7NmzNYhj6SjHKVypE97/g01mwHGjEV/nqT3ZYc8moEI5SCP/Rx99tLaMn+oGpKLMV69ePc6aGXf4UTbyJj3x5PCP4RxjU/kqnvbKQ/XAHvVSPVTOtK6bZv6hPXnKJscAKTnqR7kUTp6p1uQX60Ec7Mjlrhf25DgmPRtpic+W5kuY6qq02mMjlitqr2uudkaaM2fO1NqRh9pQaj9eH+qospGe8lFHtVGVw/sHFTBga+/gUoDWdm7A9mA7s48VsAJWwICtbH9jwOZ7ygpYgbkqEMeaJevgJaJeIlqyPW1lC6iRzliKhoAbbDhAGsADx00h0AMsAXDIAToiTBFYaoIdgJAImQBV+Am43Lhx4wSoIh/KoTSyH+EZcbABgBL4iuGaxQWIkaNOutkVHoEb+WEzplFa9mm9BaGkk8pJfeQIk6by016QKMaXDcpFOHnGeilPgUXVA3851UPnXKt4/WRD7QJNIrwiHTbwkyON9JZf3GNDbYKykzZqS1i0B2AjjYBdaj9XL+Kz4RQ/5hHL4+MPFDBgKzvgAb4ZsH3QvnxkBayAFZACBmxl+xsDNrUs762AFZibAhqzlS63AdtKABuQQJCqdCPa1R6gpAl8YRvIJQAEBBEkwV83Bnvs4AAaAi1ADm0AE4GmtMyKH/2xqbzkj47Yo7wAIYULOhEWHXbJE3ATIRRxuB7kofKxj3WlPqqfbDblQ7jCUqATQZTixHIKFCmPuE9nBiqMNNhoCkcXlV31VFr2MU80RSfqHrWI+uauhcAgdericjZIR57YoMwpYEvbS2wn2GOLZVaZZJf4hNttVsCAreyAx4Btc3tzqBWwAutVwICtbH9jwLbee8k1twL7UEBj8Tj+2vaYcdwQzoBtJYCNxvPwww8P0YZ2tknj5mZpcgJm3DwAEOAMjnMAhgCNZjsJIhGWbgJiaV7E04wrhUVIRB6AIkAf4Icycyx7ypMyRRfzT2ENNmJ4PMYG4SkUbcqH+BFaxTJE/1z6GB7TcRyBXxrGOXWKUEpxoj/1kE4Kj3nqOsb661jpcjawBTzkOrARR21A+cR9akN1o/yEsY91yQFZyqV2QjtQOdM9+apeaZuIZfLx+woYsJUd8Biw+c6yAlbACuQVMGAr29+UAmw8Z/MMxvNhiY1nPJ5F57zxjMtz8Nw3/aOdZ+25bjzza5yg/RzrorLH/RzrkZZ523sEO0M4A7YVATYa3xQH+10aNwCFjgaQEesABEn9I5DretNEcKI06hA4Jw9+jGLelBtNcTlwhT92scMSS46JJxfTyy/usd0HsDXNJhNIwnaunBF2xfw53hRGeLQd06IXnRGOOqT1iHbRFG36wLGYF8fUC71SjWO8qLd0iNcjQkHSdQFsuv4xHx3zsEg4e7vNChiwlR3wGLBtbm8OtQJWYL0KGLCV7W9KAjaeG0vAtSYbPPPNfeOZeQnben+BXPMpKdCFQWxTXgO2FQE2AAYQYUqOjg4Y0+YANACu9EYQ+BLMwQ5AAyCX1jXCsTQ/wIxmJskG+alsOUhEuAAL9cBGmke0q7IqDuWjnCmAUbjgVQwXmFKcWI+meqPNpnLKZrSlY8FK6idH3tQdv1w48aI2uXpSN7SRE0DVOftY7wjHFIc6YSe6HBRTeLSRqzP2KLdczlZ6PdPrR5lz10Y2vc8rYMBWdsCzC2CjDXNve7MGbgNuA9u0gan3gQZsZfubUoCNp4P0GT//xGBfK2AFrEAZBYb6zTFgWxFgY+AUQVSZprmbFaBGl4cxAZkUqGjWlgCSSqMZY0AtHhAFeQBCOQc4Aa4A2QCR6MS5ykZ64rAHznBDcq58yYNzxVce+AncoT82dTPrHD/yxG6EYTGcMOoO0Mnlo/yoN3GIi03Kx7nKlStnDjbJHvuLFy9mtVEcgUNpR/2idqoHdSMvXQvqIafrRXkpo+pKfBw2pXVME+tKObDZdI2jDekAOCUPbJM2lqkNsKEp9aReuetHOPabyqN6eF9VBmxlBzy7ADbaK/eoN2vgNuA2sE0boH+dsjNgK9vfGLBNubW7bFbACmxSQGPyTXG2CTNgWxFgo4HwsDSVhx8ARApNmhoxZeYmEChSPOAN/gCO1AFOCAOCADo21RuwgjaUB2BCuhSMAIEIY+OYTeUnLmkoT3T4xXwpf/STBrLLhxCiDYWrDtQzl0/MM9ab8kXNcuWUzWgjPaau5Es50jISN+YJ6Ip5Es451yCtR8wn2iCveE2xSRlSF9O0XePUhupNmQjTucqOPexHF68d/sRVm+EaRm3UNmUv2vHxSQUM2MoOeHYBbCevjM+sgBWwAstSwICtbH9jwLas+8O1sQJrUoBx3RDOgG1lgI1BPyAgQpwhGlYXmyn86ZJmqDgANs00GyoP27UCViCvgAFb2QGPAVu+ndnXClgBK2DAVra/MWDzPWUFrMBcFTBga+8PTjGomPp27969vbdBZgIxY2efjplBBwcH+yzCibwN2E7I4RMrMKoCBmzl+y4GkXZWwApYAStwUgEDtrL9jQHbyfblMytgBeajgAFbe39gwNajPbctp+thqndUlsxNZRadCp8u/ZO/91bACgyvgAFbewfX959HBmzDt1vnYAWswPwUMGAr298YsM3vHnCJrYAVeF8BA7b2/sCArcfdoqWi6XvGepjYKipwjcbs91JtJZ8TWYFFKmDA1t7BGbAtsum7UlbACoysgAFb2f7GgG3kBuzsrIAVKKaAAVt7f2DA1rO5aSbZWJBt7Px6yuHoVsAK7EkBA7b2Ds6AbU+N09laASuwKAUM2Mr2NwZsi7o9XBkrsCoFDNja+wMDti1uCUGvw8PDLVJ3T9L0FdDuFhzTCliBpSpgwNbewRmwLbX1u15WwAqMqYABW9n+xoBtzNbrvKyAFSipgAFbe39gwLZDi7t69Wo1xFc9WYrKBxV459sUvly6g0ROagWswEAKGLC1d3AGbAM1Ppu1AlZgVQoYsJXtbwzYVnX7uLJWYFEKGLC19wcGbDs2eZaK8vGBa9eu7fyONGAadrB3+/btHUvm5FbACixZAQO29g7OgG3Jd4DrZgWswFgKGLCV7W8M2MZquc7HCliB0goYsLX3BwZshVrdzZs36w8RMKMNONZ15hnxWArKjDUa7I0bNzqnLVR0m7ECVmCGChiwtXdwBmwzbNgushWwApNTwICtbH9jwDa5Ju4CWQEr0FEBA7b2/sCArWNj6hqN97MByWh8bCzzZFYa72sDwrFxDohjphpxgGtANjsrYAWsQFcFDNjaOzgDtq6tyfGsgBWwAs0KGLCV7W8M2JrbmkOsgBWYtgIGbO39gQHbwG2YJaTAM2a1CbBxDIjrOstt4CLavBWwAjNUwICtvYMzYJthw3aRrYAVmJwCBmxl+xsDtsk1cRfICliBjgoYsLX3BwZsHRuTo1kBK2AFpqSAAVt7B2fANqUW67JYASswVwUM2Mr2NwZsc70TXG4rYAUM2Nr7AwM23ydWwApYgRkqYMDW3sEZsM2wYbvIVsAKTE4BA7ay/Y0B2+SauAtkBaxARwUM2Nr7AwO2jo3J0ayAFbACU1LAgK29gzNgm1KLdVmsgBWYqwIGbGX7GwO2ud4JLrcVsAIGbO39wSoBG+9F431ofFyAjxDQUPjggD46oA8T6F1pvpWsgBWwAlNTwICtvYMzYJtaq3V5rIAVmKMCBmxl+xsDtjneBS6zFbACKGDA1t4frAaw8aEBgNrZs2frPYAN0Jb70AAfICB+/Bro0dFR/WEC31pWwApYgSkoYMDW3sEZsE2hpboMVsAKzF0BA7ay/Y0B29zvCJffCqxXAQO29v5g8YANUEZDYFYax9s4IBxADjj3+OOPG7RtI6LTWAErUFQBA7b2Ds6ArWiTszErYAVWqoABW9n+xoBtpTeSq20FFqCAAVt7f7BYwAYU0xJQZqSVcoA2GhYz2uysgBWwAvtSwICtvYMzYNvcOuknm2Zyb07pUCtgBdakgAFb2f7GgG1Nd4/ragWWpYABW3t/sEjAxoCBi7/tjLUut8HVq1fr2Wy5JaZd0juOFbACVmAXBQzY2ju4qQM2+qjDw8Pq2rVrFe/8HMvRb9FHnjp16nhjhvYcHP/kotxd+3fqShppXPIfblEvnjv8j7eoiI+XpIABW9n+xoBtSXeH62IF1qWAAVt7f7A4wMYDLhd+qIfoeAsxIOLDCGPkFfP1sRWwAlbAgK29g5sqYAPGALQARadPnz4BuQgb2vGqA/I+ODiowR59GQBqDq4PYGMWe4SIOt61rsC9tN/nNRTYH+P6zeE6uYzLUsCArWx/Y8C2rPvDtbECa1LAgK29P1gUYBPwGnNWGQ/TQLYx81zTTey6WgErkFfAgK29g5siYAPMANfY4iwsQTeA29D9CXkM9YCUb63lfLsCNiCaIKL0RHuBMGYObuOwgd0U0uE/5izEbcruNFZgWwUM2Mr2NwZs27ZEp7MCVmDfCgz1/Pjee+9VfZ/bpxp/MYCNh9t9gS4GSUM1tn3fRM7fCliBaSpgwFZ2wEMnzSByaKfZY/RZqaMvycEbxSONYJH8mvab4pIH5ejjcuUlPeXJheGX80/zJE5bnWKcLoCN+JvqSH+9CWQ21Ymyy3YK2NJ6xXPZa6un0sT6yi/dd4mTpvG5FdhWAQO2sv2NAdu2LdHprIAV2LcCQzEPA7Y3ynY0bfTx3r17rW1p30s1b9y4Ub9Lp7WgjmAFrIAVKKCAAVv5fmgMwNY2e4y+LIVfzLYiHdCIjdlv6Wwp0sg/xo19o2Z1yU6EUDwwkV5OIIu+TfYAgBECkka2lDcz8XL+sqt9WifSAI2iy9lSHShHk2uLo7rFWWzSQjPcOKfeEaSdOXPmuL6qt967JnAaywRQI730I02untjFP9WEJa6pS+2hOzrZWYEhFTBgK9vfGLAN2Vpt2wpYgSEV4HllCGfANjHAxgMng4B9Ox7M0wHCvsvk/K2AFVimAgZsZQc8Y8xgo38AsuTASVMrpX8jjd6XBlgCquAXIZMADzCH/pAw0sT8yB9//HhA4lh9Fuc5wEZcbFOOmB5/PvaDDYAVacmbPfmm/nH2VqyT4imtdCAv2UzrQ96ka3LUhThNDtuEx+vAORv9OPCSjfzxE0QjT/zxQxPOVS/pH/NUOVKdsCvdiS9whz9aYlegL0LAnG7SSOWI+fvYCpRSwICtbH9jwFaqZdqOFbACYyvAs80QzoBtQoCNh9ShLnTfxsND8VTK0rfsjm8FrMC8FDBgKzvgGQOw0UcAZwAlXZxAEPAmOmAKQIrZaXICPBHcEEYcIEx0AkTRj74rxtMsr/SfV6pDWiZAUM6u/DXjrqlOiod9nGAS5YhO/ooXw3Sc1kX+cZ+WlXOgVnTSOfbrKn96DaW/0t+5c6fWA7gWHbPNyCvCPQAb2sdrR95pmXLXEh1IK31jXj62AqUUMGAr298YsJVqmbZjBazA2ArEZ6KSeRuwTQiw8fCdPoCXvNh9bdHo+v4nmfg8JKsu3r9/Ta3D/HSgHcdBYt/7x/G7K2DAVnbAM0XAxm8gkCUHkwA0hOl+SwGPWhJ9EvGi4zwFZMTLAbY0b85JnwIm+Wu2l/JTHeSfgjTFE1ASeKI8QMTUyV5arhgvrUsM03GqQXqueNJV/XpXwJZeH9ljn9ZNS0RjHI5Tf81qk5ZpfJ9bgaEUMGAr298YsA3VUm3XCliBoRXgGWYIZ8A2IcA21EXetuHw0J8OPHK2eFhnoMED8yPnz1eXL12qbj79tDdrMOs2cO3KlerCo4++36YvXz4e/OfuAfvtpoABW9kBzxiATXBGEKmtBWi2liBajJ+CJoGgGIdj+kjgUXQ5mES8MQCbwBNlyG0CfylcUvnTess/7qlLDs4pjmCe8sI/pwn+6TXQNUz7+VT/TWVQXEG7prqm/uSt60l5OQa25dqH6uq9FSihgAFb2f7GgK1Eq7QNK2AF9qEAzx5DOAO2iQA2HirTJR1DXPA+NnlgbisTA4RzDz9c3bh+vfrFz35WVe++680aLK4N3L51qzr33/97J+Dc5x5z3PcVMGArO+AZA7AJ7GzqI+gfNDsrhTux7aczwQRtYhyOBWSifw4mEW8MwKZyUn7qmm6qO3ApLoFV+YlP+RVP/nGvPJrAE2mxESFZThNsptcAm2la4ilPlYNr3AT50rgpSJONJn+WmbJ0lzwoC9dNsE5pvbcCJRUwYCvb3xiwlWydtmUFrMCYChiwtfcHpxhUTH1r+ooo7zjhIX1qblPD47/3B5cuGawZqC0OqDWBYkAyQLlpsNv3/mUgyQAzHZhP+ZwBfekv/Rmwle+7GEQO7egfAC85ICJ4A4DBCSbllgQK0siOztPykx8QJrocTCLeGIAtBYOxXPFYgEr1U5g02QTYcgBN6dlLq2gjpwlxBbGUXtcowrloU/E0Uy/3u5e+S60JpKX+lDe1p7pO8VlIWng/fwUM2Mr2NwZs878n5lwD+hH60rR/nXOdXPbxFNjEOXYphWewjQzlmgAbD7jxAXmXi1oyLQ/v6UMw9vFnGWgTiLC/Z/IttQ386LXX6mWjufui673Hvc6POktQWVINuJvLsuq4dLbp96GrDopnwFZ2wDPGDDaunYBIbploCn54+AXGAWTigzD3EUAoPuQordqH9sSZEmBTnWLZKSv+aKLfCIG0JpDV1vejGdqlYFv6A86iQ6MuOkv79Pql+iufNJ4AY/z4QQrSVK7o36Qb9aPsqU6y4b0VKKGAAVvZ/saArUSrXI4N+gn6xE39Gn0WcdRH7lJ79U8lbO1SDqedpwLp81upWhiwTQSw8UCbPjyXusi72MmBP348AQJLBSiul+FgWxuoIdsWHwHhHufB4uqVK4uY+fmt55+vHn/ssRomRGjS9zfHgK3sgGcswMZ1Bq4ARZgxRn+hh2v8InghrkBTjAs44jw+HKeAR+2JByHsRsc58aMj3hgz2MiT5Y1p/cmbesU6AbyIx/2PTqoLfpsGIuSBHWwqPfVV+lQ74hNPuuqacJ6WibgxnsqR01/XmXxlk3xSkBdBGvblUv+cPZUl6qb03luBUgoYsJXtbwzYSrXMZdhR35T+Q0a1ExCj/yjxWy97JWypjN6vRwHa6xDOgG1CgG2KPw48SOuhmwbIAIkBdRuAcLgh1dLbAJC56QEi92PN0jg+AgKcW5o2zL7bZemsAVvZAc+YgE39Ag8pwB42IFLsN+L9QD9HuOJyD6V9nwBUTMex4F30J18gV3TEi9Dt9u3bNZBK/4nFOenp16KTf1oH2Un9SR/rn6sTAJoyAaSoO4AJO6RLyxXLomM0wq7Ss8dGDmwzcCGvWK6mfKiTbKpeTfpHe035c20PDg5U7ON9zj/aQ5OcbscGfGAFCilgwFa2vzFgK9QwF2KGvkb/0Pn/7b3Njx7XeebNfyCCtjOYgFzNLAQMCSSz8Ep8Z/Hai4zJjQIECOgGRgqQBUWOBdjaiN1CFoGMUM2JYMC21MP2xwSxp8ctC7BkyLRaiRzJsgi07de2FEsypYnbtj4sjqlI6licqRdXiXfrdHU9T33dVU+dU78Cnq6nvk6dc9V16u7ze86pKotPik3aPguwFf8fqJJFcStMq+r4qu1V52N7WgrIr31MALaRADb9Y1nnn+w+TDAvTeXL/unWfmMHBO+9/Xb21uuvJwcwUgMyqZQnrw9XrsyrQvk2NWI1HDTlF4F0GToLYPNt8AwN2CorADsMqoABtkFPyslQIBIFAGy+8QbAFonxB8qmgIV+UBFE04814SS4pfiktmUIxbSP9jXwpm12rNrGWg7bopaOfqQxwKY07Xj9YKP/u8NJjzSw7WH64T58n54CALbqeBD1Sw5U8Ys3gzHYXDdJ+wVCN7Kzd945ani1et992RcffHAvjzuvvpr98tVX95ZTATtjKoc0nirU1BBJBfV5k/4RUO+uscM1PQtu5dy5TnVl+/LlvEfOPD3KtgHYqgOcoFmTjxqRTNNUQI2HsAffNFWg1ChQrgCArVksqYo7ALZyn011rYCF4o8AmXo6h5PakYJfBsWsN5l6odt67a/9QqimNEMQYtvVPrW0dC6lp4/BtrD9Gqan9na4HOaR79NSIPSVZ8npwdaw0VIVaKq2z3rJgW4QRus9L3DXtELjCbaNfXjbL195Jdt55ZU9SPC5v/7r7Ktf+cre8pjAVCp5+cuVlezxb35zshofPXp0bjWLod7Ii+qN5zH8Wy9BKHtT5DyRAGy+DR7FIQDbPMelvQ3Alvb1pXTdFACw+cYbAFs3P6Z2tNqNAmyCW0WIJYimtu7DDz+cbzPApl5qxVFcem6ntYut95kBM/1frY8mA2zh8dpPvdV0nCbBt+KPTsqnpZHvxJ9JKhByDk8BAGwjAWy6GfR1kdsaRje+8OajBnhfUEhDO19+4YXsvWvX9s6hXlHF3mdhbynb/6UXXsh+vL2dH2c91iw969Fm+1r+tf25p5/Oj6vT+0rnaLK/8jFvfzu/9ime38pdto+tU3nD47ReZVT5LK+2rHXaX+cK14VazNpueped18557u67s69++culads5Up6r51cY2MP6psDvAa2G0M8LsKmnnnrsNZkAbL4NHgBbE/elt69+3de9hwkFUOCgAgA233gDYDvosSmvUVvW2rOaWzvSQJjaltYDzQCb9Mr/X77xAh8dJzhngM1gnX68te9Kw47TvmFaWh9CNW1XmoJs9hHsK/awyxPkz6QUMK96FxrANhLApguri6wbx1gm3bzsBqZ86RlSfTX03712LfvUmTPZj3/wg71zaKjn8t137y3bPoJEb732Wr7/hfvuy859+tN7w0Ktx5rAnL4L/mi7vhu8u/zMM/k6wTetz897A9CVlU/wyNJQby19iuAvPO7b3/xmnmaYvs5p+5RtD3uA6Xx2HuVP36WD9tH3cJ3lQ5qoHNIjPO8jGxv5MeG6p554Yi8vgnRK08qnNL6xsbG3Xeda/8IX9p1X+0tLQTltl8aWLyvjlOZ6wP+sHlsK5Bo22UaPzY2NTL3B9CnrOarhqWXbta/yJNBlaayvrR3Ig/a7cP78XvpegE1lFXRs0sAHsPk2eABsY4mi5AMFUGBsCgDYfOMNgG1sDl9sftSWNWih/wPVk0xtSANbyl0RsAmkaT8NFdUP1oJlYQ82HWPpqveb9rUpBHe2zvbXOTUJsAn06Tzhx3q4hcfxfVoKmFe9Sw1gGxFg003CaL33hW6TXmg65U2N5jagoO4xgjUCQrZ/DsfuvnuvZ5SAjgE3A2yCPwbOdJzSCIeEFpcFlASRQsikc1q6dm6b65zaX+ezdUozfM6brde8Kv2y7QbcrHeZATY7p8CitFAei+tMLwNsxXJVlXX9wQdzzawMlo7lRWUVPLPzaq68hOfR9hAQWlpTmT8sEFZ4kKvVt7a9PtUDTP9AqPeb0tA/BwJqpqmelWbbBb61XTBN27Wflo8cPpwfa9vDvAiu6XiDatrX0rNzdJnXeTadaaQ5gM23wQNgC93FdxRAART4UAEAm2+8AbB96C2+fQjCTIv8f8ulpQ/+j73Rs7oI2NSTrPg84yJg0zFKS6DMwJnOMQuwaV8DWKTUYAAAIABJREFUaEqrmL7lj/m0FQhZh6cSALYRATZdWN04xtCLTTey5eXlPa/l8O+ee/Ya+F0a37OOFbQRrNF2gS19F2wyiKS5gS2BHsEjA0GWZhGoFZd1jiJMs7SsN5ilVZwLjumjPCjd4nYtK49WBtsuQCYAJRBYtl37CVpZOVXmYvpl68KyGRhT/uy8e3AwWKdhotJN+4Q9Au0YzdXbzfISnsP2KQK14rLtN5V53pOsBLC17fVpgCzs+SYQZj1Itb4I3AS/82GZAWBbPX9+zwvqqaZj7EULSs/213XSek/ApvRsWMDeTWTOFwCbb4MHwDbHbGxCARSYtAIANt94A2CbdHU6UHjraWYb9AO0/r/UkEybioBNxwiyqeea/nfWMfqfNfzxWuuVTv7/b/AIBANsgm7Wfrbjbdio5cFeJqj9BNwMwFm+mE9PAQBbdTyI+i2iZmndKEIyb+uHnOuGVDSc1vX9LCkBLsEfgSgDawJHBqwEfmyopUGxpoBN4EjnKPsU0zJAJCinIZTKhz42nNK2h/MyEFZnewiyytIoWxceUwbYytaFgM22l2lhvQDDc1g5ikCtuGz7TWU+a4ho2zojOJX/Y3HuXOnQUME09ThTLzT7KA86RssG6PTdrkG4ztK3Hm+2j/Vms+Wu8ybPtgCwVQc4QbMmHzUimVAABVAABfYrAGBrFkuq4g6Abb+/pr5UBGyCWfr/VFDNpiJg07BQATjtp4/S0HKxPazlENQpPQNsZ86cyY8VhNNHw03DSUBNadt2ncMAXLgf36elQJF3eJWeHmwNGy1VgaZq+6y3iIYXVDeBWc90Cvfr67t6nuiGVZzCHi9dG9+zjldPrueeeSYHWQJANjxSD9sXCBJY07FdAJuAkPVGC+fhUFPLn/Ki8yovtq4MdoXbBAJtuTjXsWXbQ5BVln7ZuvAYg2VhD7aydSFgM6Cp596FOui7aRGew8pSBGrFZdtvKnM9B62svrQFbNJN8Ev1Tf8MaH7h/vv3PCXQbf+EFOd1AJv20XGCbuE18gZsSq/uBGDzbfAoDgHY6rqP/VAABaakAIDNN94A2KZUe6rLKqBWBFdatt5lSqFsH63X/9L20rCyfQTYitBNx9n5NFca4bnCHGu9ttv+4Ta+T1MBAFt1PEiiB5vsrRuALrjdZIa0vLrRhkNDw3NriJp6v4SNcu/vNoRS0MbSFuSxh/fburaArWzYpNLUGzEt7XBeBsTmDRG1IagGqJSW4KDKoHVl2wW0BPGsd14ZTCtbF8KvMphWti4EbAYvi89PC7UIz2G6FIFacdn2m8pcIKksmCuAd+31KRim3mn2PDVpqjTnwe6wt5pdg3CdAba+e7A1CVoAtuoAV/XjTXE7gC2MXnxHARRAgQ8UALD5xhsAGzVrCAX0P3X+43BJB5Ahzs850lSgSVuliQL0YBthDzZdQN1INMRqSMg2D64pT9q+/tBDpSDKGvJd5waFBJQsLYNC9lwwra8L2JSOAJDSNeilHmRaJ9im9UpX62y7nVdzQS/BL+2j/TXXclkvNO0vaKW0BeGUto7RspXHtgsY2nZ91z523jKYVrYuhF9KS/lq0oNN5/vuE0/kxwn8KY2/v/EcPH3X9vAclj/lNYRy2kdlUFm1j/KgdfZMOy1Lj1nLlm6Mc8GqeTfneSBsVnkF1IrHqZecIJuOseep6dxhGrYcwjTbXlynB74W4Z9nDzY9J67JA2UBbL4NHnqwNfk3iH1RAAWmpACAzTfeANimVHsWU1b9ny24pmGgTCjgqcC8NlyX8wDYRgrYdFENsvX9EEb1vlGX21k918xg2s8etG4Nd++5AFQIZ5R+2ToBtuJ+2veR//k/973hUr3HDKgZNNKxAla2Xulo3ayy6C2ftq++C0bp7Zuz9rf0BaL00TEhvCtuF7QLt3/70UfzcoTpl60Lyyp4pXKE6ZStEwTTfmHagohWPm2znnTaJzyHHSNYFu4jXe147WPLBtTsGsxatnRjnAtShc+VsLpicw23NvBVt3zaX8+IyNNeW8uBmuDamRtv8VUvUgE4rRNsE5ATHDMAV4RpOm9xnV6AoH9W7Byq13bOuvmct5/yZQ+TNS3mzQFsvg0eANs8t7ENBVBgygoA2HzjDYBtyrVpmLJrWKc+TCjgrQCArToeJDNEtGge9QQRABNw8550w1JPubqNYfViC58HNa+Rzbb394Es9EhLD4Gw4sNWi/VT9Uu9z5pee6Ut+CVwJvi1XEhDkE2QTNv10XYbvm3H2rLOXbbOwJwdr2V9mua1bH+l2WQCsFUHuOIQ0Kplhog2cSD7ogAKTEUBAJtvvAGwTaXmUE4USE8BAFt1PEgWsMnOaqjLBAJcHqBN6al3Td7DpgG4Uy+2/FXKheFpZY1s1qUFlLie+6+nepHVqYsCZAJcU9FPkK6qN2wxRAPYqgNcFVArbgewFV3GMgqgAApk+QtgivdLltvHIAAbtQoFUCBWBQBs1ff+pAGbGVfD0QS41KNNkKzJJDim42UmfZoeb+cSVFAPlSlBg6nAEcq5H6LN0qNqaKjVFc1zOK4eXe/XSzvm/XRPaNp7TRoB2KoDXNMGIIAtrIV8RwEUQIEPFKAHm2+8AbBRs1AABWJVAMBWHQ8mAdjMwGq0a+iowTJ917PaNNRT2zQXTNM6wTjbb3V1tfSNh5Zu3TmQLX1YEjPo6SvvBpDmPXetrA6pR9fKuXNJQzZpU7dXX1EjAFt1gAOwFV3DMgqgAAo0VwDA5htvAGzNPcgRKIAC41AAwFYdDyYF2EJbqmeaQTUBNA0j1UcQQKCtzjC2ML2635Wu4J1689CbDeDWF9QaQ7p6npmePSiA1PbNvoJsZ++8c+9ZaWMol1ce9NZQ9Vxrqw2ArTrAAdjqRib2QwEUQIHZCgDYfOMNgG2219iCAigwbgUAbNXxYLKAbdHWFcjLh62eOpVtbmxkamx7NdxJB3C3KA8IGsvPZ0+fzt/QKUAmmN1lUl0RiFp3epnAorSx8wo8qmeeAlQXkA9gqw5wALYuNY9jUQAFUOADBQBsvvEGwEbNQgEUiFUBAFt1PACwLdjdamCrB104JFXG5YMGMXpAPpaf1TvUc7J6ItCm3p8Xzp/Pti5diuYj6Kg8K/96SYqHPgC26gAHYPOshaSFAigwVQUAbL7xBsA21ZpEuVEgfgUAbNXxIArA9vnPf35vCKcN5WT+wZBWdECHqXlAgOrIkSPZoUOHovncfPPNeZ713Eev6/XII49kTQES+88PimpEMqEACqAACuxXAMA2P3Y0ja0Atv3+YgkFUCAeBQBs1fEgCsD2ve99L+/xoV4ffNAAD+ABPLCV/ehHPwKw7VQHuSYNHwBbPP/gkVMUQIHhFACw+cYaANtw3uVMKIACvgoA2KrjQRSAbXd319cZpIYCKIACkSvAENHqANcErmnfoQCbnktob6vWS0A0dJgPGsTmAfOuehWvr693eqZk5Lfj5LMPYPONNwC25KsMBUSBZBUAsFXHAwBbsvanYCiAAikrAGCrDnBjA2z2FmmBlNXz53mT9Pu8kMZefhLzXC9puri2lkNiPYezy8tbUr5nx1w2AJtvvAGwxVwbyDsKTFsBAFt1PACwTbuOUHoUQIFIFQCwVQe4MQE29Vg7eeJE/mKOmGEKeQcKzvOAYNuRw4fzZ032fWt97bXXsp/97GeDf94XGJ7YBGDzjTcAtolVIIqLAgkpAGCrjgcAtoQMT1FQAAWmowCArTrAjQGwaTioevUs33NPNg9MsA1wlZIH5Hf5vs9JcO273/3u4J8pPrYEwOYbbwBsfd4ZSBsFUKBPBQBs1fEAwNanA0kbBVAABXpSAMBWHeDGANiOHTuWD59LCZ5QFmBgHQ9o2Kiez9bXBGDrS9mD6QLYfOMNgO2gx1iDAikpoB9X9biE2D/b29sHXjAJYKuOBwC2lGozZUEBFJiMAgC26gC3aMB29uzZ/FlrdWAE+wCtUvSAnjWoetDHBGDrQ9XyNAFsvvHGC7BdvHgxO3LkSD4ke2VlZdC56rV6qcb+0Y8AAgaxf/RjnrwQfmIsU1k5tC7GshTzHHtdsfyrXH1M169fz5r+3z7W/QFsfTiENFEABVCgZwUAbL4NHgVpNSK9JjV8lk6dYlgoLzKYvAfyZw9ubXlVrb10AGx7UvT+BcDmG2+8AJt6lwg+bG1tjeITe28dy3/vFYoToEDECgDYquMBgC1ig5N1FECB6SoAYKsOcE1/2fIEbHpT6JWXXpo8XEmxVxZlatbb8Oobb/QyVBTANlz8A7D5xhsvwCYH9NXYHc5dnAkFUCAmBfq659CDbcc30FQ1gqb4QNmYKhp5RQEUGF4BAJt/HPICbOq9dvbOO1vBNUG5C+fPZyv33JOtr621SiMEQHoO1ubGRud0wjSL37cuXQIm0lNvrsfkZ/Wy8ZwAbJ5qzk8LwOYbbwBs8/3GVhRAgfEqAGCrjgf0YBuvf8kZCqAACsxUAMBWHeCqfrwpbvcCbHqmS5veawJqN998c6beb2dPn86OHD6cf5qkdebOOzMBL4NgAn2r99+/t2zru87VK2nl3Lk8v4cOHdp3zq5pc3yzHmIx6CUP6/ktnhOAzVPN+WkB2HzjDYBtvt/YigIoMF4FAGzV8QDANl7/kjMUQAEUmKkAgK06wBUBWtWyF2ATIGsKPQQgBNT0UPjwWKXVJL3Dhw9n6w89tC+NMD2v78qnnjEnmAdgSw+IefkkTOfo0aMz72dtNgDY2qjW7hgAm2+8AbC18yFHoQAKLF4BAFt1PACwLd6n5AAFUAAFGisAYKsOcFVArbjdA7DpodPqfRaChTrfNZRTgK24rwEs9RjTNu2jXmnq6SawJfgmOKf9tE3rtM1esHDy4x/Ph5xauhfuv3/vWO0fDkNVuvooTaVT3G5pFOcANgBb0RNly/KkHiLuNQHYvJSsTgfA5htvAGzVnmMPFECBcSoAYKuOBwC2cXqXXKEACqDAXAUAbNUBrgjQqpY9AJueM6XnTZUBhnnrBOXKeqoJrAlgbV++nKep7584dSrTeoG1Y0eP7juu2INNaVp+DNZprrzo2WwhHBMAEVSz7cqTYN28fGtbmEbVvmyfLozzfg4bgG1uiHDdCGDzjTcANld7khgKoMCACgDYquMBgG1AQ3IqFEABFPBSAMBWHeCqgFpxuwdg0wsO2gzRFNyyXmdFCBUCrPC79nt4Y2MfBJsH2NSbrXiO8Lzhd6VtQK6Yn+JyMU/F7SxPF6qF1169NNfX171ugRmAzU3KyoQAbL7xBsBWaTl2QAEUGKkCALbqeABgG6l5yRYKoAAKzFMAwFYd4IoArWp5kYBNvcVOnjhxoLeY9WCzXmVFmKVebFqnuWDGPMCm3mx6Q2kIPdSryHrOAdgAYaE3vL/La5ubm/Nua422AdgaydVpZwCbb7wBsHWyIwejAAosUAEAW3U8ALAt0KCcGgVQAAXaKgBgqw5wVUCtuN0DsGmIaJtnsAl8lQ3HtF5k9gy2ImDT0FGts+3zAJt6sNlwUYMnADagmnmh77nqheqH1wRg81KyOh0Am2+8AbBVe449UAAFxqkAgK06HgDYxuldcoUCKIACcxUAsFUHuCJAq1r2AGxXr14t7YlWBS8EyATYVs6d2+thpnV6xlo4rFMwTc9Os/QELfTcNFueB9gE05Se7av0dayG7mkdPdiAbeaNPubqKan64TUB2LyUrE4HwOYbbwBs1Z5jDxRAgXEqAGCrjgcAtnF6l1yhAAqgwFwFAGzVAa4KqBW3ewA2XbSjAcRqAirUG03ASyBCsEvATUDMhn8qLQE27aPtGlJaBG46VtttKKiWrdeaATttF5hT2iFwA7AB2Jr4tem+8qLnBGDzVHN+WgA233gDYJvvN7aiAAqMVwEAW3U8ALCN17/kDAVQAAVmKgBgqw5wRYBWtewF2FZWVvbexNkUQgimqUeZoJg9dy1MQ0BN67XP6vnzB/bR8Vpvvdy0r72B1NLRtrL0te/Wd76zr4eb9W6zY8vm2ieEgGX7sG7a8C739MrKzPtZmw0AtjaqtTsGwOYbbwBs7XzIUSiAAotXAMBWHQ8AbIv3KTlAARRAgcYKANiqA1wVUCtu9wJsGgaX99Z53x+qGGADWPlri6b9aar6cOXKlcb3uXkHANjmqeO7DcDmG28AbL7+JDUUQIHhFACwVccDANtwfuRMKIACKOCmAICtOsAVAVrVshdg00U+e/bsgd5lHgAHwNYfBPK4PqRx8Pqo99rS0pLbvc8SArCZEv3PAWy+8QbA1r9nOQMKoEA/CgDYquMBgK0f75EqCqAACvSqAICtOsBVAbXidk/AZr3Y9NwzT+iioZjeaXrmj7QOAqYpayK/9tF7TTdXAFuvIWZf4gA233gDYNtnLxZQAAUiUgDAVh0PAGwRGZqsogAKoIApAGCrDnBFgFa17AnYdJ22t7fzlwgAxIBOU4Rs9lIN1YM+JgBbH6qWpwlg8403ALZyn7EWBVBg/AoA2KrjAYBt/D4mhyiAAihwQAEAW3WAqwJqxe3egE0X7eLFiwfeBDpF2EKZpwUZDa7J/31NALa+lD2YLoDNN94A2A56jDUogAJxKABgq44HALY4vEwuUQAFUGCfAgC26gBXBGhVy30ANl009eDRMLmyt4ICnqYFnqZwveVz+b2vnmt2IwSwmRL9zwFsvvEGwNa/ZzkDCqBAPwoA2KrjAYCtH++RKgqgAAr0qgCArTrAVQG14va+AJuMoDco6kHvS6dOAdp6eLvqFMDV2MtoYE0+1zMI+54AbH0r/GH6ADbfeANg+9BbfEMBFIhLAQBbdTwAsMXlaXKLAiiAArkCALbqAFcEaFXLfQI2s62BNvXwEWy7cP58DtwEJ/igQUwe2NzYyP179vTpfBh0/ubcrS2zeu9zAFvvEu+dAMDmG28AbHvW4gsKoEBkCgDYquMBgC0yU5NdFEABFJACALbqAFcF1IrbhwBsoXs1hG5zczNbWVnhgwbReWB1dTV/xmDfQ0HDOhN+F6R49dVXB/+8rx6YE5sAbL7xBsA2sQpEcVEgIQUAbNXxAMCWkOEpCgqgwHQUALBVB7giQKtaHhqwTcetlBQFUCBmBQBsvvEGwBZzbSDvKDBtBQBs1fEAwDbtOkLpUQAFIlUAwFYd4KqAWnE7gC3SykC2UQAFelUAwOYbbwBsvdqVxFEABXpUAMBWHQ8AbD0akKRRAAVQoC8FAGzVAa4I0KqWAWx9uZV0UQAFYlYAwOYbbwBsMdcG8o4C01YAwFYdDwBs064jlB4FUCBSBQBs1QGuCqgVtwPYIq0MZBsFUKBXBQBsvvEGwNarXUkcBVCgRwUAbNXxAMDWowFJGgVQAAX6UgDAVh3gigCtahnA1pdbSRcFUCBmBQBsvvEGwBZzbSDvKDBtBQBs1fEAwDbtOkLpUQAFIlUAwFYd4KqAWnE7gC3SykC2UQAFelUAwOYbbwBsvdqVxFEABXpUAMBWHQ8AbD0akKRRAAVQoC8FAGzVAa4I0KqWAWx9uZV0UQAFYlYAwOYbbwBsMdcG8o4C01YAwFYdDwBs064jlB4FUCBSBQBs1QGuCqgVtwPYIq0MZBsFUKBXBQBsvvEGwNarXUkcBVCgRwUAbNXxAMDWowFJGgVQAAX6UgDAVh3gigCtahnA1pdbSRcFUCBmBQBsvvEGwBZzbaif983NzWxlZaX0gIsXL2b6LHJS/s6ePbvILHDuCBUAsFXHAwBbhMYmyyiAAigAYKsOcFVArbgdwEa9QgEUQIGDCgDYfOMNgO2gx1Jcs7S0lB06dKgUsglSeIIKgbJZMM+01fkE1WwS4Dt27Fh29epVW8UcBSoV8PRteLLr169nxf/LY10GsIVXlu8ogAIoEIkCADbfBo+COIAtEvOTTRRAgUEVALD5xhsA26D2XdjJDLAJsl25cmVfPrwBm9LT+eZNysf6+vq8XdiGApUKANiq4wGArdJG7IACKIAC41MAwFYd4Jr+8gVgG5/PyREKoMDiFQCw+cYbANviPT1EDgS8jhw5kvcSK0KJMsB24cKFfF8do2MNym1vb+e93ba2tvayrX1PnjyZaZ3Suvnmm/Nz6bsdZzsLqmm9AJt6rOk4TU8++eS+XnQ6p9JVbzjLt5aVno6xdUVIV7Xd8sE8DQXkpT4merDt+AaaqkbQ7u5uH9eRNFEABVAgWgUAbP5xCMAWbXUg4yiAAj0qAGDzjTcAth7NOqKkDbAJkAluCVbZJEgRggoN7xQkW11dzaGZAS0bvhnuL6Cl9LSvtguyCZxpnxDC2bm0v9brGMEz5UeThohqnU2HDx/O87C8vJzvr/xru/JVXGfnUdoCb8qvhp8qTe0fltXSZ56GAqFvPUsEYAOwefqJtFAABVCgsQIANt8GD0NEG1uQA1AABSaiAIDNN94A2KZRcQywqbQG0ASkNIXATJBMICt86YGts95iOs7AlcG0UEWlp/PNm3QOS0/7lQG2Yho6Z3FdmI71dgvPq3V9QZjwPHxfjAJ9XVsAG4BtMY7mrCiAAihwQwEAm2+DB8BG1UIBFECBcgUAbL7xBsBW7rPU1oaATcBMPb0MTmhu3613mfYXiLOP4Ja+26Qea9ajzECdbVNaRRBm22wegjGtKwNs4fm0j3q1FdcpHVun8wr4adk+6s2mfZjSVMB86106ABuAzdtTpIcCKIACjRQAsPk2eABsjezHziiAAhNSAMDmG28AbNOoPCFgU4kNpGn4pCCFgQpbLzClY8JP+NZPQTWBKwGt4qS0FgHYBOAEDsM82/diHllOQwHzrXdpAGwANm9PkR4KoAAKNFIAwObb4AGwNbIfO6MACkxIAQCbb7wBsE2j8gg0CT6Fk4ZPqmdaOMzTntFmzzUL9w+/C2wIwtlQ0eK2RQA25acv4BKWj+/jUaCv6w1gA7CNx+XkBAVQYJIKANh8GzwAtklWIwqNAihQQwEAm2+8AbDVMF0Cu5QBNhsqqp5oIaiwFwWExRaMs6Gg6vWmY7SsoaKCbLZNxyitRQA2G2ZqL05QXvTdhpCG5eF7GgqEvvUsEYANwObpJ9JCARRAgcYKANh8GzwAtsYW5AAUQIGJKABg8403ALZpVJwywKaS25DQEFQISgmyGWizXm6CaPpoWW/ytEnHhscLaBm0C8Gb7a+59rf0tWxwzPYpe95a2TqdJwRoAoF2bp1D3wUBmdJUIPSdZwkBbAA2Tz+RFgqgAAo0VgDA5tvgAbA1tiAHoAAKTEQBAJtvvAGwTaPiCJqFPbvCUguyFbcJjOmZa4JT4XBRrQ+XlU7ZOgEzHatecmWTjtF2e65bMQ2dQ+vCqck6pa08zDp/mC7f41UAwFYdDw6pUTH2z+7ubrwuJOcogAIo0IMCADb/2KVGJBMKoAAKoMB+BQBsvvEGwLbfXyyhAArEowCArToeANji8TM5RQEUQIE9BQBs1QGu6Y9HALY9e/EFBVAABfYUALD5xhsA2561+IICKBCZAgC26ngAYIvM1GQXBVAABaQAgK06wAHYqCsogAIo0F0BAJtvvAGwdfckKaAACixGAQBbdTwAsC3Gm5wVBVAABTopAGCrDnAAtk4W42AUQAEUyBUAsPnGGwAbFQsFUCBWBQBs1fEAwBaru8k3CqDApBUAsFUHOADbpKsIhUcBFHBSAMDmG28AbE7GJBkUQIHBFQCwVccDANvgtuSEKIACKNBdAQBbdYADsHX3GSmgAAqgAIDNN94A2KhTKIACsSoAYKuOBwC2WN1NvlEABSatAICtOsAB2CZdRSg8CqCAkwIANt94A2BzMibJoAAKDK4AgK06HgDYBrclJ0QBFECB7goA2KoDHICtu89IAQVQAAUAbL7xBsBGnUIBFIhVAQBbdTwAsMXqbvKNAigwaQUAbNUBDsA26SpC4VEABZwUALD5xhsAm5MxSQYFUGBwBQBs1fEAwDa4LTkhCqAACnRXAMBWHeAAbN19RgoogAIoAGDzjTcANuoUCqBArAoA2KrjAYAtVneTbxRAgUkrAGCrDnAAtklXEQqPAijgpACAzTfeANicjEkyKIACgysAYKuOBwC2wW3JCVEABVCguwIAtuoAB2Dr7jNSQAEUQAEAm2+8AbBRp1AABWJVAMBWHQ8AbLG6m3yjAApMWgEAW3WAA7BNuopQeBRAAScFAGy+8QbA5mRMkkEBFBhcAQBbdTwAsA1uS06IAiiAAt0VALBVBzgAW3efkQIKoAAKANh84w2AjTqFAigQqwIAtup4AGCL1d3kGwVQYNIKANiqAxyAbdJVhMKjAAo4KQBg8403ADYnY5IMCqDA4AoA2KrjAYBtcFtyQhRAARTorgCArTrAAdi6+4wUUAAFUADA5htvAGzUKRRAgVgVALBVxwMAW6zuJt8ogAKTVgDAVh3gAGyTriIUHgVQwEkBAJtvvAGwORmTZFAABQZXAMBWHQ8AbIPbkhOiAAqgQHcFAGzVAQ7A1t1npIACKIACADbfeOMJ2I4ePYpBUQAFUGAQBa5cuZKdPHmyl3Ndv349a/p/+1j3B7D1YhESRQEUQIF+FQCw+TZ4FKTViGRCARRAARTYrwCAzTfeeAK2s2fPZltbW/svGEsogAIo0IMCFy9ezPTpYwKw7fgGmir6uLu728d1JE0UQAEUiFYBAJt/HAKwRVsdyDgKoECPCgDYfOONJ2ATXOurR0mPliJpFECBCBXQ8FD1YutjArAB2PrwFWmiAAqgQG0FAGy+DR56sNW2HjuiAApMTAEAm2+88QRssqJ6sV24cGFirqS4KIACQyqwsrLSW+81lQPABmAb0s+cCwVQAAUOKABg823wANgOWIwVKIACKJArAGDzjTfegE0X6ROf+ESmBjATCqAACngqcPXq1RziLy8veyZ7IC0AG4DtgClYgQIogAJDKgBg823wANiGdC/nQgEUiEkBAJtvvOkDsMlPagAfOXLdGcWSAAAgAElEQVQkW19fz7a3t/OhXBrOxQcN8AAeaOoB3UME7XVP2dzc7D1kAdgAbL2bjBOgAAqgwDwFAGy+DR4A2zy3sQ0FUGDKCgDYfONNX4BNHlUjWg8h17BRPS+JDxrgATzQ1ANLS0v5PURgTT3YhpgAbAC2IXzGOVAABVBgpgIANt8GD4BtptXYgAIoMHEFAGy+8aZPwDZxq1J8FECBSBUAsAHYIrUu2UYBFEhFAQCbb4MHwJZKzaAcKIAC3goA2HzjDYDN26GkhwIoELsCADYAW+weJv8ogAKRKwBg823wANgirxBkHwVQoDcFAGy+8QbA1ptVSRgFUCBSBQBsALZIrUu2UQAFUlEAwObb4AGwpVIzKAcKoIC3AgA233gDYPN2KOmhAArErgCADcAWu4fJPwqgQOQKANh8GzwAtsgrBNlHARToTQEAm2+8AbD1ZlUSRgEUiFQBABuALVLrkm0UQIFUFACw+TZ4AGyp1AzKgQIo4K0AgM033gDYvB1KeiiAArErAGADsMXuYfKPAigQuQIANt8GD4At8gpB9lEABXpTAMDmG28AbL1ZlYRRAAUiVQDABmCL1LpkGwVQIBUFAGy+DR4AWyo1g3KgAAp4KwBg8403ADZvh5IeCqBA7AoA2ABssXuY/KMACkSuAIDNt8EDYIu8QpB9FECB3hQAsPnGGwBbb1YlYRRAgUgVALAB2CK1LtlGARRIRQEAm2+DB8CWSs2gHCiAAt4KANh84w2AzduhpIcCKBC7AgA2AFvsHib/KIACkSsAYPNt8ADYIq8QZB8FUKA3BQBsvvEGwNabVUkYBVAgUgUAbAC2SK1LtlEABVJRAMDm2+ABsKVSMygHCqCAtwIANt94A2DzdijpoQAKxK4AgA3AFruHyT8KoEDkCgDYfBs8ALbIKwTZRwEU6E0BAJtvvAGw9WZVEkYBFIhUAQAbgC1S65JtFECBVBQAsPk2eABsqdQMyoECKOCtAIDNN94A2LwdSnoogAKxKwBgA7DF7mHyjwIoELkCADbfBg+ALfIKQfZRAAV6UwDA5htvAGy9WZWEUQAFIlUAwAZgi9S6ZBsFUCAVBQBsvg0eAFsqNYNyoAAKeCsAYPONNwA2b4eSHgqgQOwKANgAbLF7mPyjAApErgCAzbfBA2CLvEKQfRRAgd4UALD5xhsAW29WJWEUQIFIFQCwAdgitS7ZRgEUSEUBAJtvgwfAlkrNoBwogALeCgDYfOMNgM3boaSHAigQuwIANgBb7B4m/yiAApErAGDzbfAA2CKvEGQfBVCgNwUAbL7xBsDWm1VJGAVQIFIFAGwAtkitS7ZRAAVSUQDA5tvgAbClUjMoBwqggLcCADbfeANg83Yo6aEACsSuAIANwBa7h8k/CqBA5AoA2HwbPAC2yCsE2UcBFOhNAQCbb7wBsPVmVRJGARSIVAEAG4AtUuuSbRRAgVQUALD5NngAbKnUDMqBAijgrQCAzTfeANi8HUp6KIACsSsAYAOwxe5h8o8CKBC5AgA23wYPgC3yCkH2UQAFelMAwOYbbwBsvVmVhFEABSJVAMAGYIvUumQbBVAgFQUAbL4NHgBbKjWDcqBAfQWu/5//m73z3u+yN996Z+9z9bfvZdf+eTfTNqYPFACw+cYbABs1CwVQAAX2KwBgA7DtdwRLKIACKDCwAgA23wYPgG1gA3M6FFiQAgJnv/z1b7N/fPn17PKP/mnuR/u89sbb2b/87vqCcjuO0wLYfOONN2Db2trKlpaWsmPHjmXHjx/ngwZ4AA909oDuKbq3DDUB2ABsQ3mN86AACqBAqQIANt8GD4Ct1GasRIFkFBAkC6Ha59e+lt31qeXsP524Lfu3/+6W7F/963+Tf/7gDz+SHf9/Pppv+5uvfWsPwF35p99MFrQB2HzjjRdgu3LlSt6IXl5ezra3t5OpqxQEBVBg8QroniLIdvLkyUz3mr4nABuArW+PkT4KoAAKzFUAwObb4AGwzbUbG1EgagXUY0291bb+4SfZn/35J7Pf+72bskOHDtX6CLwt/8X9e6BNaU1tArD5xhsPwGZwDbA2tdpIeVFgWAXsXtM3ZAOwAdiGdTZnQwEUQIGCAgA23wYPgK1gMBZRIAEFNBzUeq391YWHGoG1IoALQdtLr7yZXb8+nWe0Adh8440HYDty5MggvUoSuA1QBBRAgY4KCOSrJ1ufE4ANwNanv0gbBVAABSoVALD5NngAbJWWYwcUiEoBDQn90Qu/ynue/cmf3l6rt1oRqpUtqwecesP99GevTQayAdh8401XwHbx4sVMw0KZUAAFUGAoBVZWVrLNzc3eTgdgA7D1Zi4SRgEUQIE6CgDYfBs8ALY6rmMfFIhHgZ+8+FoOwv7oxG1ucM2A2x99/LY8bfWOm8IEYPONN10Bm15k0PdwrSn4mjKiAArUV+Dq1av5Mx/rH9FsTwAbgK2ZY9gbBVAABZwVALD5NngAbM4GJTkUWKAC9sw1z55rBtdsrrTVk01vGU19ArD5xhsPwJa65ygfCqDA+BQQ3O9rArAB2PryFumiAAqgQC0FAGy+DR4AWy3bsRMKjF4BDQ0V+Fr5i/vde64ZXLO5nuumc+mcKU8ANt94A2BLubZQNhRIVwEAW71YcEiNirF/dnd303UqJUMBFECBFgoA2PxjlxqRTCiAAnEroGGbjzz2TKaXEhgI62uut5HqzaSpDxUFsPnGmy6Azd7oF3ctJfcogAIxKgBgqxcLAGwxups8owAKTF4BAFu9INfkByQA2+SrFQJEroD1XtOLCPqCasV0/+zP/0veiy3lt4oC2HzjDYAt8hsN2UeBiSoAYKsXCwBsE60gFBsFUCBuBQBs9YIcgC1un5N7FGiiwP/auZrDriF6rxlo07k0THTn179tktWo9gWw+cYbAFtU9iezKIACNxQAsNWLBQA2qgwKoAAKRKgAgK1ekAOwRWhusowCLRX46Yu/zj6/9rXBeq8ZZPub//GtpIeJAth84w2ArWUF5zAUQIGFKgBgqxcLAGwLtSknRwEUQIF2CgDY6gU5AFs7f3EUCsSogHqS3fWp5cEBm865/ZOdGCWrlWcAm2+8AbDVsh07oQAKjEwBAFu9WABgG5lxyQ4KoAAK1FEAwFYvyAHY6riJfVAgfgXefe93+VDNPzpx2+CA7U/+9D/n5979l/fjF7KkBAA233gDYCsxGatQAAVGrwCArV4sALCN3spkEAVQAAUOKgBgqxfkAGwHvcMaFEhRgWv/vJtDrj/4w4/MBGx/deGh7JFvPdPqM69n3H86cRuAbcf/ntzk/h3TvgC2FO9AlAkF0lcAwFYvzgHY0q8LlBAFUCBBBQBs9YJck0aXemkwoQAKxKmAAbbj//H/nQnY7vr0cvb5//a1Vh/1UrNnrhXnADb/+3GTe3ds+wLY4rzHkGsUmLoCALZ6sQ7ANvWaQvlRAAWiVADAVi/INWl4AdiirApkGgVyBf7lX95f+BDR69f/b5JXgyGivvEGwJZkNUmyUFevXs30YUIBKQBgqxcLAGxZll25ciXb3t7ONjc3s4sXL+59tLy1tcWNhXsKCqDA6BQAsNULcgC20VmXDKFAbwos6iUHy39xPy85YIhoVjfeANh6uwWQsLMCS0tLvUIV5+ySXM8KANjqtT0mCdgEzS5cuJDfMI4dO5bp5nH27NlsdXV1D64JtGlZ60+ePJnvK1PpOME4JhRAARRYpAIAtnpBrm6DR/vRg22RjubcKNBdgX98+fXs82tfmzmUszi002tZz3XTuVOd6MHmG28AbKnWlPTKBWBL75p2KRGArV4smAxgU/fWlZWVTEBN0Ey905p2edX+Os5uNuvr63nvty5G5VgUQAEUaKMAgK1ekAOwtXEXx6BAnArs/Pq3+TDR3/u9mwaDbP/2392Sn/PNt96JU7QauQaw+cYbAFsN07HLKBSwNu8oMkMmFq4AgK1eLEgesBlYUy+0NlBtnpPVy+3IkSM5cNMwUyYUQAEUGEoBAFu9IAdgG8qRnAcFFq/A9ev/J4ddf/bn/2UwwKbhoRqaqmfApToB2HzjDYAt1ZrSvFwaFSVoofakOoGoM0g4adRVuF0jqWxSG1fbivsUR1qpvWppaK72cDhpOdweHg9gC5Xiu3zS13T9+vXaw+yb/G+/iH2TBmy6SQms6cbT52Q3ruJNsc9zkjYKoMC0FQCw+TZ4FIAZIjrtOkXp01BAQzW3/uEn2b/61/+md8imcwiuXfmnt9IQb0YpAGy+8QbANsNoE1utzhk333xzdubMmbytqvaklq09KdClYey2XY8u0rJGUGnS8VoWmNOxau/qu9KwSeu1z/Lycr5dcy1b27hsu463jiMANlOSuRQAsNWLBUkCNt0UZADdiIacdD7d2OymNOS5ORcKoMC0FACw1QtyTX65ArBNqw5R2jQVsLeJ/tWFh/KGpBqTfX30vLcf/Hgn6d5rcgmAzTfeANjSvPc0LZUeWaSea+GkHmoGyATBwh5r2k/tTEEvTQbYDJZp3cMPP5zf76wtaiOt8gNu/FEb2dIo23748OE9yAdgC5XjO4CtXixIDrCJ6uvi241l6Kqg8+rmV+x+O3Q+OB8KoEDaCgDY6gU5AFva9YDSoUCZAq+98XbvQ0U1DFW913795ttlWUhqHYDNN94A2JKqHq0LE4KuWYloGKggm0CXPiEQKwNsgm36QUHbdGzYW614DtuudNVrzj5qx2oEmCYAW1G1aS8D2OrFgqQAm24Mn/jEJxq/vMC7quiGpRuTdfH1Tr9NesqTbrYCf+oObDdR5h8GFLRY2etiHj5/oY3fOKZ/BQBs9YIcgK1/L3IGFBijAhq2KQD2J3/6n917sBlc+1+/vDrGorvnCcDmG28AbO4WjTLBKsCmdpt6s6lNqbabPk0AWxmAC4Wy7UrfAJ7NNZRUE4AtVIzvALZ6sSAZwCY4YjeDsdhfXX+Vr0VMAmq6Eec3xltvzY4dPZotnTqVrZ4/n11cW8s2NzayrUuX+KDBPg/IGyv33JN75fitt2b6yEMCs/IU03gUALDVC3IAtvF4lpygwJAK6IUHP/3Zr917st31qeU8zdSfuxZeKwCbb7wBsIXumu53ga0isND/2jbks2x7COUMkNn+UjLswaZlATp7ZpspreP0Q7rOpR5uxe22n+YAtlANvhf96qkILznY8Q00VQ2g3d3duddPXWf1AMgxTupRVxw/31c+daPUufIb8q235jBt+/LlLHv/fT5o0NoD8pDAbA7cjh/PAzGwra9aXD9dAJt/HFIjkgkFUCAtBdTLTD3ZHvnWM51efPAH/+Ej2d/8j2/laU2l55o5AcDmG28AbOasac/VESJ8oYDUENDSEE37rh5rNgmMNenBpuMERJSe/d+uudKw55Rru5aVtk1qS9pIFgCbqcJcCgDY6sWC6Huw6QbQ58X2qE7Kn92oPNIrpqFfK3QDPHniRA5Crr7xRmuYAowDRs7zwJWXXsp7QOY9IpeW9gXkoi9Z7lcBAFu9IFf1A064HcDWr2dJHQUWpcCbb72T/X/P/yqHYyt/cX/2B3/4kdrDRgXW9DIDQTq90ODqb99bVDEWdl4Am2+8AbAtzMqjO7FGO6kXmdqKAmEh7FLbUQBO67RN37WftXvr9GAzKKc0dJylYcCtuL2YBwDb6Cyz0AyZ9/rIBD3YRtKDTTcFXWjNxzxZPu1m5pVXg4vqWaThnvPACNsAZ94ekOc07FjBd+x10KvOjSkdAJtvg0egDcA2JoeTFxTwVUBvF9WwTkEy69Em2KZntB3/jx/NoZvAm75rnbZt/cNP9sDazmu/zTTsdIoTgM033gDYpliLZpdZHSXsGWvFtqL+v7bnZ2ublm1IqJb1PTzG1hXPZmnYsbO2Kx9hempr9tlJpJgPlsetAICtXiyIugebGvazbhRjs6fyqV8pPCbd+JQWYA1o5g3N2qSnXm3yop43GAZlD6+TxmwFAGz1glzYQ63qO4Bttt/YggKpKCBIph5tL73y5h5sE3ArfgTitI/2nSpYs2sOYPONNwA2cxZzFECBmBQAsNWLBdECNgErAbaYJj0brSsQ1PEankePNeBaGxjW5zF6QUIOfbe2YqqW0eYVwFYvyFVBtXA7gC3a6kDGUaC1AoJn1/55d+/zznu/y3Z/937r9FI8EMDmG28AbCnWEsqEAukrAGCrFwuiBWzhGPVY7KxuvYJsbSbrtXbm9OmMZ6wB1/oEZV3SVm82DRtd1Ntz29StWI8BsNULciFAq/oOYIu1NpBvFECBPhUAsPnGGwBbn24lbRRAgb4UALDViwVRArYYe6+Z0TW0s2kvNoE59QxSD6Eu8INjAXNDeUBvHdWDUuVdpn4UALDVC3JVUC3cDmDrx6ukigIoELcCADbfeANgi7s+kHsUmKoCALZ6sSBKwKZeYLE23HNYdvx47XppcG378mXg2vsAsqEAmcd55FmB4Vjrau1KuqAdAWz1glwI0Kq+A9gWZGZOiwIoMGoFAGy+8QbANmq7kzkUQIEZCgDY6sWC6ABbU0A1wx8LXS1z1nkYvN7aouetadidB/AgDQDd0B6wFyAA2fxvOQC2ekGuCqqF2wFs/j4lRRRAgfgVALD5xhsAW/x1ghKgwBQVALDViwXRATZ7jXHMpr5w4UKmz7xJQAK4BhAbGoj1cT4g27ya3n4bgK1ekAsBWtV3AFt7P3IkCqBAugoA2HzjDYAt3bpCyVAgZQUAbPViQXSALebhoVbhBM/mvQE176WnoXX0XKPnXiLDYoFsVvv95gC2ekGuCqqF2wFsfv4kJRRAgXQUALD5xhsAWzp1g5KgwJQUALDViwXRAbY+L+yQFeTo0aOlp9PQ0fy5VcA14FoicM16xeXPZKs5PLq0crBynwIAtnpBLgRoVd8BbPssxgIKoAAK5AoA2HzjDYCNioUCKBCjAn1ymOvXr2dV/6fHsj0qwCb4pB5sKUwqR9lz2NSzbXNjA7iUGFwyyDT1ud6EqzfpMnVXAMDm2+BR0AawdfclKaAACqSnAIDNN94A2NKrI5QIBaagAICtXiyICrBtbW1lKysrSfhXkEEvMQgnPZdt+Z57gGvAtaQ9cPb06Wx9fT20Pt9bKABgqxfkmvzaBWBrYUQOQQEUSF4BAJtvvAGwJV9lKCAKJKkAgK1eLIgKsOkFB1UvB4jFzSpHCBnspQZT7+FE+dN/scPVN97IX+BR1oMzlvo7hnwC2OoFOQDbGNxKHlAABWJWAMDmG28AbDHXBvKOAtNVAMBWLxZEB9hCKBWzvQULw7LkL2/guWtJ99wCHn4ID7cuXUpmuPei7kMAtnpBDsC2KIdyXhRAgVQUALD5xhsAWyo1g3KgwLQUALDViwUAtgXVixCw6fuZ06eBSwwNnZQHlk6dyjTsm6mdAgC2ekEOwNbOXxyFAiiAAqYAgM033gDYzFnMUQAFYlIAwFYvFgDYFuTqELDx1tAPezbRy2s6Wlx56SV6sXW4/wDY6gU5AFsHk3EoCqAACmRZ/gKYJvdS9p0fnwBsVCsUQIEYFQCwzb+3W+yLDrCl8gw2vaxhc3MzE2jjxQbTgUoAxP3XeuWee+jF1jLCAtjqBTkLdnXm6qXBhAIogAIosF8BerD5xhsA235/sYQCKBCHAgC2erEgKsCmt27q7ZspTCqHhsfRe20/cAFATUsPvfCgj5v1e+++m731m98s9KM89DkB2OoFuTpgzfYBsPXpWNJGARSIVQEAm2+8AbDFWhPINwpMW4E+2mym6PXr1zP7fzz2eVSATW8d1MsAUphkUPVg03OogErTgkpc7/3X++THP965F5tg1t8/+WT2xYceylbvuy9bf/DB7Ktf+cpCP8rD5/76r7PPPfBAnjcBP88JwObb4FEwB7B5OrR5WlfffDN75YUX+Ixcg52f/zx759q15heYI6JVAMDmG28AbNFWBTKOApNWAMBWLxZEBdjk6KNHjyZhbBl0aWkp03OoAC77gQt6TEsPvVG0bc/Ul158MQdYAlnPPf109p4afSN7WYby9OPt7eyrX/5yntfnnn3W5R4GYKsX5Jr8CgZgc7Fm40R2Xn45u/S3f5ttfPazfCLS4O82NwFtjd0e5wEANt94A2CLsx6QaxSYugIAtnqxIDrAlkOpK1ei9reGuqon3jHBwpHBAPIzLbg1lut95MiRRnVaPdYe+frX8x5iL7/wQjT16K3XXtsDbV17tAHY6gU5AFujqjX4zj986imgWkRQrQyC/vT73x/cN5xwWAUAbL7xBsA2rH85GwqggI8CALZ6sSA6wKaXAugFATFPelGDQOGF8+ejAQNjATHkI00AePb06drDRHd+8YvowFrRtwJtF+67L3vqySdb38oAbPWCHICttcV6P1BgpgzYsC6+nnyvPP98737hBItTAMDmG2+6ADa5oM9G7uJcxplRAAXGrkCf9x6ewbbjG2iqGkC7u7t7fkvhOWzHjh3LAdv25csANnrw4YH338/qDhO9/OyzOZgSoCpCqxiXH9nYyB5/7LG9+1uTLwA2/zjEENEmDuy2r563BkiLD6TNumbfeOih7HfB/2rd3MHRY1MAwOYbb7oCtlQelzM2n5MfFECB+QoA2OrFguh6sOmy2xs451tgnFv15lD1XtPbQ2MEAuT5wx5kb73+OtfQEZDmdWJOtf3xj36Uw7UxPmetS7349je/2QqyAdjqBbmqH3DC7QC2ORXQedPTjz4KYIt8aGgRtv2EoaLOtWQ8yQHYfONNV8AWcztoPK4mJyiAAk0UMIbR5Jgm+9KDbYE92HShdIH7JKhNzNB0X8E15f/kiRPAGUc40wVwtDlWPag+deZMNu/5X88980z21BNPcJ1rXmcBNvVQLZv0vDINqUwNrpn31JOt6XBRAJtvg0egDcBWVvv6WVeEMyzH35tNLz1gSlMBAJtvvOkK2K5cuRJtOyjNGkKpUCB9BTQCT/eeviYA24IBmy6sAJtAVUyTTCnA9vDDD0/y+WsvvfBC9tWvfCVK4FSEZXUA23efeCJ/VphBFOYf9v4r00LPYdMLQMomvSU0lWGhZWV/99q13CtNXnwAYPNt8ADYympeP+veuXaN3muJ9V4TIH30S1/qxzCkunAFAGy+8aYrYJMhVldXo38m9cKNTQZQAAVqKaDn3y8vL9fat+1OALYRADbBKr2JM6ZJb0pUvmVSPXOqrKGd8rrnnn467/UVYxm/+uUv74NldQBbjOVcZJ4vrq1l6+vrB6r0tx97LLv8zDPJ15edV1/NPvfAAwfKP2sFgM23wQNgm+U0//Wv7+wA2BIEbIJsTGkqAGDzjTcegE1OU4NXw0X77FWSpqMpFQqgQB0FNLJI95i+4ZryAmAbAWDThRCo0hs5Y5hC8qtebGN7wYF6CP14ezv74oMPZn+5spLDpF+++uo+qKFnjmkom7bnb0AsGf74+De/mW/TdkEpe06Zeq7pOA2r1LnUI6wM5mh/27fsHO+9/Xamc1gewnMoPaX7DQ23e+KJvXxoWdvCvNm6MA/F7RqOaD2Lzn3609ny3Xfv6WKATeDH8qtyhZr9/RNP5Hmxc+Qa/+AHexqa5rZdc/Xy03rTT+l/8QtfKNUqPC6F76oTuomHk3p06VqnUL46ZVD9evnFF0MJZn4HsPk2eABsM63mvgHAFv9w0FlDet3NQoKjUADA5htvvACbzHHx4sV8VI/aFpubm/noHo3w4YMGeAAPtPWA7itqk6kzk9IYYgKwjQSw6WJrqOisYWVDmKHOOfTLksYt26Q8X33jjVFBA4EvQSSBKYG29QcfzIGSATLNBToMCgn8aFmAy8CBwTf1VNOzyVbvuy/fR6BKaWpfnUfbd155Ze84O17z4jnO3X13DsZsH4En7aM0lKa+62PP5hIk0zl0Lm3XA+S1rH3Wv/CFfeu0r6Ub5t3SFWwUYNO5Pvdf/2sOvfRdcM0AmzTTOXSMyisIZ3lRHqSXnUP50Mf2N41tf2kc5l15srxbGinPr7z0Uj6E2uqJ5o98/etR9V67cP58p96pOdCt2YsNwObb4AGwhTWv3+8ANgBbvw4jdW8FAGy+8cYTsNm1VlvIho3qR30+aIAH8EBbDwiwDc1XAGwjAmyCVwJWY+0eXZY/5XdsoEQgJ3wgvxr6gluCPMqrASiDQVoniKbj7EH/AkzhM9YEobSsufYXnNL+s8pu0OrHP/jB3j4CedbbTBBLx1t6SsfyaXkXNBPkCs8h0CXAFq4T+BJA0zorR9j7zNZZeYuwzPKq/Fm6doylUzxGeQ+hnqVh5S3Lp+lu50h9ntcN+28xy/YByhjKfvjw4Wzlnnv2PNEmz/Lme+++G6hQ/hXA5tvgAbCV+6yPtQA2AFsfviLN/hQAsPnGmz4AW39Xn5RRAAVQoH8FAGwjAmy63CKsea+wGW8g7N8S5WfQuGX1XCsS4FtvvbVTA7xNo73qGMGf4rDNEBCFQCpMSxDO4JYe6i+4peMMuoX7VgE27Ws90jS8Us+kCo8XbBLEC9fpe5g3AawiTAvLYceG63RMXv6nn84hoPKpMmmdlSPcX2kYHLPtZeuKx5RpHK5T2UIApzTLymNlSHEeAjYNlZSGMZXTA7Dl/nvyyfKbSrAWwObb4AGwBebq+SuADcDWs8VI3lkBAJtvvAGwORuU5FAABaJXAMA2MsAmRxlkG0tPNuu5VoRrymusgM16s4XAQzArhELq0aWhjxo6qU+4rQ5gE7hSGoJmgk9Kf1aPMMtHCLLKgFS4fdYxOpfOWfzMOncfgK2opfJaVh4rQ4rzELA99eSTmfXua1tWDTvVC0VmPfNQQ7W1vfjSEa3XsTqvjtV2Ww7zov1su9Z7ADb1yvziQw9VBkoAm2+DB8BWaTm3HQBsADY3M5HQIAoA2HzjDYBtENtyEhRAgYgUALCNELDJP2OBbIJrZT3XzOOxADaDTQIHGk6p5RAu6LvAlA2TtOe12RE9OMYAACAASURBVD7q0abtBqmqAJteYBCmIYglWGe91tSrrDj8U+dSvqynUxmQqgJss9K1cmheTKMPwKZyFiFmWXnCfKX2PQRsgkw2RLdNOZdOncoOHTqUHTl8OJ8fv/XWfc8+vHD//dnNN9+cb7e5PRtRbzTVcUpD2/RRWps3hkwrPwJu2se22/euQ0SVdl7X7IYxYw5g823wANhmGK2H1QA2AFsPtiLJHhUAsPnGGwBbj2YlaRRAgSgVALCNFLDJTdZzbH19fSHm0nkF1+b1pBsrYLNnnamBbw/cN3imuWBZCMDsBQKCTfYsNAEhgyECazrGhlFWATbbHp4jBEwGtSxPOo/euhmeI9zf8lGEY1ofrlPelUaYd3tbaZiGgT6ts7xY2crWhefQdp2jOAw3XCc9BRDD8uvFDOGQ1yKELC5bfmOdh4Bt9TOf2fNS0/I8vLGRAzHrdaa5QJjBLwE0ATPruWawrLh9OXiemgCdPpYXAbUQ2q2eP5+naWnYfm3mADbfxozgWZ2PGpFM/SsAYAOw9e8yzuCpAICtXgypE2e0D4DN052khQIokIICALaajZW6gaZqv93d3Ua+0bPP9GpZvbJ6HuhqlGjFzjqPXmV75syZTOefN+VvFH3//b2GepsGuPcxAj1/ee+9H/QG+8pX8uGdemNneB71rtJ+1ptN30PYZT3W8h5lN9LIQcGNsgpG6RitK4ImO48gloBSeI4QfBnUUxraR+mF29sANp27LO8CZJYvA4w6r8rRB2AT6FPZrfwaYmvLlg+tU7lt2fa15djnIWALvdO0XAbQDLDpeA3ltOWTH//4Plim7XoDqKCZvtvx4XkFzmy70goBne3nMURUacl7b/3mN/NuIxk92HwbPIpDALa5lnPbCGADsLmZiYQGUQDA5htvAGyD2JaToAAKRKQAgG3kgM28pCGjgll6RW1foE0wTekLrm1tbdmp5861rw1Fs4b5oucCVYJeelOnIJV6k5UNzxNc0nYNqyzbLvCkbdon7N1l5fvlK6/k23ZeeWUPEtk2m1selE5ZGnaOsu1KV8dbWpq//PzztdZZurPyLsimbdpPMEwa6budq7iueN7i/jqubJ2dx7QWRLNzqGyhdsVl2y/GueCXoLhNXQCb6pcNET129Gh29vTpPbgmbY79+3+f92gTMLOPDQPV9irAZj3kivUYwObbCKn68cV7O4DNal+/cwAbgK1fh5G6twIANt/YBmDzdijpoQAKxK4AgC0SwGZGu3jxYg7a1Hgve+mA7ddkLpimXnJNwJqln+fj8uU9aDIGGGKAbQx5mWoeNDRU0DAsv+Ba2JMu3Jbadw3XFKy2qQtgM20E7QTLTp44kfc4s2eoCYRpnc5Z/OjYuoDNesTZ+bwAm3opvvfuuyZF6ZwebL4NHnqwldqsl5UANgBbL8Yi0d4UALD5xhsAW29WJWEUQIFIFQCwRQbYzGeCYoJb6tUmOKblquGcdqz229zczI8Lj7ftTeYXLlzI1vWWwBENEwWwLX7I7s6rr+ZDQgWWvnpjiK0AW9hLbkye8c6LhmiqjtnU5RlseoHB+travjqmXmuCasp32RDRsDxVgE1grWyIaPictzC9pt9zuGhCzJgD2HwbPAC2GUbrYbUnYHv0S1/KnvvOd7K/29zMvvHQQ9nGZz+EV5f+9m/z9dpWtl3727ZwruPCdPRd63QuWz/rWEtH22ftU5a+0rVjba7j7XzhXOuffvTR/BPmyfbR8bOO1f6zzm/Hd5n3YBeSHIECADbfeANgG4GpyQIKoMCoFACwRQrYQhcJrtnQTj33SR/1RhOAs4+WBdP00ffV1dXaw0DDcxW/573fTp/e1/hv2gD33l9DH+1tn95pk159eCeYZkNE1ZutbBhuqnpqGKfqhk1f/e//fd8LH5qUWy8cEOwSZBMMUy81DQVdPncur3daFiBbOXcu3659zt555x6AqwJsyotecKA07dluOj5PM3gxQpM8h/t+7oEHTIaZcwCbb4MHwDbTau4bvADbK88/n/1udzdTevq8c+1aDqkMEGlZ2zXXR9POz3++B58E5jTZdptrH0tDc0EpTT/74Q/31gtw2f46RzEdQa666YfnsDQ11xTmV/spTZ3v6ptv5mXWPj/5/vf38qV9NOn8+l78SLNXXnjhwPrifm2X85PzJzkFAGy+8QbAllwVoUAogAIdFQCwJQDYyjygXmp6Vlv4Kduv6zqdx3rShI1qvtcHUWiVnlb5GzqDyvXUk0/OfBlGneuvN4Dac9U0P3P69L5nH2q4qACZoJg+Or8N+bRt4XkE7fI83uh5qn3VE86OV/rarv3C45p+F+gWXKyaAGy+DR4AW5Xj/LZ7ADZBJUGosAfXT7///Rw+We8tbReQMlikfbXOgJS2adm2z5rbuQS2yvYRzNJU3FY3fR1nEC8sj+XXwJ7tUyyT8iXgZ+dXXgBsfn4lpSx/AYzukXx8NACwUatQAAVQYL8CALaBg2zTt4juv1zjXDp69GinRnjTRjv7pwekUrqmellA+AZR1Vq9RdPjOWzFFxEUdavaXty/uNz1+GJ66rl4+dlnK29cADafhk7YYFQvDab+FfAAbEV4JrgksKb1BpfK9hGssvPXBWBKRwBLIMvSNpileV+ATWn/4Kmn9iCgep9Z3sPz52X6xS8AbP1bd7JnoAebb7wBsE22KlFwFECBGQoA2ABsM6xRf3X+DLhLl4BsI3oOXRF0sDwclNSQzfAFB1aT9KzCKQ2TledW77uv8gUH0gfA5tvgoQeb1br+52WQKARGVd+tJ9e3S56VFh5bBth++fOfZwJV2q8OYBM8UzraXz3ZXg9Alp2rT8AWQjWd23rf2bmtHGHvOl3BMhCofRki2r+/UzwDgM033gDYUqwllAkFUKCLAgA2AFsX/+TH5s+Ac3hWExBoOAiE1v1pvXTqVOkbftWTS88HnIr2L7/wQq3hobqJANh8GzwAts5hrXYCXoAtHE4ZAif7LjCmZ5gJShkcE4iy4wTYyibbvgekbgA5A3s2BNXOMw+wVaVvaVjaP3zqqRz8KW/KsyZ9134qTxlgK55fxwDYypRnXVsFAGy+8QbA1taJHIcCKJCqAgA2AJuLt48xTHQy4GQqgKhtOfNnm82oVRc+85nJ9GLTkFgNja0zAdh8GzwAtjqu89lnSMCmXl96qL9Am6YQnlX1YDPopf30XZ///eabByBXEXAZNKtK3/bT3M5lLy+QRsp3CMoAbD7+I5XmCgDYfOMNgK25BzkCBVAgbQUAbAA2F4czTLS/HlFtQQ/HDX9NHt7YyFQXZk0vv/hi9o2NjeRh7HPPPJM9/thjs2Q4sB7A5tvgAbAdsFhvK7oCNvUgKz7Y32CVhkBeujF0VEDKen9pe3GIZRUA0/aySena+TT3BGwCbWHa4fd8eGvJG0D1nDY9C9L2VZ5DMGfrNWeIaNkVZV2VAgA233gDYKtyHNtRAAWmpgCADcDm4nkNE9XQOKDO8FAHzcejud7EqTf3zpv0Vk0Nn0z1ur31+usfvNBhngiFbQA23wYPgK1gsB4XuwI2gSLBMn1CeGSgyyBVEbAVt1cBtiKQ07kM7oUAy9IN86LvVemH+1sPNst7uM2+6zzhEFettxc76A2qtp8uXZg/W685gK1HYyecNIDNN94A2BKuLBQNBVCglQIANgBbK+OUHaQ3J3q/hTBVCEG5xgPFvK7FlZdeypaWlsqqxr517777bqahogJRXuceSzrvvf12/mKDukNDTRgAm2+DB8Bmzup/7gHYBKIE0ASMBLL0bDLBpxA0FQGbAFMI5nScjtGx4Ufr5wEvpaE3dxq4mgfYytJXjzM71ubzzmf7aK7yqlzKr/Vc0/8Q4XPhdAW1X1gmO6fWa/9wm77PA3vh+au+9+8ezrAIBQBsvvEGwLYIF3NOFECBMSsAYAOwufmTlx2kB43GAm5iyId6cFb1XrPKJgCVP6MsIcgmuKYy7fziF1bM2nMAm2+DB8BW23qdd/QAbAI9gkKCQ3pWWfF5ZdouqGTDRQ0MaVnHCEjZ9yJsEmATNNPcjgvnOs6AldZbPsJ99H1W+uGxdozyY/mydbPmypeVWWmFcE3HFMujZTvn048+WrodwNbZ1kknAGDzjTcAtqSrC4VDARRooQCADcDWwjazDzl54kSmnjwxABHyCBD08kDd3mthzRFkU0+2H29vR19f1Btv9b77WsE1aQJg823wANjCmtbvdy/ANgtAsf6zpWBwCF36dQ6pL0oBAJtvvAGwLcrJnBcFUGCsCgDYAGyu3lQvNkE2L3BBOkCwGDyQg+WKZ6+VVTQNF9Uz2fTig1iHjD71xBPZ+oMP1n5jaJkOADbfBg+Arcxl/awDsC0OgPUN2fpxDKkuWgEAm2+8AbAt2tGcHwVQYGwKANgAbO6e5I2iQLEYoJhXHi+urWXLy8ud6tHlZ5/Nh1cKVsUA2jQcVG8KVa+1p558slPZdTCAzbfBA2DrbMnaCQDYAGy1zcKOo1AAwOYbbwBso7A1mUABFBiRAgA2AJu7Ha9evZodO3qUFx68D2jzglhjTUdDQ4/femsmz3tMOWh74IHsiw8+mAOsnVdfHU1vUIG/555+OntkYyMHa99+7LHsvXff9Sg2gK2HOKRGJFP/CgDYAGz9u4wzeCoAYAOwefqJtFAABVCgqACArYeGjXoPzPrs7u4Wr0GSyxoqqoe+jxWMkC/gn4cHNDR0W89Qc570fDbBtke+/vXscw88kPdu0wsEFvVZ/cxn8qGs6q3W5iUGVfLQg212zJgVS6rWA9iqXOezHcAGYPNxEqkMpQCAzTfe0INtKOdyHhRAgVgUALDNgWFVDZg226cC2FQBNFT0wv33A9noyZakB1bOnes8NDSWQNF3PgFsvg0exSYAW9+u/SB9ABuAbRincRYvBQBsvvEGwOblTNJBARRIRQEAG4CtVy8fP34827p0KUnA4tEDijTi7Em3vraWnTx5ste6M6XEAWy+DR4A23C1B8AGYBvObZzJQwEAm2+8AbB5uJI0UAAFUlIAwAZg69XP+fPYjh3Lti9fBrLRky0JD8jLns9d67UCRpI4gM23wQNgG874ADYA23Bu40weCgDYfOMNgM3DlaSBAiiQkgIANgBb736+cuVKDiT0QHh6bMXZY4vr9sF1E1zTCzzkaSY/BQBsvg0eAJufN6tSeufatWzjs+lCpqmW7RsPPVR16dkeqQIANt94A2CLtCKQbRRAgd4UALAB2HozV5iwQTZ6sgHYYoV1GuoMXAtrtd93AJtvgwfA5ufNqpR+t7sLYEsQMP7d5mbVpWd7pAoA2HzjDYAt0opAtlEABXpTAMAGYOvNXMWEc8h2/DgvPmCoaHQ9GfWyDj1PUEOemfwVALD5NngAbP4enZeiYMxUe3qlWu6ffP/78y452yJWAMDmG28AbBFXBrKOAijQiwIANgBbL8aalagAhd4uqjcwxtqTiXxPpxfe1TfeyM7eeWd25syZWZZmvYMCADbfBg+AzcGUDZJ4/Re/ALAl1ItNw0M19JcpTQUAbL7xBsCWZj2hVCiAAu0VALAB2Nq7p8ORq6ur2ZHDhzOeyzYdWBUbmLSXGcirTP0qAGDzbfAA2Pr1a1nqz33nO0C2RCDbz374w7JLzLpEFACw+cYbAFsiFYNioAAKuCkAYAOwuZmpaUIaMnrkyBF6szFkdFS9GdVrTT0sNSSUlxk0rdXt9gew+TZ4AGztfNjlKD2L7elHHwWyRQ7ZGBrapRbEcSyAzTfeANji8D25RAEUGE4BABuAbTi3zTjTxYsX87eMrq+tjQq0xNbjivx27w14cW0tf5GBPMk0nAIANt8GD4BtOO8WzyRA8+iXvgRoiwy06ZppqC9T+goA2HzjDYAt/TpDCVEABZopAGADsDVzTE97q6fQ8vIyoI3ebINDVvVYu3D+fA7W5EFeZNBTJZ+TLIDNt8EDYJtjtoE27fz855lgG59xa/DiD38IWBuoTozlNAA233gDYBuLs8kHCqDAWBQAsAHYxuLFPB8CbdajbenUqUzPwaJnVveeWWh4UMOtS5eys6dP51BXz1kDrC3uVgBg823wANgW52XOjAIoMG4FAGy+8QbANm6/kzsUQIHhFQCwAdiGd13NM25tbWVLS0s5ABFs29zY4KUI9HBrDVz1Qg0NAZWX9IINvc1WHmNavAIANt8GD4Bt8Z4mByiAAuNUAMDmG28AbOP0OblCARRYnAIANgDb4tzX4Mzb29uZehmdPHkyf/j88VtvzU6eOJGt3HNP/hE44YMG5gH5Qr3TBNOOHT2afwRr5SFeXNCg4g20K4DNt8EDYBvIuJwGBVAgOgUAbL7xBsAWXRUgwyiAAj0rAGADsPVssf6SFyhRDyR9NKyUDxqYBzY3NzNBWWBaf/XPM2UAm2+DB8Dm6U7SQgEUSEkBAJtvvAGwpVQ7KAsKoICHAgA2AJuHj0gDBVAABVorAGDzbfAA2FpbkQNRAAUSVwDA5htvAGyJVxiKhwIo0FgBABuArbFpOAAFUAAFPBUAsPk2eABsnu4kLRRAgZQUALD5xhsAW0q1g7KgAAp4KABgA7B5+Ig0UAAFUKC1AgA23wYPgK21FTkQBVAgcQUAbL7xBsCWeIWheCiAAo0VALAB2BqbhgNQAAVQwFMBAJtvgwfA5ulO0kIBFEhJAQCbb7wBsKVUOygLCqCAhwIANgCbh49IAwVQAAVaKwBg823wANhaW5EDUQAFElcAwOYbbwBsiVcYiocCKNBYAQAbgK2xaTgABVAABTwVALD5NngAbJ7uJC0UQIGUFACw+cYbAFtKtYOyoAAKeCgAYAOwefiINFAABVCgtQIANt8GD4CttRU5EAVQIHEFAGy+8QbAlniFoXgogAKNFQCwAdgam4YDUAAFUMBTAQCbb4MHwObpTtJCARRISQEAm2+8AbClVDsoCwqggIcCADYAm4ePSAMFUAAFWisAYPNt8ADYWluRA1EABRJXAMDmG28AbIlXGIqHAijQWAEAG4CtsWk4AAVQAAU8FQCw+TZ4AGye7iQtFECBlBQAsPnGGwBbSrWDsqAACngoAGADsHn4iDRQAAVQoLUCADbfBg+ArbUVORAFUCBxBQBsvvEGwJZ4haF4KIACjRUAsAHYGpuGA1AABVDAUwEAm2+DB8Dm6U7SQgEUSEkBAJtvvAGwpVQ7KAsKoICHAgA2AJuHj0gDBVAABVorAGDzbfAA2FpbkQNRAAUSVwDA5htvAGyJVxiKhwIo0FgBABuArbFpOAAFUAAFPBUAsPk2eABsnu4kLRRAgZQUALD5xhsAW0q1g7KgAAp4KABgA7B5+Ig0UAAFUKC1AgA23wYPgK21FTkQBVAgcQUAbL7xBsCWeIWheCiAAo0VALAB2BqbhgNQAAVQwFMBAJtvgwfA5ulO0kIBFEhJAQCbb7wBsKVUOygLCqCAhwIANgCbh49IAwVQAAVaKwBg823wANhaW5EDUQAFElcAwOYbbwBsiVcYiocCKNBYAQAbgK2xaTgABVAABTwVALD5NngAbJ7uJC0UQIGUFACw+cYbAFtKtYOyoAAKeCgAYAOwefiINFAABVCgtQIANt8GD4CttRU5EAVQIHEFAGy+8QbAlniFoXgogAKNFQCwAdgam4YDUAAFUMBTAQCbb4MHwObpTtJCARRISQEAm2+8AbClVDsoCwqggIcCADYAm4ePSAMFUAAFWisAYPNt8ADYWluRA1EABRJXAMDmG28AbIlXGIqHAijQWAEAG4CtsWk4AAVQAAU8FQCw+TZ4AGye7iQtFECBlBQAsPnGGwBbSrWDsqAACngoAGADsHn4iDRQAAVQoLUCADbfBg+ArbUVORAFUCBxBQBsvvEGwJZ4haF4KIACjRUAsA0M2NTw4YMGeAAP4AE80KcH1IhkQgEUQAEU2K8AgI3Y22fsJW38hQfwQEoeOJRSYSgLlRMP4AE8gAfaegDAtr9RzRIKoAAKSAEAG3G1bVzlOLyDB/DA1DwAYKN3HL0D8QAewAN4YGcnb0TSnEYBFEABFNivAICNBvLUGsiUF8/jATzQ1gMANhrWNKzxAB7AA3gAwLa/Rc0SCqAACtxQAMBGQ7NtQ5Pj8A4ewANT8wCAjYY1DWs8gAfwAB4AsAETUAAFUKBUAQAbDeSpNZApL57HA3igrQcAbDSsaVjjATyAB/AAgK20Yc1KFEABFACw0dBs29DkOLyDB/DA1DwAYKNhTcMaD+ABPIAHAGxQBBRAARQoVQDARgN5ag1kyovn8QAeaOsBABsNaxrWeAAP4AE8AGArbVizEgVQAAUAbDQ02zY0OQ7v4AE8MDUPANhoWNOwxgN4AA/gAQAbFAEFUAAFShUAsNFAnloDmfLieTyAB9p6AMBGw5qGNR7AA3gADwDYShvWrEQBFEABABsNzbYNTY7DO3gAD0zNAwA2GtY0rPEAHsADeGBnJ/vVr36VvfPOO3zQAA/gATwQeED3xqk1kCgvUAAP4AE8gAfaeADARsOaf5rwAB7AA3gAD+ABPIAH8AAewAN4AA/gATyABzp4AMDWQbw2RJNjIOF4AA/gATyAB/AAHsADeAAP4AE8gAfwAB5IywMANgAbhBoP4AE8gAfwAB7AA3gAD+ABPIAH8AAewAN4oIMHAGwdxIM2p0WbuZ5cTzyAB/AAHsADeAAP4AE8gAfwAB7AA3igjQcAbAA2CDUewAN4AA/gATyAB/AAHsADeAAP4AE8gAfwQAcPANg6iNeGaHIMJBwP4AE8gAfwAB7AA3gAD+ABPIAH8AAewANpeQDABmCDUOMBPIAH8AAewAN4AA/gATyAB/AAHsADeAAPdPAAgK2DeNDmtGgz15PriQfwAB7AA3gAD+ABPIAH8AAewAN4AA+08QCADcAGocYDeAAP4AE8gAfwAB7AA3gAD+ABPIAH8AAe6OABAFsH8doQTY6BhOMBPIAH8AAewAN4AA/gATyAB/AAHsADeCAtDwDYAGwQajyAB/AAHsADeAAP4AE8gAfwAB7AA3gAD+CBDh4AsHUQD9qcFm3menI98QAewAN4AA/gATyAB/AAHsADeAAP4IE2HgCwAdgg1HgAD+ABPIAH8AAewAN4AA/gATyAB/AAHsADHTwAYOsgXhuiyTGQcDyAB/AAHsADeAAP4AE8gAfwAB7AA3gAD6TlAQAbgA1CjQfwAB7AA3gAD+ABPIAH8AAewAN4AA/gATzQwQMAtg7iQZvTos1cT64nHsADeAAP4AE8gAfwAB7AA3gAD+ABPNDGAwA2ABuEGg/gATyAB/AAHsADeAAP4AE8gAcm6IHnn38++8hHPjLI5/HHH8djE/RYG1AV6zEANgzOTQ4P4AE8gAfwAB7AA3gAD+ABPIAHJuiB733ve9mhQ4cG+WxsbOCxCXosVljWJt8ANgzOTQ4P4AE8gAfwAB7AA3gAD+ABPIAHJugBABtDIduAJI4p9w2AbYI3USpDeWVAF3TBA3gAD+ABPIAH8AAewAN4YEoeGBKw6VxT0payTu9eAmADsHGTwwN4AA/gATyAB+Z4QM+nUaNAz47h+THT+2eZBhLXHA/ggZQ9oBi3urrq+vnkJz95YMjpH//xH/O/xpz/NVL22JTKBmDD5Nzo8AAewAN4AA/ggRseUENjbW0tu+OOO7Jbbrklu+mmm/Y1Emgg0NCeUkOBsuJ3PIAH2nhAMbT4XDd6r+GlNl6K7RgAG40qGlV4AA/gATyABybvAYG1u+666wBQKzYQAGw0EGL7Z5/84lk8gAeG9IDi6e///u/vA2x6S+mQeeBceH5RHgCw0ajiZocH8AAewAN4YNIeuPfeeyvBmoE2ABv/tC/qn3bOi/fwAB6IwQMabmox0+a8PRTvxuBdjzwC2GhUTbpR5VGJSIOAgQfwAB6I0wP6lV2/qlsDoM4cwBbntaaOct3wAB7AA8N4oNh7TctoP4z26Lx4nQFsADZueHgAD+ABPIAHJucBPQum2AgIAZuevXb77bfnD33Wiw0E4/jHdfH/uHINuAZ4AA/ggfF6oKz3mtZxzcZ7zbg2vtcGwEajihseHsADeAAP4IHJeUAvMAiBmn0XdKMx4PvPJv+8oycewAN4YBoeKP5wRe+1aVx36veH1xnARqNqco0qbgAf3gDQAi3wAB6Yogf0MgMDauFcPdboqUadmGKdoMz4Hg/gga4e0Bu4w5iq75/85Cdpa8IbJuUBABuGn5ThuwYOjuefDzyAB/BA3B7Q0NBiA4BGQNzXlDrJ9cMDeAAPLN4DZc80Vczl2iz+2nANhrsGADYAGzc9PIAH8AAewAOT8UBZA4Bf2If7x5N/8tEaD+ABPJCeB/Ss0uKPV7wUKL3rTN2tvqYANhpVk2lUcUOoviGgERrhATyQsgfKGgA8HwbPp+x5yoa/8QAeGMIDgmlFwEbvNbw3hPfGdg4AG4ANwIYH8AAewAN4YBIeKGsA8EIDGgBj++ec/OBJPIAHYvJA2aMXPvrRj07i/4qYrhN5Hea+AmCjUcXNDw/gATyAB/DAJDxw00037fuFnd5rw/yzyT/16IwH8AAeSNcDZT9ebWxsTOL/Cnydrq/bXlsAG40qbn54AA/gATyAB5L3gP7ZLw5fWVlZSb7cbf9B5DgaDXgAD+ABPFDlgbLea/x4hW+qfJPydgAbjaqkGhe6yWu4j9eHX18IECkHAMqGv6fkgdtvv/0AYNMz2UINdM8XdNOv8XoZgj76rpcgEA+oL6FX+I4f8AAewAM72R133HEgtvLoBerGlOsGgA3Atq9xEXtlUMOo2EOhy7IaVrFrQv4JcngAD+CBnRyWhfFAw0Wly/PPP5/dddddWXH4aLivfdev8jQcqE/UJzyAB/AAHvggfiouWozUnN5r1I2p1w0AG4AtKYBU1kMhvOk3/Q5gI0hMPUhQfupAKh4oAjT1TlMPtmLjoE6cUGwQmEtFwmJ5NwAADJ9JREFUG8pBPccDeAAP4IGmHtAPTsWYyaMX8FFTH6W2P4ANwJZUA+FjH/vYgRt98cbfZBnARpBI7aZPefD0FD0gGFa8999yyy21eq0Vj7NlHQ9koz5NsT5RZnyPB/CAPFD2A5Ue14M/8MeUPQBgA7AldRNUjwRr/HjMAWwEiCkHCMqO/1PxQNkLDspihBoL6gltz/HUs9fmxRU9eyYVjSgH9R0P4AE8gAfqeqCs9xrtJvxT1z8p7wdgA7Al1ThQj4Kw0aRl/ZLS9kPvBAJFygGAsuHvqXhgbW1tX2wI44S+C6zNe4nBvKGk846bir6Uk3sJHsADeGBaHqD32rSuN/W7/vUGsAHYkgJsZc/Y4YZQ/4aAVmiFB/BAih4o+6XdIJseLVDnxxT9UFPWoFAPtxQ1o0zcC/AAHsADeKDMA2U/WtF7Da+UeWWK6wBsALZkGgZlz9jRUJ8pVmzKTJDDA3gAD3zogVlvmFYv5yY6zRpqSi+2D7Vuoif7ohsewAN4ID4PlD06gTgY33Wk7vVzzQBsALZGjYsxV0QN4bEeCTbX83PGnGfy1s+NDV3RFQ/ggdADigUWF8J5m4cxlzUsiDX4LfQb3/EDHsADqXqgrL2l3t2plpdyUZebegDABmBL5oZY1rNAw4KaVgr250aKB/AAHkjLA2WAre1wlrJYwzDRtPxC/ed64gE8gAfKPaDYGf5Qpe+0t8q1wkPT1AXABmBLBkCVPQ+A7srTvLER0LjueAAPhB4oA2xte52VPY5Az/8Mz8d3/IcH8AAewAOpeUC9votwjd5r+Dw1n3ctD4ANwJZMo6DsGTvqxty1knA8gQMP4AE8ELcHPAGbvFD2soNnn32WeMP/VHgAD+ABPJCsB+i9Fvf/QvwvO8z1A7ARBJIJAnqhQfFXFW4kw9xI0Bmd8QAeGLMHyn6AaduDTeUsew4bgI06MOY6QN7wJx7AA108UNZ7Te2uNs8y7ZIPjsXHY/cAgA3Algxg+9jHPrYPsDFkhxvw2G/A5A+P4oFhPKDnwxR/gGn7DDZdMwDbMNeN+oHOeAAP4IFxeKCs91qXOMp1Hcd15Tr4XwcAG4AtGcBWbPDccsstedn0vBz1XhCA07Ce8KNj7rjjjoyhpP43F27YaIoH8MBYPFD21jPd/9vmrxhvBO/owYbf2/qJ4/AOHsADY/aAeqmVPRqB3mv4dsy+XVTeAGwAttYNjEWZdtZ5BdTCHgoKBMVebeH24nc1mAgUBIpZ/mI93sAD8XrA+8UEZQ0N/BGvP7h2XDs8gAfwwGwPePcCR+vZWqNN/NoA2ABsyQA2DQktQrM2y3fddVcymnCTjv8mzTXkGuIBHw+U9Tpr86Zp/RBTjC3WY5pr5XOt0BEd8QAewAPj8UDZj0pt4ifXdDzXlGvR37UAsAHYkoBJZb0Tig2gJstAtv5uOtzQ0RYP4IFFeKDsTaJtnh/DL/n4dxH+5Zz4Dg/ggUV4oCzm8aMSXlyEF2M5J4ANwJYEYCt7vk4I1NRzQQ0pNbD0seexhfsUv+u5bbFUZPJJoMMDeAAPzPfArB9imj4aoOyXfDVA0H++/uiDPngAD+CB+DxAzIvvmlHPFnvNAGwAtiQaBeqmXARkWhZUU6Nq1o1Gx5UFDh2rIafzjp2VJusXe1NDf/THA3hglgduu+22A7FCP8DM2r+4/t577z1wvGJIcT+W8SAewAN4AA/E7oGy3mvEPHwdu6/7zj+ADcCWTMNAsEy9ztRY0s2/SY+CskaXIJt6u/VdCUmfQIUH8AAeGMYD6q1W9rzOOkNFZ/2QQ5wY5tpRR9AZD+ABPDCsB8qeXdqkfcX1GvZ6ofc49AawAdgASDc8UHwLqfVi42Y1jpsV14HrgAfwgIcH9EOM7u/Fj36YEUQrnkM9me+4444D++t4fsnHk0W/sIwn8AAeSMEDin2KicUPo3vwdwr+7rMMADYA24HGRJ+GG3Pas3onlDW4xlwO8kbgwwN4AA/M98CsXssGzfSrvT5lP7wYmFNPuKbPb+O6zL8u6IM+eAAP4AE8gAfwQMweALAB2ABsgQfKukLzsgNu8jHf5Mk7/sUD5R6YB9kMos2aC67p5TpoW64tuqALHsADeAAP4AE8MEUPANgCuDJFA1Dm/Te+sqFDdZ7Ng477dUQP9MADeCAGD+j5abMg2qz1+iGGnmv4OwZ/k0d8igfwAB7AA3hgWA8A2ABs/AIfeGBtbe1AY0uNKW5Mw96Y0Bu98QAeGMoDgmXqzabnqc2CauqxpljAIwPw5VC+5Dx4DQ/gATyAB/BAfB4AsAVwBQPHZ2Dva6aGVrGBpWfweJ+H9PAaHsADeGB8HtCwT/3Qorek2UfreKjz+K4V9YdrggfwAB7AA3gAD4zNAwA2ABvwKPAAgI2b9Nhu0uQHT+IBPIAH8AAewAN4AA/gATyAB8bvAQBbAFcw7PgN2/c1KnuTKENE8UXfviN9PIYH8AAewAN4AA/gATyAB/AAHojbAwA2AFv0PdjuvffeTC8iCD9th/OUPYPtox/9aPQacaOO+0bN9eP64QE8gAfwAB7AA3gAD+ABPIAHxu0BABuALXp4dPvttx94blrbB1EL0hWfwaa3zHEjG/eNjOvD9cEDeAAP4AE8gAfwAB7AA3gAD+CBRXoAwAZgix4e6UHUXlCs7C1ybWHdIis25yaw4AE8gAfwAB7AA3gAD+ABPIAH8AAeGM4DADYAW/SATcNBi4DtpptuavzWtzJQp3S4IQ13Q0JrtMYDeAAP4AE8gAfwAB7AA3gAD+CBGD0AYAOwJQGQ9CKCImS74447apdNbw8t672mIaMxVmzyTEDCA3gAD+ABPIAH8AAewAN4AA/gATwwnAcAbAC2JABS2ds/BdzuuuuuyvLNgms6Xtu4IQ13Q0JrtMYDeAAP4AE8gAfwAB7AA3gAD+CBGD0AYAOwJQOQyl52IEimnmka/vn444/vK6uWBeA0DLTY+03LvNyAm3qMN3XyjG/xAB7AA3gAD+ABPIAH8AAewAPDewDABmDbB51ir4S33HJLKSwrA2jz1t12221J6RL7dSX/wwcHNEdzPIAH8AAewAN4AA/gATyAB/BAfQ8A2ABsSYEkvfBAcGwePKvaBlyrfwPhZotWeAAP4AE8gAfwAB7AA3gAD+ABPIAHdjIAG4AtKcBmlVpDQsteWjAPrmn/tbW1JPUwXZgT+PAAHsADeAAP4AE8gAfwAB7AA3gAD/h7AMAGYEsaKAmYqUfarKGjgmp6U6heksANxv8Gg6ZoigfwAB7AA3gAD+ABPIAH8AAewANT8ACADcA2KbCkt4LaZwoVnDISyPAAHsADeAAP4AE8gAfwAB7AA3gAD/TvAQAbgG1SgI2bSv83FTRGYzyAB/AAHsADeAAP4AE8gAfwAB6YmgcAbAA2ABsewAN4AA/gATyAB/AAHsADeAAP4AE8gAfwQAcPANg6iDc1Gkt5+QUCD+ABPIAH8AAewAN4AA/gATyAB/AAHsADBz0AYAOwQajxAB7AA3gAD+ABPIAH8AAewAN4AA/gATyABzp4AMDWQTyI7UFiiyZoggfwAB7AA3gAD+ABPIAH8AAewAN4AA9MzQMANgAbhBoP4AE8gAfwAB7AA3gAD+ABPIAH8AAewAN4oIMHAGwdxJsajaW8/AKBB/AAHsADeAAP4AE8gAfwAB7AA3gAD+CBgx4AsAHYINR4AA/gATyAB/AAHsADeAAP4AE8gAfwAB7AAx08AGDrIB7E9iCxRRM0wQN4AA/gATyAB/AAHsADeAAP4AE8gAem5gEAG4ANQo0H8AAewAN4AA/gATyAB/AAHsADeAAP4AE80MEDALYO4k2NxlJefoHAA3gAD+ABPIAH8AAewAN4AA/gATyAB/DAQQ8A2ABsEGo8gAfwAB7AA3gAD+ABPIAH8AAewAN4AA/ggQ4eALB1EA9ie5DYogma4AE8gAfwAB7AA3gAD+ABPIAH8AAewANT8wCADcAGocYDeAAP4AE8gAfwAB7AA3gAD+ABPIAH8AAe6OABAFsH8aZGYykvv0DgATyAB/AAHsADeAAP4AE8gAfwAB7AA3jgoAcAbAA2CDUewAN4AA/gATyAB/AAHsADeAAP4AE8gAfwQAcPANg6iAexPUhs0QRN8AAewAN4AA/gATyAB/AAHsADeAAP4IGpeQDABmCDUOMBPIAH8AAewAN4AA/gATyAB/AAHsADeAAPdPAAgK2DeFOjsZSXXyDwAB7AA3gAD+ABPIAH8AAewAN4AA/gATxw0AMANgAbhBoP4AE8gAfwAB7AA3gAD+ABPIAH8AAewAN4oIMH/n+dbqoQwzAipgAAAABJRU5ErkJggg==;" vertex="1" parent="1">
                    <mxGeometry x="100" y="260" width="3015.42" height="2050" as="geometry"/>
                </mxCell>
                <mxCell id="4" value="" style="shape=image;verticalLabelPosition=bottom;labelBackgroundColor=#ffffff;verticalAlign=top;aspect=fixed;imageAspect=0;image=data:image/png,iVBORw0KGgoAAAANSUhEUgAAAggAAAEDCAYAAABQ0/w9AAAgAElEQVR4XuydBbxUxRfHz6NBulRCQRokpEORkJJOAVFQTMIAMbELRRFUsDAIaQFJQVFCShBpKZEOERAlFeH/+R68778su2979+7dGT7v83i7c+fOPWfunN+cTNq7d+95Mc1QwFDAUMBQwFDAUMBQwIUCSQYgmPVgKGAoYChgKGAoYCjgTgEDEMyaMBQwFDAUMBQwFDAUuIQCBiCYRWEoYChgKGAoYChgKGAAglkDhgKGAoYChgKGAoYCvilgNAi+aWR6GAoYChgKGAoYCiQcBQxASDiWmwc2FDAUMBQwFDAU8E0BAxB808j0MBQwFDAUMBQwFEg4ChiAkHAsNw9sKGAoYChgKGAo4JsCBiD4ppHpYShgKGAoYChgKJBwFDAAIeFYbh7YUMBQwFDAUMBQwDcFDEDwTSPTw1DAUMBQwFDAUCDhKGAAQsKx3DywoYChgKGAoYChgG8KGIDgm0amh6GAoYChgKGAoUDCUcCxAOHs2bPy008/yf79+6VAgQJSvnx5SZ06dcIx2Dzw/ylw/vx5OXr0qCxfvlxSpUolVatWlRw5chgSGQoYChgKGAp4oIAjAcLChQulX79+8scff0ixYsVk27ZtkitXLvnss8/0b9MSjwLnzp3TNfHll1/KVVddJfy9Z88eadu2rbzyyisGPCbekjBPbChgKOCDAo4DCP/884/UrVtXrr76agUEadOmld27d0vr1q31tDh37lxJSkoyCyPBKLB06VLp0KGDvP3227oWaO+//7689tprMm/ePLnmmmsSjCLmcQ0FDAUMBVKmgOMAwl9//SUVKlSQDz/8UOrXr5/89O+8844MGDBA1q1bJzlz5jTrIsEo8PTTT8vatWtVg2C1HTt2SK1atRQoNG/ePMEoYh7XUMBQwFAgwQACvgc7d+6U/PnzS4YMGZKfHgExZcoUWbNmjVEnm7dCKbBy5Upp1aqVTJs2TSpWrGioYihgKGAoYCjgQgHHaRA8cXfr1q3SpEkTee6556RLly5mASQwBQ4dOiSsB35/9NFHkj17dv2dMWPGBKaKeXRDAUMBfymA/9KcOXPUZF29enV/L4vLfo4HCKdPn1ZQgPf69OnTJVOmTHHJKDPp8FCANfDEE0/I33//LXny5FFTVOnSpY1fSnjIa0YxFHA0BYiEwlyN7xLmyQkTJjj6eR0NEHBY7Natm2zatEkd0TgtmpbYFAAYHD9+XFgbgIORI0fK119/LYUKFUpswpinNxQwFPBJARzeGzRoIKdOnZJq1aoZgOCTYjbtgAB49tlnZdasWTJixAjNg2CaoYArBXBoLVWqlPTp00d/TDMUMBQwFPBGgTNnzmgkFGHShM5nyZLFAIR4XC6ogQYNGiQffPCBMpCoBtMSmwK9evVSArz77rvJhABEFilSRLp3765g0jRDAUMBQwFvFEDb+Oabb6o2umvXrnLZZZcZgBCPy+W9995TgDB16lRjX45HBkZgzoQyvvzyyzJ+/HipWbOm3mHGjBly3333aXRLlSpVInBXM6RTKYD2afXq1VKiRAnJmzevX4/5559/yr59+6RkyZJ+9Ted7EMBku6xR+B70KZNG2natKkBCPZhj/8zwcaMZ+mxY8fkyiuvvOTCO++8U/gxLbEogLYALcJ3330n1157rWZS3Lhxo3Ts2FH69+8v6dKlSyyCmKcNiQL4NuG7MmTIEGnXrp3XsXCOnjlzpv6sWLFC7r33Xs3oaVr8UIDQeTQGpOpHi0AzACF++HfRTNn4v/32W/VS99SKFy8uRYsWjdOnM9MOlQLU51i0aJG+7HXq1JEyZcqEOqS5PsEogLDv27evoEXwBRBq164tRFJR9wNAcddddxmAEGfrhey7Dz74oCZZQ34YgBBnDDTTNRQwFDAUiAYFDh48qBpKQmWff/55nwBhy5YtyUKlUqVKqrEyGoRocCo89/jtt9/kuuuukyuuuEIKFiyYPOiGDRskTZo0amJ68cUXpWzZsuG5oc1GcXSYo81obaZjKGAoEOcU6N27t3qwk1yLMDdfGgTXxzUAIf6YT0K1jz/++JKJ4/xOnR/qunTq1Elr/zixGYDgRK6aZzIUMBQIOwVwan300UfVj4XTY7ly5QxACDuV42NA44MQH3wyszQUMBQwFIg4BawqsY0aNRLquhw+fNgAhIhT3b43oLhb5syZZezYsfadZBhmZjQIYSCiGcJQwFDAuRQgr8r9998vu3bt0pDY9OnTG4DgXHb79WTbt2+XVKlSOT4DqwEIfi0H08lQwFAgUSlAcS/S6xLxQmItGlFS1PXAr4A03W+88YbPUFnjg5CoKyh+n9sAhPjlnZm5oYChQBQosGPHDhk4cOBFdyLt7uzZs7VMOKl3Bw8erE5rKTUDEKLALHOLsFLAAISwktMMZihgKJAIFPDkg3Dy5EmZPHmyJk7KkCHDJWQwACERVoazntEABGfx0zyNoYChQBQo4AkgYHIgdTdpvXFic28GIESBMeYWYaWAAQhhJacZzFDAUMCVAjj4oY4nXS0qeMIDyWLprVkZUPnNKRxHsBMnTuj/3VX4ZCjEYZAIA2+psrm/dT33Dlf7999/Zc+ePZI7d27NyU/js2XLlkmNGjV03u6N/lmzZtUf0wwF4oECBiDEA5fMHA0F4pQCCG+8//Plyycknfn999+1WBGOf3ny5NG/yVLHd5Tepv/x48dV4AMAsmXLpt/xOaDBAgkkpvnll1+03gr1DiiExDiAkezZs0umTJmSKcZ3XIswN81QwFDAfwoYgOA/rUxPQwFDgQApgGDfuXOnxowj9NEk8JOUlCSnTp1S4LB3717VLBQoUECLaCHwEehoGnLlyqXXk+aW/oAHflNPhRM52gFO5IAJQAH1EQoXLqz3QHsAoCA9MmN5Kt4W4OOY7oYCCUUBAxASit3mYQ0F7EEBhDcgwWq+/vbWz9fnfO8+tj0oYGZhKGB/CoQNIIDqDxw4YP8ndvAMUa3myJEjak/IaQ0VsWmxoQCnbtcCMrGZRcp3RROAhsC02FEAH4m8efPGZAIUO0LLY1psKIDmjDDcYJsBCMFSzobXYa/NmTNn1GZmAELUSO3xRqG+/NGYvQEI0aByyvcwACH2PIjVDELdIwxAiBXnInBfAxAiQFQbDxnqyx+NRzMAIRpUNgAh9lS25wxC3SMMQLAnX4OalR0AAk5mgTZPIWGBjpGI/UN9+aNBM08AIZg1gr+Cq89CNObulHvYTYMQDP/NHhHcagx1jzAAITi62/KqWAOE3bt3y8yZM+X8ef/Jg9/ELbd08Bg37v8oidkz1Jc/GlTzBBBGjBgpZB0MpDVocJNGLpgWOAXsBBBIMDVx4iR1HPW3EZ3SuXMnn6ms/R0vkfqFukcYgOCg1RJrgOAgUsbFo4T68kfjIY2JIRpUTvkedgIIsadGYs0g1D3CAAQHrZdYAwRUh8S9B9JQG3vLghfIOInYN9SXPxo08wQQSGYUaCOfgVEzB0q1C/3tBBDMHhEcD4O9KtQ9IqIAYcCA1zRhSSCtW7eumjDFtMApEGuAcODAQVm5cmVAE8+SJYvUrn2DsS8HRLULnUN9+YO4ZcCXeAIIX331lZw9+29AY9WqVTOqIbwBTc7mne0EEI4cOSJLliwNiGKk2a5Xr64BiAFRLTx7REQBQhDPYy4JgQKxBgghTN1cGgQF4hUgBPGo5pIQKGAngBDCY5hLg6BAqHtERAEC6qRAnFGsU1EQdDCXiGje+ljmQYDXgXooY2IwquPglm+oL39wdw3sKm9RDIHuC6wRE8UQGO2t3nYDCBS1CqSZPSIQal3cN9Q9ImIAgY2hf//+AT/Zo48+aoqqBEy1CxfEGiBs2rRJPvnkk4BmT679vn37ai5+0wKjQKgvf2B3C663J4Dw4osvas2EQFqHDh2kcuXKgVxi+v5HATsBBLJqDhkyJCDeUMfj8ccfN75KAVHtQudQ94iIAYQgnsVcEiIFYg0QQpy+uTxACoT68gd4u6C6myiGoMgW1ovsBBDC+mBmMJ8UCHWPMADBJ4njp4MBCPHDq3DMNNSXPxxz8DWGAQi+KBT57w1AiDyN7XqHUPeIiAEEbIxDhw6VM2f+Doh2t93WJWaFRQKaqA07G4BgQ6ZEcEqhvvwRnFry0AYgRIPKKd/DAITY8yBWMwh1j4gYQIgVQRL5vgYgJBb3Q335o0EtAxCiQWUDEGJPZXvOINQ9wgAEe/I1qFkZgBAU2eL2olBf/mg8uAEI0aCyAQixp7I9ZxDqHmEAgj35GtSsDEAIimxxe1GoL380HtwAhGhQ2QCE2FPZnjMIdY8IG0A4ffq0/P777/akUoLMiqyEgIRoNQrukBnNtNhQgJf/yiuvjM3N/bwrqbcPHjzoZ2/TLRIUyJgxoxBOHIvG/hBoYa5YzNOp9wx1jwgbQCCffu7cuZ1K57h4LmLLA40vD+XBSMpEGlTTYkMBEs7YXfhSQyFPnjyxIZC5q1Lg1KlTcvTo0ZhQI0eOHAJAMS02FAh1jwgrQGAz2L9/f2wo4bC7UuL0qquuCuip7AgQtm3bFnA9joAe2qGdQf5FihRJMctkqC9/NEhnAEI0qJzyPQxAiD0PYjWDUPeIsAKEPXv2GJVzmFYC5hqyxwXS7AYQCHWdPn26kAnNtMAowKZ+0003Sfr06b1eGOrLH9iMguttAEJwdAvnVQYghJOa8TVWqHtEWAECaTSPHz8eXxS06WzRxLRr1y6g2dkRIMyZM0fwjTAtMAqcOHFCbrzxRgMQAiOb6e2BAgYgJO6yMADBobw3AMGhjPXzsQxA8JNQpptPChiA4JNEju1gAIJDWWsAgkMZ6+djGYDgJ6FMN58UMADBJ4kc28EABIey1gAEhzLWz8cyAMFPQpluPilgAIJPEjm2Q1wChDRpUkumTBklTdq0kiopSc7JeTn7z1k5eeKUoz3erXr2OO/5aokGEM6dO5eix74vejnt+0QACOROwbGZ94IwaXIm/P3P35I//5Uujq1Jwj/RH9OCoYAdAQLv+6FDh+Tw4cPJvD516qRkzZZV8uTJrWWKaUmSyvA+GKb/d018AYQkkWuuuUry5M3tURicO3de/vzzL9n88zZhATmhpUmTRje/ffv2yZIlSyRXrtxSp86N+nxnzpzx+ohOBggDBgzQaJdq1aoJC7h+/fqyevVqqVmzpomZ/m9FOB0gfP/99yogmjVrJqlSJUlSqvPy77mzuh42b9ok23/dIS1aNFPwcKEhKtIaYRHEpmg3gMC+N3HiROnUqZPug6lTp5LzSf/o4TBVqlTy2acjpWOnDkKRKaslSRpJkgugwTT/KRA3ACFbtixStPg1ki4dL3nKjZPErp175beD8ZuZEWCwfPly+eKLyfLzzz9f8sAs/lq1akmvXj11U3RvTgYI8Hfy5Mlyyy23yBdffCHr16+XypUrS+nSpZUMx44dkwoVKvhaJo7+3qkAAeHw7bffSvXq1YUkOucv6A9F5GKtGtqFH35YKSVKFJfLL8/rIihSC8LCNP8pYCeAQF4UIt3Kly8vYL9zyvtLD4OrVv2k4KFy5UouD4ouKe1/GiX/nz+Re8YFQMiZM7uUKFU0ID6hht+29Vf5/VD8pfJFPTZy5CiZNGmSz2cm++QLLzwv+fPnv0hrkigA4e2339ZMbxUrVtR0sL/88ov+rlevnk/aObmDEwEC7zSagxtuuEFZdwEc/JMiGxctWiw1a1ZPVjnTmZOkAQn+r367AISdO3eqSYF3nXZOee9dU7xh/UZJkzaNgsT/N6NJ8p/zoofPULKtRjwPAiqjylXLX/SC+/uAIMg1qzfK6VOn/b3EFv0GDx4iCxYsCGguw4d/dFG+dCcDBFSJnCIbNmwoY8aMEYQhmSMbN24szzzzjHTp0kVq1KgREP2c1tmJAGHFihVy7bXXqhnpvP5DQPj2x/nyy+nSsmXzi1gcC5UzAOf/Jo/4WXF2AQiLFi1KBocXNAeXak7dqbpyxY9SuYqrFoEeqf4zN0WPB5bfWLzx394AIUmkVOnikj171qA5+eexv2TD+s1BXx/tC1GP3333PepwFUhDxf7CCy/ImTMXwJCTAUIgdEnUvk4ECD/++KNUqnRhs/dXQNB369ZtcvXVV7uZJzlJpovK8sAswvvYu3dvefnll6VYsWJx5StjB4AA79GSXnHFFf+Bw7/94t2ff/4pK1euknr16sQEIHKYoT344IM6/yeeeEIACxx846HZGiCkTZtGKlS8VrDHe2toCdauXS/FihVRoZo9e/ZLuq5d87OcOH7C9vzAtPDAAw/Kjh07PM4VG/vGjRu9PscbbwzU/PuJBBAoB+wUh1T4T2rhcDQnAoStW7eqcL0AEBAQvrUH1rtAYTD3tNMX7NGR3aiXLVsmt99+u6a9Hj9+vGq5vv76a5k5c6ZUqVIlHKyO+Bh2AAg4JbZv316fFZ+T835oDyzCTJz4hbRv39aNTtHRItx2220KBnAwx2emaNGiUrBgQcHROh60CbYGCJkuyyTlK1xwPLtQCjpJVcmckgENoLNfftmudpIKFcrLiBGjpGvX2+Svv45Lrlw5kxnw6/ZdcmD/bxF/kUK9ARXT7ryzu9dh2rZtq0553lqzZk2le/cL1ztdg8DJYPmyZVKhfHkpfPXVoZLeFtfv3LVL1q1fL1WqVbvIAzuYyTkRIOCgxgZ7wfvAvxMktCPaAeDlenhYt269lL22nKRKugDIrDBZTneuJzyEOQ7BRMywoVub+tq1axWMAzrY/PGL8HQqZM6YuxAKnCDXrVunFVMXL14sJUuWDIa1Ub/GDgDhyy+/lJYtWwYMDrlg7Jjx0qnzLRfRbe/efVIgX6Hkzyyesw4sPnNQIzqqTp06ki1btgvg5L/T/+7duzW6bPbs2dK8eXOP5bCRT3379lVgiOYL/wlA7uOPPy59+vQJymwebebbGiDkvTyPFCl6YfPvcX8vue6662TPnr3Stl0bWTB/gca/Ui64zLWlZefOXSoU16xeq56rFStdJ+XLl9Nr9+09IDt37Ik2bQO+HzHdvXs/cMl1lgalTZvWMnnylOQNzf3kzInkySefcDxAoGZHudKlpUSJEnGBwgNdCFu2bJE58+YlO2MFej39nQwQ/HFOdKXZwYO/SdasWS5S67/+2htSs2YNqVa1lgqBsWPHqsBn48ck8NZbb6nAHzx4sHAKnDdvnuADwXc4bRFay/uXN29emTJlipQqVUqefPLJS1hVtWpVBQTWCRLfGaJvChUqJNOmTZMrr7wyGPZG9Rp7AYTAwCGEmjRpsrRr1+Yimn3++VhJmzqDbNq0SYEbPL3jjjvkzTffVF7efffdKtz79esnJ0+elOHDh+shFRPHvffeK3PnzpWpU6cK/CXkmvVw8803X3SPBx54QAFEjx495KGHHlJnaoAC64rPevbsGVU+BnMzWwOEy6/II9cUuQAQbu18u9S6vpYc3H9A+jzykAwaNESKFysqWbJmldq1r5cFCxYpk7+aNUeaNr9ZGja8SVE7bf++g7Lj193B0Ceq1+zevUdYVK4NcNCgQQP9iDh/Nhrarl27ZMOGDRf1rVSpovTv39/RAOGPP/6QvLlySZXKlaPKm2jf7MdVq+TE6dNBnzKcCBAsE0OgAIGDg7uJAYDQuHEj2bhhiwprwiI//fRT/T9Au27durqRAx4IN+b/VEf95JNP9BRJf8wFaAcQAmgo+Nu9cVLkexzsiDhCI0H8Po60zz//fPLJNNrrK5D72QEgENbcunXr/0Ib/dce8Zzjx0+UW265YJ6w2rRpM2TNT+ukWLHiCtIQ/ghvwBwgDoG+fft2dRaH14AG+qApYj2hXfjhhx90Xd15550ybNgwefrppy+6B2sF4In26cUXX9Sx8RUjRPOee+5J3tcD4UW0+9oaIID6y5QtoTR5+KG+8vQz/SVjxgx6EsDf4PhfxzVzFrZbkD2IHpXfb7/9pkjPamgP0CLYvbEAcVD01nyZGECx5EWgOdXEcGD/fmnbqpXdWRny/E6cPCmjx45Vr/1gmhMBAuAYkHwhgsF/IfHD8hWqUXT1ZeIE2blTZ+nWtbu8+uqrenIEBCAI+EFbiTkTp0IAQfHixTV0dsaMGaq1Yr9BWGBqKFCggI6NIHBvCJEmTZqomYL3F4HB3gVo4PQZD80OAIFTOqYitIaB+J+gEYJ/V1111UWk/v77JZI18wWfgJEjR6rmiMMZ2gIcIgGDQ4cO1b95B5EnHE4Q7uzTBw4cUOCYJ08eBS5okbp163YJOzt27KjaJ7RGP/30k2osbr31VhkyZEhcaD9tDRBIilShYlnNlPXHH8cke/YLdqBAG6eEY3/8GehlUe/PKaRVq9Ze00WTNY4Nylt7+un+yWpppwKEP44elaYeTmpRZ1YUbjhw0CCpWatWUHdyIkAA+LORc9LzV0gcPnxEtm3dJtWqXyqMoxHqyJwRCJgpHn74YT1loqmYNWuWqrbjodkBIEAncmBcf/31PvMfuNJ02bLlUr36pcAtWqGOAMysWbPKxx9/rBrt2rVra0QNACQemq0BAkj92nIlJXPm/6fMDJSoJ0+eknVrfo4LT3eeF9PBgw8+pKg3kMaiGzZsqODVT3MqQDjy++/SvGnTQEgTt30HDBwoN9SuHdT8nQgQIAQnck7zWbOzJ6ScTp13YfmyH+SG2td7pOGFMMfo1Gjg9ImDMdqEfPnyBcXTWF1kF4CACZkT+A21bxBJ8h0GjuaoQIH8ki//pfSOBji0+IVmG38FHB3R8sZTszVAgJCXZc4k15YtGVTcKEJ24/otWp8hXhqqyhdffEk3Qn8bqtGBA1+Xa665JvkSpwIEHDnbtmyZYuirv3Szcz/UmAuXLJHLL788qGk6FSBADEIES5cpLQUKXu7RR4MN+cCBg7Jo4fdyS8eLbc8WMaMpIIJioI0usgtAgCREApAttUTJIpIla2aPVGLtb968RfLnz+fl/THZFP1dXrYHCDxI/gJXyFVXF/D3mZL7HTx4SLZv2xnwdbG+gOiMXr16y+bNvhM8AQ6wZxUsWOAirYNTAYJmx/zpJ+l5//1xYcMLdi19OX265MztuSiZP2M6GSDw/NjxR44aITVrVZPChQtpyBmbGeFrU6d8KXfdfaf6KnmONY9ekiR/eGX3PnYCCNAKPuM8eODgPmnUuEGy6RknwPnzF8plmTJJ7Rtv8JpTJJqaI7vz1tf84gIg8BBXXJlXChUu6LdQ2LvngOzaaf/QRm8MYgNcunSZesd6q9qIqvXBBx/wqLJ0KkCAXmxYB/btU1ODFZ/sa6HHy/fkd/h63jzJkCmTx6Rf/j6H0wGCRYd/zp6RdevXaDp1fHhKlSop5E/x3qKTIMdfPsVDP7sBBItm58+fk117fpV9e/fp4ShP3jxyzTWFU5ARplhToOstbgACD5Y1WxYpeFU+yZIls8dFwCI5ceKk7Nm1T44ePRYoLWzXn9MPURmfffaZIDiwqaZKlVpTxuKsg7MWgsBTczJAsJ4Xb+PMmTKps1c8ZCXztcB27d4tp06fDin/gXWPRAEIPO+FsEfy8qfkk4BwoEiTKfnrax26f29XgJAMFDSzIrz37reFzuhCga7o+JwESmO79o8rgGAREWGARuHyK1DBplb0+Puhw7Jn9/6AnfvsyphQ55UIACFUGjn5+kQCCK58PKdAgZ8LwsIIhtBXud0Bwv+fEJjgWv4ZUJgm4um0Q6ewfUeIS4BgX3LaZ2YGINiHF7GYSaIChFjQ2un3jB+A4HRORP/5DECIPs2jckcDEKJCZtvexAAE27Im7iZmAELcsSxsEzYAIWyktNdABiDYix/Rno0TAQLZ6+KlTK4nfjN30i3HW7MDQIh33sPzLFkurgcSD+vAAIR44FIQczQAIQiiOegSJwIE4t+tcubxyCpKP1evXj3upm4HgOBazTHuCPjfhHGqxrE8npoBCPHErQDm6lSAsG/fPk25Sm71lDZbCqxQ3Kds2bIBUM05XQ1AsB8vDUAInCc5cuTQfBYGIAROu3BcYQBCOKhowzGcChDIMFmyZEmtSUFBnW3btmkRHdA5mwkFXajDThGWlStXauGd48ePa9W9RGoGINiP2wYgBM4TAxACp1k4r7AlQCDen6QnhC8S0uiEGPdwMs2fsZwMEEi3DABAk7BmzRpp0aKFVlsjuRSlWimKQ6lVKq3RB9vv4MGD/SGbY/okIkAAGMJvah2Qdpy6JuwdhQsXlnXr1ml6bqoBooWirV+/Xj/DNszaoVIka4UqfVTxo1ojtm/KAZOsjOx9ZcqUkZ9/vlDbhZMt5Xu5B3lK6JdSCxQgsA+OGTPGY5VA1/u41m3xtFcyN56T6pTBtHgxMcBvDgy1atXSgwINOZI9e3bNvshnrI1jx45pKeejR4/qwWHx4sVSunRpLaK0d+9erdBZoUIF5efOnTu1yBLrioqcefPm1XVD5k6+5zp/TV+Bmhio/FmuXDldcyk1i//e5CR7IoeoYJotAQKMhugU5qCUJgxBnaz5Dn7/XRMG8QJzgqQPC5iMelTN4ofymnzHIuAl3rJlS3I9b+q9u9YsCIZo8XCNUwECawFwkCFDBl0Xv/76qy7+uXPn6kZPSdVixYppDnYriRR9SSyVSC0RAQKaokmTJun7zeZP5ccdO3ZoBb2JEyfqumCN5MyZUwUmAgEBP2jQIK24SJXF5557Tn83bdpU15S1hhA6gAQ0WPfee6+Wa65bt66CUcxdDz30kAqQQAECGzBFnBBc7GWAFNY1JrIVK1Yo+M2VK5cCEj4HyLCeqQ4JkFm1apVqyLiePZF1z/NxLQKMz9lL2ffYV3lX+I4srFxfp04dvS/38GayixeAwCGAktrU6oBGNLSIzz77rJCG+dFHH5U33nhD5QFypFWrVvobwIg5skuXLpqUDhp9+OGHChAXLlyo148YMULLPkMLgF6vXr1Ua8khhL22YcOGPrcXT798wJ0AACAASURBVABhwoQJKrMAMfASwMEBqEGDBgpI0aBs2LBBwV3q1KmVt6w71iWgBZ5Nnz5dgWy7du10/6OMOM8DGGYMng/fB2Qkc2f/ZG3wOfdmrDZt2nicvy0BAjPlJWVTR5Xcvn17+e6775RxnBhB+TfddJP+huE8OAsC1TNV0yA2LxM1DWAeKAwCcYogM2GVKlV8MjPeOzgVIPjiCy8cix0BkMgtkQFC48aNVYPE5sfGylrAhl2tWjUFC19//bWCCE6KbLaU4qUIEH0AEHfffbcK5Keeekr3HwQrAAIQwBivv/66CiFABPsMQIQqjb6aJw0CwppTKXsTQgYgw3yZG3NHYFAymvsCDgAoGzdulKFDh8qcOXPkhRdekFtuuUWBTvny5fVz9kJ+2At5ToAL2hUESffu3fWwRNlpS3Cy1/IZ43hq8QQQeAYEp2uGWTQGzZs3VxmCwKcPvAA03XjjjXLHHXfoKf29995LLsUNmOQgyueAQ4AgApo18sorryhAQDsBzdEo+bPfuAME5vXNN9/oGoQHyC/mxf4FgFu9erUedu+66y4Fc9wDPrM2eb7Jkyfr3FkrgAs0IXyP9gPgwNro06ePrhcqYbKOAIJolAAJAAnWOM/4yCOPxBdAsNQioHteDhA1LwwnAlAUZTNhGIWK0BagBoJgEJvPQYwwgBMmBIAgbAK87C1btvT1Lsf994kKEOKecWF6gEQECDzznXfeqcLxzTff1JM5GkTe90aNGqlgePDBB/XkiMCfMmWKpulGQLPRvvPOO/Liiy/KqFGj9ITOKRKhzb6BsGBcDii33367ahcAInyOcPfHO90TQEAr0bVrV3nttdd0bggfNnAEAnsWIAcBxKEHocGJDo1Ahw4d5Mknn1StBhoMgAQChLmzNyIg6MeJEroAEtgTmjVrpqdeDlcDBgzQEzMCiOdmnHgGCO+++64sXbpUn5+DIBpnhC4ADhmAIEULgAYBsADgeuCBB1RO0Adt9ejRoxU0YLKcP3++anTQGDEmB0v6caLnM3jTsWNHGTdunF9vrTtAYH4IaLQ4mDZYS0TpcG94hmYIuce9Oe3DPwAsmi+AJSYI5CNglWcCyLBW+B5ZydpnXdHv8ccfV1oAZBmHNUvILWsNedmtW7f4AggQhheSF+LIkSPJqhweHObzg80FdAujYRbX8DnqFh4e1MwPn0Fw/s+LEqwtzq9VYJNOTgcIqFO3btkiDRs0kPTp0tmE6qFN4/SZMzJx0iSpUrWqxzXKuqWu/C+/bJdGjRrqqc9bIa9EBAihUT/yVwfqgxD5Gfl3h3jRIPj3NLHrFagPQuxm+v8729bEYAfixPMcnAwQDuzfL/muuEJqxGFMuT9rav6CBXLk2LHkWvac9nCWeuqp/qoZsxqnoUcf7aenCvfmRIDA6QiHw3ht2MPj0RfGDgAB7fDNN98cr6zXeaN58EfTZKeHNADBTtwI41ycChDYrNKmSiU31q4dRmrZb6gNGzfK4T/+UPUf9sP77rvf4yRRF7/33jDt59qcCBDsx6XEmJEdAEJiUNp+T2lbgMDEsP0RtoJTRry37NmySaHChdVxMhrNqQDht4MHpXWLFtEgYdTugSf1j6tWSamSJeW7BQv0lFyhXDmZNHWqeiJ//vkY9c63Gh7OONrR0C68++47l4TYGYAQNfY5/kYGIDiexV4f0JYAAYeNjOnTS/OmTR3FmZ27dsniJUskV548EQcKTgUIfxw9Kk0bN3bUutizd686DeERvfLHH6VA/vxS8brr5JXXXpMGDRtKv36PqicyjmoVKpTXCJ7Zs79Sr2Va3759LlFdG4DgqCUS04cxACGm5I/pzW0HELb/8ovUqFpVPTmd2qZOmyY5cuXyKzQmWBo4FSAcPnRIWjRrFixZbHnd+g0bZM+evVK/Xl05cfKkpE2TRp1pX3r1VWnYqJE8//zzsmLFyuS54/VOXLbVCFcDOLg2AxBsyeq4nJQBCHHJtrBM2lYAYfPmzXLq+HG5qX79ix7u/Q8+kH/PnZP77rlHT1jVqlb16+E//uQT+XnzZunXp0+yw5d1Id7fRDfEovHCffzZZ3JdxYoRu71TAcKe3bvllnbtIka3WAw8c9ZsmTV7trz0wvMaxktejyxZs8rC77+XK668UuO633xzUPLUCMsjpplGpM9HH314iUbKAIRYcNKZ9zQAwZl89eepbAUQtm3dKtU9JDEaN2GC1L3xRvlhxQopVrSobCNDYvr0clnmzBo7+udff0nmyy7Tn+w5cmiCkMqVKsnDffvK6wMGyMhRoyR3njzy79mzku/KKzVN5mtvvCG9e/RQGy9EiLbG4sPhw6VMBAsJORUgIPiOHj4sHdq1c1QK7pMnT0mmTBn1nSU+eubs2ZI1e3Z1PgTMYmYgBtu1EeZLvH6bNq31mkTQICCsiA/31KxMc/5sfKaP/xSwC0CwQt49zZx3IR5LafvPhdj0tBVAOHrkiBS75ppLKAFAaNKokXw2YoQUKFBAVq9ZIx3at5cvJk+WrrfdJn0eeURTiuLM2K5tWylRvLj2u61bN8Fm/eYbb6jt/60hQ6THffepJuL2bt3k4Yce0tz9Dz344CVe4JFmx4RJkyR/wYIRu41TAQIEY8PKmjmzlCxe3GOIX8SIGoWBSdoyfeZMuapQoYtMUJgcXnnlVQ2VOnHipGTPnk0zjNatW+cScMA0napBIGEMyc88NTSCZJIzLbwUsAtAIM8NuQS8AQSSGpkWXgrYCiAQsVDdwwve9Y475K/jx+XjDz+UhYsWyZp166Rt69by5bRp0rljR3niqacupLzctEnu6NpVtQxkSHv8ySfl5Rdf1JNm89at5cTx49KuTRvp1bOn9OjdW+7p3l0+HztWtQzRLgj13gcfSLkKFcLLTZfRnAwQeEySY8n585phjERaTmiELObKnVvBKlou98bnbJLHj5+QHDmy65p11xxY1xiA4IQVcfEzWMXrov1kBiBEm+KX3o/DLxFL0W62AggUDSGaO1oJcBCiFLUgP3s0Gy/c+C++0OIxkWpOBwiRoptTxk10gACQIv0syaSsjdWTgMVsQ5p2X419AoDmXujNdePG9EF+fl++TSS9IvMrhXj8bUSskFt//Pjxgq8WjdTLgYzh773c+8UbQIDPHDYpXAWdrebOf0x38MuX4OX54RkFjvAP8jSeJUjRZKfUMImjAYN3/h5KOQyRKrxHjx6aLpl3m3nw/0g3WwEEwhtRITVp0MBn6dRIEyZS40PwRYsXy/mkJI+nxHDd1wCEcFEyPsdJdIBAMSKKK1GLAM0MgoDaC+TQd7VVU3CJAkd8hsAgKRWOn/yNw6gF4slpT0Eb8pggMBBACGfGI/01fSkQRcQJ3/Geo8Wk9gv/p6HlxLmUgj+kCu/UqZP6SwFQuMaq1EhNBEJaXRsCikJOCAlADcIOYeQqACO1UuMNIFBnAXBAISRqVlBvgGyjZGPs2bNnMpmozUDOEegOoCTvDv9HeAPC4B++aaTIJs152bJlle5k9ORvDrSkO6fo07Bhw9Tkx/WUlQZMkN+EvwEgjEUNIdYaphD4iRmcegn8WH41mBKpx+DaWD/UjGA9o1mEHzwPY0a62Q4gkEp2544dkjd3bo1m8BdlRZpQ4RifxfLxp59KiVKlIgoOmKsBCOHgWPyOkegAgcNG586dtUIf791jjz2mpzAEhKv5BoBA+lsq6FFml00bPw+EBxUAES4UbEIo4K9EQSXGQwhRyZGTPYIb8EFROarvsalSLAkBAogAEJBimfLzVNOjP8muEESUFEYAcU+uAzQwNgWh3BuVSkk3TJU/BBXaEaNBuEAl5ITlgwB/PvjgAxWkVK+kNDcF/Uh17UpXCyAsWrRIgRwFuPr166dJyCh8xN8AQwAZdXyopAnggFcUAmNdwEN4Sugx64sxEea9e/fWap8AOHhMJBKFvij4NHz4cF2HjMu6AkyQ24QS5RyQ+/btewnv+/fvr4WdAC7ISMAGBagi3WwHECwkBXN5wfLmyRNpGkRlfFRLkpQUtVzyBiBEha22vUmiAwROdAh7fFTY2NnU2cSpeohgRVswZswY3ZA5RXIirFixoqpt+QxnUdS4fMYG/tZbbymv2ai5DjUxpgSECBoExuc6ToBoAzh5cn+uJQsmVWY5aaKB4HpOrGgO0FSgLSBRFuaKLl266HjM1bVNmzZNXn75Zf3O6ovQ46Qc6RZvGgR4gdAHeFGZEZmCMAcoUOmQap6UV0aLQxXDjz76SCtfUuQPDRAADWGNMKdiJ5U1EcwIZYDD4MGDdUzABmYn1tNzzz2nghv+o9lh/yVCDv5iwp41a5aC0DfeeEPXBNczPwtMch/uybzRFLg21irPgbaK9cnaJNSZtRnpZluAEOkHd/r4BiA4ncMpP1+iAwRv1EGwI6gjqZkEELTzI1cHJ1U0Cf626dOnq1Yj2i3eAEJK9MEMREnwSDXKZ1NWHLNBSg0TA+YvwIo/jdLjlKPGXBbNZgBCNKkdxXs5GSB8/vnnisZ9vYSomREI2OriuQpgMMvGAIRgqBaea/yNNvC3X3hmFfwoTgIIwVPBvysD4Wkgff27e/h7GYAQfpraYkQnA4TRo0dL27Zt1RkIpzIcxFDbYY9FDYizEfZk7MHYoVnkqINxEOPkyAkSJ59oo/FoLgynAgSEFaphTw1nsGjY5KPJRzvcyy4AARMManhvDV8A08JLAQMQwktP24zmdICAum3VqlXqYPb222+rExK2PuyAaBhwKmIzwVEIENGiRQu1OxKmRjIdbIDR8AKO1YJwKkCIFT0T+b52AQiJzINYPbvtAYK3RDCxIlgo942k3dN9Xk4GCHhz41GOdmD+/PnSsWNH9SzHvojX8RNPPKEezTiG4rEOIMDJDIcknMNwVOMUiqOPU5sBCE7lbPSfywCE6NPcLne0JUAAFBCSUvSaa6RmjRoRdSiKFiMQTEPeeUduqF37khjnSMzByQAhEvRy2pgGIDiNo7F7HgMQYkf7WN/ZdgCBEI7dO3dKm1atfDqhxZp4wdyfOhKr162LaBZF5uV0gEASkkwZMqj5AGfEc27FioLhTSyvSZM6tfpR5C9QQIuPhVp4xgCEWHLTWfc2AMFZ/AzkaWwFEHAsI6lI/8cfj3rxpECIFmrf/QcOyNoNGy4p0RvquK7XOxkg4IRYukQJKeqWcSyc9IvlWJOnTJHMWbNqtdJgm9MBAiYlK0MhDqjRNN8Fy5N4vc5uAAENM+ZDfpOHgCyZpkWGArYCCGQIq3zddZL9v3zXhKiRWARvczbN5s2aXbIYSFt8Q61aydRh4wBo4NH60+rVkiF9es1wRtv+66/y159/asrTWDa8cd8ZNkwqeyhtHa55ORUg4ISYJilJ6ter52ihwNr96+TJoIGykwECa5vMdzii0gh3JQ2uERTh2j0uHsdOAIH9fePGjVqPAICQJk0adTx2ckRSZLjq36i2AggHDxyQMi4FKJb/8IPMmj1but1+u/Tp10+ef/ZZDWFDwBKqxv85OSA0Tp85I9WrVtU86r0fekju7t5dKz82bNBAPdZZWGRLIwsZoXCjPv9cxo4erf1j0UZ//rkULlo0Yrd2KkD47eBBad2iRcToZpeBMTNMmzkz6PwNTgUIPBcHCffGgcC1eA2ZB6lz0KRJE01zy3VkuANUkNWQRhgslUBJc0sa3Hr16smjjz4qL730kmZgxHQVaCE39iQyN7JHkWaX6BoOOTQy8lmHFU/rjH2KLIwVIljlNZj1bSeAQHprzNCuDRnAoY8shjSSEOHETFIpsvHCC7IakhYbzQOJjMiWSB0FeAWwJE0yqY8JmSYt9l133aVpun3lWnGnJ/dlPmRs5LeVf+X999+X++67L0Xykxb6448/DoZFEbvGVgABu3JJF6FJpqkRo0dL8f+qHi5ZskRGjRgh/R57TIV+q5YtdTFQ36DjLbdIxeuuk6pVqsgv27fLyFGjNCaadKaooXB2RIOARmHmzJmye88eGfnZZxEjrK+Bx0+cKAWuuspXt6C/dypA+IPQxcaNg6ZLPF348oABUuc/YRbovJ0KEFjX1DRwb2zyVatWTf4YoUZqYjIVkjL5zTffVCBAXny0D3Xq1JEhQ4YoMCAvPoIEwUEqZfogzIl+4UDBXgN4IP8+Qp8oGvLik1qZVMcIHYTWu+++m5x/gyiaQYMGacpkq0YA5tOWLVtqul1S9wJUyLxHQSiEEp8BSAAu5OwA8DAv5kGa3Vg1uwAE6LxixQqPZGCfp8iV1SjUVLRoUU1dTBpjop3ogwzp1auXpr8GIJA2GX4DCFgLCGiinVgbhFIj8AFspLimiBLh0mS0xEeIdUHxLAAlQIB6H4AK+MphlJoLVOCkcU/WB7lbuCd5WHge3lN4zzoAyA4YMEDncc8992hhJ4CvNUYs+G8rgACau7lhw2Q6ABCyZc8u48aPV8//2tdfL13vvFPefftt2bR5s1SpXFlRIfHsL738snwxcaKCAgACRVYWLFyoi4INgQXzdP/+qjEAIBw9dky633GHVIpCPmtPjB04aJDUdDGNhJv5TgUIhw8dkhbNmoWbXLYc7+VXX5U69eoFNTenAgQEJ6WX3Rt+CAhSq1kAAQ0C4OGdd97RjZtc+mgRKHQDaOBvhAKbO1rJgQMHqtqaVq5cOS34Q0EeTpbsJQgWTJgIFwo3UVyJkyqJuzjBkpuD8Fn2JbQBd999d3K9BAsgkMN/5MiRCkysAj8In2bNmumzUfCHEzGABMGF8CDXf6yaXQACfAO4eWrwzjWviQUQELrQGGDBGlm4cKFQ6RNNBAWdKH5FDQb4hGAGSCA7OP2z1sixcuuttyrIQJsAEACIMC4AjnTZfEftDcAjvCNhF+PzGUDUFSCwdtBooMGgxgIA8vXXX1cAyhoF5JIKGqDAvHmPWRexarYCCBDv23nz5OEHHgirfRktA9qD6tWqBawyigRjDv3+uyxbsUJNHZFqTgUI+/bulfZt2kSKbLYZ9+gff8iM2bPVvhpMcypAYFMlBNq9EQHiSiuECcKagjYIZjZ1cmKgpWQzRgAgjDm9U3CJYj7YtDmUABAQBJgoMDMgIOnHqZCiPtAW0wHChIJM5NRg06egDqZMxuM3RXwwh6BupvDPnDlzVIgAJDi0WOWDMUtwAEJQMU/2KzQSABLmgRaB62PV7AIQeH6AGjxxbQBA+OHqg4IsQXMEnaFrjRo1ZOnSpdoHLQ3rY8GCBSrAGROABh9o+DjAa4AeAh8+EabOuuDkj8kIMAFd0A4xDvxDuLMmaFTzBMxYVUXpwxqBv/jW0Z97YPrAtIE2ivVmabj4zVplnqyfWDVbAQSISfa7c//8I3VuvFGRmNPagYMHZeLkybqgI+l57VSAwEuUWkQaN2rktKVx0fMsWbZMzp47Z5wU06a9xAENkLBlyxYVzJgP2WxRJ5sWGQrYCSAgZAF2ll8ZwtqqkhmZp0/sUW0HEGC8qmC+/VZqVa8u9evXdwSHeMkefuQRadCwoaqeIt2cChCg27E//pDiRYs6Nszx62++kfOpUiU7XQWzVpyqQXClhZVlNZJAOxjaO+0aOwEEi7aG99FZZbYECNF5dGffxckAAc6hfkufLp2qDVMlJcU9M7WgVIYM6kiHCSrUokOJABDinulx8gB2BAhxQrq4n6YBCHHPQs8P4HSA4FC2he2xDEAIGykTfiADEBJ3CRiA4FDeG4DgUMb6+VgGIPhJKNPNJwUMQPBJIsd2MADBoaw1AMGhjPXzsQxA8JNQpptPChiA4JNEju1gAIJDWetUgEBxJkKCiGN3Df/BudXKWOdQlgb0WE4FCISsES5IJAMJZghLJByN8EHC0whJI46dkDXCiIl9px9/cx2JjZzi+BzQggihs50AArkhSDBEDgJyDRAySr4K8hHQyB1ArgMEG6GGOLASSjh+/HgNceczQmJN848CtgUITIwUymQ+FIc4obFYiX2NRnMqQCCZFuBgxIgRmsBk9uzZmi2PDGa9e/cWUuySWCRUJ79o8CiS93AqQFi2bJlmGmRvACSQUIjshCS/IclR06ZNFSSQxOi2227T1MZkNCQjIslt2rVrZ/L2B7jw7AQQyG5IJkqSW7EXfPTRR5r4jnwUrAn2PRIckRODkGgixjp37iytWrWSDz/88KJsiwGSISG72xIgkAf9sowZpViRInoqdEIYE4lTklKlkhmzZknZcuUivticDhBIPELiElKpckLk/5wcSYoDQEAQJHJzMkBAILRv317j4dkrLKHx6quvau0FTpRkKeTESFpbCyAAJsl4SFIc0/yngJ0AAmDw2WefVUBAamxAIcAPIEB4PEmHSJJEZkQSEqE5AiCQ7ZKMheSfMc1/CtgOIJCetFTx4lK6VCn/nyKOepIZa/ykSVKgYMHklK6RmL5TAQJqRU4InA7Y6BEQaGUQiCTLYYMge57RIJzQzH6o2L21UF/+SKxb9zHJfOdaqY/MePCYFMk///yzTJkyRRMlkS8f0Ij5gPVhpacdPXq0ZrNDs0Bf0vGSytY0/ylgJ4Dw+eefKzgkK+Zrr72mDwFvqZVAtkO0RqwPwoVJpoVpgfXBAY0fDg4GIPrP+1D3iKS9e/ee9/923nvCcFJerlq5Uu65664UhwQpshgCVdeTpdEOggPhNvfbby/KHR4OGrqO4VSAEG46OXU8p2oQnMovOz+XnQCCnenkxLnZCiBs+vlnqVmt2kUplim89OOqVYoGH3rgATU5qMPR119L544dA+LJQ336yOBBgwK6JlKdP/n0UylRunSkhldbXKBqdmx4/ESr4USWUrltsqXhWEb+c9MCo4ABCIHRK1K9MXuRzx8VeKjpoNGWYVZBW0KdgWg1AxCCpzQaT3xlqMuRkjbP1x3QfuCczX6JCS1aZQhsBRAQ/CXc7IOUQB07frykS5tW/j13TrrdfrsMeP11Vc+jDXjy8cdl/4EDMvurryR3zpwyduJEeeqxx+T7JUukRLFikr9AAZk4caLWgqd4xic2qbdtyj2LepmHAhDIpkj5ZwqbOCGbIpsEKvTtO3ZocaBQWqIABOoxkE2TiosUNUKzSIEjtIv8v3QAIBxTBNo99haKMtG4nhK98ANVtT+NQj4cZAAHONRSLwKwSwQGhZjgcYcOHfyqs0EVQsbieTCP4I+FBpVnxZsf0IB9PZLNrgABmo4bN059kOAdfIJWRC1Qphkao5n2p7FW8F/CLIfMgXeAOuQGlTk5bPkjlOEJURSsIQQ50TXwDAFPxA3jwUtXs5m3+bFOeC4ObexxVjEq3m34z7oCeKS0h/rz7Cn1sRVA2Lljh1SqUOGi+cKsXbt3S906deTD4cOlQvnyMmr0aPVG5WTZpXNnJVa69OmVKWPGjZMM6dJJufLldYNg87i2TBlNXwux3xs6NFSaheX6kaNHS5EQhUBKE3G6BgE785V58mjYktMaG8CI0aN1DQfroOt0gIBwIKIBR0QiGTzRydqsOXHnzp3b6zIhRJZ9gsp8hM15aji+4R/FRs3G7KkhuPGsJ+wypSqczB0Bxrxy5crlcSwEytixY9XezjN6a/Tj4MN7YJWp9tYXQc9+eubM31KkyDUp0sR1DDsCBMAWPAMceXvuMWPGaIlvX2GNgCzGatOmjdd1RHgl/i3w1ltDvmAmZx2l9N4CIC3h7m0sNOasJ8I5vTXW0fDhw9VJN6X1bV3P3Pbt2y85cmRXwOtrvXCdrQACccwZ0qaVqi6lTXHqg1AgwX/OnpW//vxTiYs2IXWqVMmqNpA/fXggHhxwQG77v8+c0Zeez1H1RFM1542xzGXgW2/pZhOp5mSAAG9LFi0aUR+OSPHF33FZq2+9807Qa8TpAMHVWS0lmrJ3cHLzpuLlXeTEx8nR1wmRvWjSpEnqPe9JAHz33XfqJe+PpoHN3RLsnub/ySefSLdu3XzOiWuZF3kAiODw1kaP/lyeeeYZLVHMvdkr2X9Gjx7lE4TaDSBwokZ1TwlnXw3hD5BE+HtqhMyifaK0tq/GOKwjT/lWyM/CvfyNkti+fbtWLq5UqdIltwXEMR9/fex4BnjpTVvCXtKwYSPVirFWWOdo36dMmazPnlKzFUAAgRGv3LRRI1s4E/paMMF+v3jJEvnn3LmL6pcHO5a365wMEFb/9JP0uPdenxtbuGka7fHWrlsnO/fsUVNMoM3JAAGVb6lSpfymC6dsvNkJd3MHAaioCZ1L6ZTuSnu0DXPnzr1E4LB3obHAvOFvYyyEDh73rm3Dhg3qrxCIzZr3nfE8maZeeuklGTbsPT0kuTdMKBMnTkjxBGongIDqH41x1apV/SWznuo5GLo7qGPS5j1BG+1vW7lypZqd3IX3V199pUmaAtH4rVq1Stex69pjDSHwUwJ77nMF8AFO69Spc8n6JtKndes2CkbcG6aJDz74QBo3buT18W0HEECHOCtWr1pVTQNOajBp8dKlcvrvv32qvUJ9bqcCBBDw8WPHpOnNN4dKori4fsr06SmqNb09hFMBAj4HS5YsuUSo+mImmgRMBK4nJgQHKv5AnWAR4NinXc0DOJB5Og36mhfaDUCFq9YB0BCM6QztBupmVxMIPgzNmv3fRwHQgUBBEFntueeelfvvv9/rVO0EEFavXq0+Bv4COh6K5yXE1V2LMHnyZKVXIEKd9wr+uwIU/EqgUUrmAE/EBexgKnFdk4Tq1q5dO6A5MTYmMNajO126du0qX301J/n2BQsWkN279yT/jdZh7do1Xg/ktgMIoGAaE+OhsQ3xcsd7y5E9u9xQu3bU0gE7FSBgXkgjoirhRGhTZ8zwy6HJnRZOBQhsxq4ptgNZA+wlrmpphLO/KmH3+6CudY2ndx/b33mxt6GaJvEPDXUwWtTKlSv7O0Ryv2PHjun1rnbyAQNek7feeiu5D85x3JPTs9V4jiVLFscFQAAEBRqdxYOhdcA0YNEZHyacGnEiDbShlrI1wQAAIABJREFUderoEkEHYMXvIJhGno4uXbokX0rSJ5wuA22Wv42rNgon7jJlrr1oqM6dO8mYMWMv+uzTTz+Rm70cuGwLEAIlkOl/MQWcChB4yrU//ST333ef41mOX828BQv0tBpocypAwD7LCTKYNn/+fFXDWi3YzZjrcUZ0PUUGKyQQ1hyELDU3mohChQp5dV5M6bkREkeOHLlovTz66GOalpyGFzxriRM1wgOwTcPTfuvWLbYHCDwbWh8SoQXTXAFhsFoa7guAw/HRcgwMlveMNWHCBI22sBomAcwOwTR3sAEouvHGC+sdLQkmhQ4d2suECRM1qgJtLO2ttwap+c1TMwAhGE7EwTVOBgg4+LRq1ixg1XAcsC15iry8OLKibgymORUghHLqxxnRlZ6k6Q7WURhVsKsWC78IsjsG2tw1CKjQAQvB+J0AENAMuHrtDxnytrzyyivJ0/KkQUCL8tVXs20PENAe4UPij0Ohp4fB5m+BCxxEqdMRTANcYR6wIlWC5T33JlKlU6dOydPA+RJHyGDayJEj5fbbb0++FHNcyZKlVKtkNU8aBPxz6tTxrJE1ACEYTsTBNU4GCJyAVv34o9x9550B2SLjgG06RcABycFO/f130I6sTgUIJAoKNkeE+0aOYxdhcME0V2HD9XYwMSC4AByuJgZOpA0aNNQTo7c2bNhQrVHhrdnFBwHzMyGCwQAx9gy0M5bpBmdDwIKvyBVvQAO/Ecvp0R14BrKe3DUIwWq14BFaEff1/Nhjj8tnn32WPCWe19Vkz1pZuXKFV4dYAxAC4WYc9XUyQIANvPCEFpGau89DDwWlkrUbOzkBjp8wQf49f16uuPLKkDQkTgUIofgg4LBXxSWEGmezYGzQrBsKAblGLCC4yMcQaEOLwQneNXQO4RWMDwInQdTV7k53hEB263ZHskrZdY7Ynt97b1iKyXbsAhCYN9VaW7RoESiZ1bGV6APLGRRneMLqg9Ei4Nzo6vBIQiM0CoGe/DEhsoe5msyIkGnYsGHAz4cfi6fEc4cPH1G/G/xT3Bu0mD59WoqhjgYgBMyK+LjA6QDB4gJAgUXMbyc0PNCDOdW4P7tTAQJqUzLeuapl/eE7p2to4urgiAc5du1Asi1yL055AAvXsDk2aMYKREggINBE1KtX76JHAGzgOOgp3t7bs1KgCM2TtzDLb775RhBsc+bM1XBITuFNm96shat8efHbCSCgEeEZA8keCF14/saNG19EPk7+OAQG8r5BOxxU3cEgAARB7IuWrhPAzAE4dM1fwFzRbFHCPpBGaCTaA0/Pcvr0GQWBkyZ9oZE8mJmaN28mPXr08GmuMQAhEC7EUd9EAQhxxJKoTtWpAAEiItgRWv7mHEC9TiY8V89zixlk2yPUzd+wOYAGAsLTyRMVL4LdnzS6bLyYPLz5mGBPxnHMn2x3nF4BGq4OmCktNsB0IILMTgABLZtVtdNfwY62h1BW92yDrCMAZ0pZL13paOUbAFy556hgXSB8cVz1Z16YyqwaDe68Yn3hOOrPOuJawA8g05/7Yl7wp581JwMQorptR+9mBiBEj9Z2vJOTAQL0njFjhp7i/HFYwwaL85anjZFNn9A5Uhr7anj9UzyMxEqeGmMR3cDm7ssTHbU/gsZbtjw2ZuZN+WJf9QSCOQn7elbX7+0EEJgX5gGcOf1xMMWpFadPbymtcepkr/RH84OWoGzZsl5NfwA17ucrBBsNAeGWKfnSEIZJ8i1fYbhvvPGG3HvvvSGZI1NaCwYgBPKmxFFfAxDiiFkRmKrTAQIkQ92MTwKqVfcTHcKakxUCGNVvSqcm+qLW51SHs557X0tFTbEkBISvRigmJzXeQTQElhaAEyb34H5k3fNW08F1fELqrBO/673RPljPTIKmQDQCvubv/r3dAALzw5xDvQIAInzxNGd8DNAc+EonbBVnAiR40iQhrFlnaBq8AQ3r/mgFWEtoLViXlsOolSERUICvgD9RKtyX9cK98XmwzCqAGvxpePZAM24GynsDEAKlWJz0dzJAwN7Lpsnmz0bs66WNE5aFdZqJABAgGOuAkx0OhzjccXrHtksoLAlovBVf8kRsNnH8GxDcJJzBNDF9+nTdiL3Zd1NiGtcjyDgJot5GKATiV+A6NvxkLIQGp09SBwdihw9lcdkRIFjPgzaBuhVoExDw8B1Hv2bNmqkJyl/gxDpiX8EJEnU9uSgQ9GgEME0FU8MHx0D4xbq6/PLL1UHSH5ORO6/Y4xiLfBmAQkAH8/H32ULhvQEIoVDPxtc6GSDw0s2ePVtPeyzgYF5eG7MuLFNLFIDgSixXR9VQNs9wjRMWRtpgEDsDBIs84eRZOMeyAftCmoIBCCGRz74XOxkgcDLDI5uqetjgUAtyciSEDZUcYUe0nj172pdBEZ5ZIgKECJM0YYePB4CQsMyJ8IMbgBBhAsdq+EQBCAMHDlQbJAABL26qqqHGQ0VYoUKFWJE/5vdNBICAevnYH3/IrJkzpXSpUlLAgy065oyw8QRQWy9YtEgaN2kimbNkkXz58nmcrV0Bwi/btsme3bvl8O+/S/ly5fzy6bAxO6I6tX/OntWoC3Ku4NtydaFCHu9vAEJU2RK9mzkZIEBFK1yHBWypk12zhPE5uecTtTkdIPB806dOlY633JKoLA7rcxMVkDVnTo8hf3YECF9OmSKNGzYMqCR2WAnmoMHQyI6bMEFuve22Sxx0DUBwEKNdH8XpAMGhbAvbYzkZIGiq7RUrpFKQRXvCRmSHDbRr9245l5Sk2jfXZieAAO9nzpghN9SqJdmyZnUYB2L3OPD4yxkzpMMtt1wEEgxAiB1PInpnJwMENgn8DNKkSiXFixWTq6+6KioevZFkGBqRX7Zvl63/JUnJkTNnSLdzKkCATp98/LF079ZNec7pZ8g776hnf7q0aaVhgwaC+jRL5sxy8LffNNyM7HeVK1VSL3JCFvEqP/bnnzJt+nS5o2tX3RDZIMmM+OqAAXJX9+6apAavdrzP/zp+XDKkT68lg8lvwLtFbD1RBUQn8FuSkjTpTq6cOeX4iROSJ3du5R/FdyiexNjch+yJONVatRGImOA6noXvicw59PvvOg598Vqnz7tDh8q999wj+w8c0KiNJo0by6bNm+XG2rVlxKhR0q5NG63QyHzRnPE8mGDweOeZN2zcKGVKl9aUwCkl4Fn0/fdSoVKli+Lq7QQQdvz6q+TIli0ZHEyeOlX3gpIlSkjjRo00iRbPd/ToUX2GmbNmyYqVK+XF559Xh2ZoufyHHzQioG6dOkofyj5bNPlm3jy54frrVUNJf+iPUzRrBwB1TeHC+h17ECGNmDNZT4wLX+EZn3Hvb7/7TqpVrar9iGCB5/A2a5Ys6jfF3xbPWKOsEX5bWlGuY33hV8U9iMoYM3asXF+rln7+0fDh8uQTT+h9qlerpnNgXtyf9cQegOl19Zo1Gg4JH6116Wlz4bnW/fzzRVkiDUAIaRu278VOBgi80DWqVNHN0Int1x07ZPbcuUHl9rfo4VSAQLnfq/LlSz7lsHG+/e67umlOmjxZN8Ua1atL6ZIlVfD+sHKllCpRQtKlT68bLfkHrrj8clm7bp2QrGj3nj1SsmRJyZ8vn5or+j7yiFSpWlWKFS2qIZKETB46fFi2//KLlL32WiHnAIAUQYJAZ0PnxA14IE5+0eLFUpcKnElJ0qhhQ3lt4EApWKCAllnGTv752LGaQbHLrbfKyRMnZOq0aRfAS44ccmunTpqlcd369Zqjv0rlygpGFi5erCGNTz3+uILIUiVLyshRoxR4NG/WTIZ/+qlcefnlOj7hnqwfhBVppQEUDerXl7HjxyvIKVyokNZ58JagifXz/dKlcv0NNyS/WnYCCNOmTpUWzZolz+29999XIYgfEs9PkTNyBCBMT5w8qUCRRFLVq1dXmgAinn7uOeVJxeuuU0EKEGQdwX8ScO3cvVvHuaZQIQ2dvLZMGTl95oysXbtW1m3YIJkyZNCMiQh71kGd2rWVnowBkPjt0CEFnkPfe08FMmCl6+23y/QZM3Sshd9/L2lSp76QVyFnTvliyhRdv4BbEnEdPnJEvp0/XypWqKBAA8ACkCCfw6cjRqj2ZN/+/bJk6VJ55aWXFAQxXwAjtAEgAn7J6vlM//4yavRoDa+FTvMXLFCw5K3NX7hQ6rik/jYAwYkSRkQ3lnbt2gX0dJw4+IlW81RcxPXeoGFeGF4Sq7FxVihbVpG8k9v6DRvkyLFjQTteORUg4JhWxEUFzqbMJo0wfuzJJyVTxoy68afPkEGd17b/+qtUuu46dWBFMAwaOFCXDRsq1f34nemyy3Rj5UR57/33S5MmTSRvnjwqYBmbUykAoGaNGur4yiY/dtw4OfP333oqa3jTTbJ561YFJQjrm+rVEyqD3Ny4sbwOQKB8c44ceprktP/DihUqqNKnSydjxo2Tdm3bSsYMGaRtmza6gW/8+WcVbl06dZLlK1bIksWLVeMx8LXXkgHCx598ogKAcbhn7pw5VchwykVg3HP33bJ2zRqlA6aYiV98oYLjqoIF9e+UAMKq1aulYuXKtgMIZLJc+v33yierARCgG0APgYtmgLTaWbJmFfoD9KA3uVLgH8L2yaefVjDBOtm/b58KZMDDTfXry1dz5sjPmzYpnXPnyqX9qlapolqAZcuXy8+bN6szLLTkXty3Y4cOKugR/GiWAI2APQACYHTL1q3Su2dP+WLyZE2cxbXw7+YmTfT/CxctkmY336z8/GzECBX+AAIyMuKEW69uXQUxAFkAAoCEPt/Nny+vDxgg02fO1KRR/FDD4c9jx5TfgJJb2reXL6dNUy0SWos1a9fKk48/7nXrJO9DwcKFk9NSG4DgUCnjVIDw28GD0jqIam7xxmZOv6PGjJFr/cjc5+nZnAoQVv/0kwJE14aq1lKr87mlYkV4839+9uzdK/v27k0uFcx3aADYAPnNGABR6A7oQGCgqUKw0JfxLdUv3v+oeFEno2UgFbKlvv7o44+lTatWF2XQA3RzskQFjPBAbW2ZFLgXmzdj8AMoZlw0BvRjXMsswgnQcs5FYCEAGddSdSNUUJVzDc+M4EOdzbicYgEFmD8QZim1tevXSzmXCCC7aBA0fPnsWRXCVuPZeT6LLvyGXtAZgQgdoNOEiROlc6dOSgP4B23hKbzHRGTxBxpCZ2jIWPTDLIP6n7VBs9YLv/nh/vCT+2LOuK5CBV0XzI0xuD/Xs8a4N2uKvqwH7sdas+YC763/W+uYPqw3+rNemJNlfrJMFdYa4FrWED/wzfVZoAnPmVKOEO619+DBZO2lAQjxJjn8nK9TAcIfR49KU7eqbH6SJO66DRw0SGrWqhXUvJ0KEH7euFFKFS/uN02sTdrfYkz0ZwNlM2ZDd89WiJCw/BVcUzLj73B53rxe54VAYNOOh8ga1OhlXUpX2wUgoD08fPBgQNU3EYqBZK/kWVkrgAaEuqswZT3Af0CGKx+P4iuSLp1XrQx8ByT4uwb9XtwR6IhW5Pjp06qtoBmAEAEi22FIxwKEI0ekaZMmdiBxxOfw6sCBXqv9+bq5UwHCzh075OoCBS56fHLVI8jZgNngv/7mG2nWtKmqUzlBb/vlF2ndqpWeJtEK0IdNHnU8amac0BAinMwQQjixARCSRKRixYpq34ae9MO+//3ixdL34YeTHd7KlS0rHw4fLv369lVBYIGBv9FspEmj90LNTMM8Yfe2fOVKqVa9evI07QIQNIJh+nRVx7s2QjTLlSunVR5xIv1y+nS57dZb9bQ+77vv1ByJeYG/4QX8wYyALwdrBhDBM8I7GtfTt8FNN6l5ASGJmYJTPA6BmCKKXHON4A/D2njzrbfkzm7dVGOAdoBx8HHBcZATP7UTMGVhSrJ7w0m15g03JJs2DUCwO8eCnJ9TAYI+V6tWQVIlfi5D1bd4+fJLStT6+wROBQioVtevWaP2dhobOznzUdN+NmqUHD1yRJ29cChEGLAxc/LDi/+5Z57RiAe8uiuUL68OaPXr1lVHQRLuIADYENnosWcz9p9//aV23CeeekpSp0oldevVk0WLFikYwD+BKIIdO3dq4agO7dvL+x9+qCr8rdu2qXqZcWrVqKHOgqh7mZedGzb1U2fOSPESJWwHEJjQsqVLpVKFCskn+H6PPSbd77hD9u7bl6zKX/njj0pvfECog2FVTqQcN4Dv90OH5PcjR7Ty5lNPPCHjxo8XCjulTZ9ezQOARGz+gEccQQv954uyc9cuNUPh9Mk6ASziDEjFRZwScYIdMXKklgLHbwAnQsAIPiH4HnSKg5wdy374QarXrJnMewMQ7Py2hjA3pwIEXrg9u3bpyxZIXfMQSBn1SxEss+fMkazZswf9jE4FCDADx9Va1arpqR/hz0b879mz6vnNhoaTYNFixeT8uXOydNky9f7md68ePbSE8pJly1RoINz54ZT38aefqmNa65Yt1b6L93mGjBnVRoxT3Asvv6yRAggDTqxEITAmJ9ZTJ0+qMyQnS0LPuB8gBDU1EQqYHij4xHxdHW6jvrB83JAT+rQZM6Rl69YX9bSLBoFJ4UtxEIe9/wAMTp5oiZg74At/AUKFqdDI6R6nTHwWsmfLJgAH/n/m9GnV6Jw6fVq63nabgkYAJzwHIHHih+9oD4hGyZE9uwKOVT/9pBoCnE0zX3aZzJk7V7VQaCLQWNEGDR6sUQZEUeAzAVAkuuC+e+6xfdQVmrh/k5IuSpZlAILd3tIwzcepAME6NW7bskVfOie2kaNHS8Grr1bnp2CbkwECNJn8xRfSpmVLJQ+ACluxVWTHshtbjmsWDfmcz2h4drds0SIZgLkW6LHGtACoNbZVdpnvrXtYzol8B1gZOmyYPPjAAxfZrq15hFJAKth1EMh17wwdKt3vvvsSW7qdAALPA4DbummThoG68spyOLX4ZP226M7f8AIAQBQAEQoWb137uNPMWjdWH9f15foZ2oSiRYqoj4S1Lqy16bpmAuFJtPqiHSFJFsDGtRmAEC0ORPk+TgYIkBJNAl7pJUqUCDoUMMos8Xm7f/7+WzZu2qThdcGUhXW9gdMBAhsvJ/mffvwxOdmRTwKbDh4pgE8F6vWKlSp5dKK0G0DgIagjcOjgQU3+hAbBtOAowD763YIFcmX+/Gpyc28GIARHV9tf5XSAYHsGxHiCTgcIFnkxDyxdulQ2rF+vNn7T/KcAawRP/UaNG6dYMt2OAMHSHOArMO+bbzxGnPhPicTrCTA4SQ6Phg3VpODNXGsAgkPXhgEIDmWsn4+VKADBT3KYbiFQwK4AIYRHMpf6SQEDEPwkVLx1MwAh3jgW3vkmOkDgZHnfffcLmeHQMuDPgQf7e+8N81rWOLwccM5oBiA4h5eBPokBCIFSLE76Oxkg4Gz07bffqoMR6ZqxnaEi43PLOcj6G1UaYWn169dPzjjHdfSjP/1IUUpiEKv4D/ZN0p4SF0/IG/1It0s+fdLzktfdGgPPX2pC4KFuZXVDIBGXT1IV4qwtRybiowmnwhMeGzpx9VzLdeFOopLIAAFP9yZNbtZCTe6tVKmS8t1338V9ca9obkPxBhB4z3hnw/1ORZPmdrmXAQh24USY5+FkgIAAnj9/vsY9kzf/o48+kmLFiqmgRTDSEOKkO0WwI9Rx/CP7GQKdjYOUo8RI4xGN93mvXr20iA5jcvokZS0FWRDoJESpW7eu1regOh/98fblfvS9++67FbAAEhD6bKiEUxGbT8Idy6sZoMI96cP4xN3zG0EGaACUhKs5ESDAA2g6ceJEJRO07dmzp4JEai2Qh542bNgwef75F5JJSU57kuhYbdiwodI2CklrWKdTpkyRW+Ig/j2ldWcHgPDggw9qFcsnnnhCWrdurQCfUMZvvvlG68f0798/+RHYD0aMGKHfWVUz2QuiHRb9+uuvS48ePQLK5Bjq+3///fdrXpB33nlHQzWfe+45fR/IkPjiiy/KCy+8IAMHDtSEYa1atdL9jcMM9OJ9cm8GIITKEZte72SAQKwzCxzhX6tWLd38Eda7d+/WOHMWdZkyZaRs2bIyc+ZMjXRA8HMdWdO+//576dSpk24egAeE+U033STjxo1TrQHx64ADq5wvAIGKfZxKSK5CfDXlU/mcF6x3795aMY7EPIxNVjcAiBWmiIYDbQLggLnmy5dP52OVmkXAARDC6WTnRIDw5JNPShVi00mYs2yZ8oqND/rBv8b/peDu2bOXTJo0KfnNbN68mUyfPiP5b4DGuHFjI/rmsrbI16AV+3Llsn0MvN0BQvv27QX+IwDJPcG7RfIh9jneawSf1aA74IFidYQ0Agw4QIQSNhzoYiFxFuuS34DXaLWOHTvKgAED9EBzww03yNtvv6304v/8BlzxG1o+/PDDCl779eunzoqeCngZgBAtzkX5Pk4GCJZ5gE0Y1Dtr1qzkl9CKOUdAIsg5XSBI6EeGNIQwJztOFFbsOkAADQN9SbHKqZ6+JLeBjrzobC78H69vNABkWEOVzdh8xkbEeNwHTQW/0U5wLX34DoAAgKGvVbAFrQN/M1444+SdCBBatGghN998s7Rs2VK1PStXrlReuAMEANuECRe0DGhpGjVqKHPnfq2Aj7WDuWnMmM8j+kaiaQJ4wu8vv/xSmHu0T7DhekA7aBAACLyjCMCuXbvqaRgNAQDMHSAglNHK8Y6xTggZ5hq0T9FovPeUhgbAUL6beXBgiEZr06aNak9vvfVWeeihh2TIkCFSs2ZNefXVV3X9AZzRwD322GMKEiiNPXz4cP3ePQcC8zUAIRpci8E9nAwQ3MlpgQIWM81KiJLSiYETvHshHn/ZBJAINSMec7X8GNjA8JUIZyEfJwKEMWPGSOfOnZVNqJwrVaqkoA6TERoYfmiffPKJPPHEk8nsxDlx1apV+jc0HzHiM2nUqJG/7A6qH6GXNWrU0GvRHsHbcPI3qEkFeZEdAALq+ttuu02BNLSFx4888oimN2atu5px7r33Xpk3b56anyZPnqzv+ciRI/XaaDS0mxwyrL0IbZe1FiJ9/0GDBkmfPn30NoBUTC/vvfeeHm6eeeYZ1S6g0Rw9erR06NBBgRbrE7ODJwBrAEKkORaj8Z0OEKzCKpYWgVM66n7s+KB2TvUseNT5bCBoDED2CJPx48frKZKXGJMDqjWr3C/jAizQMiB80ATgxAgqp/EZ9rrbb79dx6I/fRBAqL8tLYLFdu6N1sLyjQAIcJrAJMGLalWPW7dunQo8K30w4/BMwTYnAgR/acGz16tXX01A7g2af/313Lg9zftLg3D2swNACOR52PtYA5gBTQuNAgYghEY/217tZICAv8GECRNU8OKHgNCuUKGCqvKwr+GljtoZuyNqSMv+iOoR0MA1XMuJAmGNXwHqS0AAgIHrEf5sMpw+KL6CKhPHSAQ4Odbxa0C9jWBnTPLvY2sEtXMfNAwIeRwUmcP111+vwAXAghmDMe688069H2o/gA2ABXUpJ00iKUD4wbZEBgjQDN6gNh0/foKqSWmoXzlR5c+fL1iyJuR1sQQIgDyAvWmxoQDaTU8ZFv2dTdLevXvP+9s5pX6c2rDRsmGaFjoFnAwQEKJ46CJwaaj0sJ8hWAEKy5cvV60AQh5nJYQ7DYGNbwHaAssmiHoNRzcEOY6JNGx0jIcPA3H0lStXVofCr7/+WkEIdm3MGtu3b9f++CIg+FEjMi/uiX0cYEJoJPPDw575Am6YA+pwQAz3JxIC0MDYzJlxGRN7e7DNKQABDQ2RJ8E2wKMVzgq4My1wCqB9o7hVLJqRCbGg+v/vCUAIJbrKAITY8s/r3Z0MEHhoTACo9l2L9PA5n1kFeTg5utr3Ue9z2rc+t/pxHePw3VNPPaUOPAgTK6cCwtbSCFi+ApZpw2KAq2mB/1uFYujPHKx5Yp7AYYp7W2FFVqEgxgQoW/MMxanNKQAB2gHITIsdBQBpsTrFA+SD9RWKHcWcc2crX0uwT2QAQrCUi/B1TgcIgZAPHwJMAKj/LXUZscKEQboLYdeKfdwD7UKwpyc0B2xurg6N7uMH8hyB9HUKQEArZDl8BfL8pm/4KBBLEwO+RCbhUfh4yUh79+xRbT0a0ixZs6YYXm18EMJLe9uM5mSAwKLFj4BTOZoESyPACRx1GGp+VPdsLghpqv6VL19eNm3apN7rgwcPVqdFkixZIYr8jToaMMDYCHVOrlzL//meRC34EmDiwFTAC4Ypg5cNjQOmAk48hLdNnz5dNQGMh78CY1uhjYQ1oj3ACZE+PIPV8I3A4ZG4/lCaAQihUM9c60oBAxCctR4WzJ8vhQoXlowZMuieCACr8p951f1JDUBwFu+Tn8bJAAEBDQDAhk/YDkIa+z/aACIJiDtHaCN4cUwjeRHx07wMaBDef/99FeT4JhAmRejc7NmzNWlSvXr1ZOzYsZo4hExjgIJp06Zp4hH8DPgOlSsaifvuu0/jnfFXwD8BPwWSNZGEiQx6OFjRD3CAIyRJXviM5E1EQfAZAGLu3LmacwHTA8ADUENoXijNAIRQqGeuNQDBuWsALebxv/4SgEKNmjVl544dUrFyZY8PbACCQ9eBkwECgp+QRuv0zkkfTQAOrpzWOYFjy+eUTnIchDBCGgGPNoAQQ0KgeFEYCwdBTu4IfvoALqjNwMsBgOAEhaBnfPqiLeBaxsCZEDMEmgAiIQAvZF0kAQnjMTfG5v6WdoNruBaTB/cDEKBKZ57MmwiHUEO0DEDw/WIDMj1lj/N9pTN6WGnBWbcpNaNBcAa/rafAxKDh19my6d6Efwn7kKdmAIKzeJ8QGgSHsiysj+UUgACAIyEOmpuXXnpJ617gOIX2BbMPuSMAbmiDAHYAMgQf4AwNE9+h2eE3YNGKQgGcka+exDJodaAXGiQS7mBiQisE6As1IVZYmRrmwUg+9MUXX8jnn3+uINfSwLnb/J0OEEJJmhZmlthuOAMQbMeS8EwwnbG4AAAgAElEQVTIyRoEVwpZEQD4IyAY8HpHMFjOgK7fc51rxUf+ttIbuzoPul7L95gmyG1Aulz8DDjpW9fxAqFVQCuAhiClcaz7W5kfw5la2X3VOAUgoFn58MMPtbYGYIEMeghwCjBx8n3rrbc0nJTMcISWYqLBhAMYIJcEOSwAGJiKyDfxwQcfKKnIyoh5CC0TPGQM1g/AAdDRpUsXBQlOdpDcsGGDhvxiduM36xG/GPd1aVeAYL3L8JP33t9GCmKyLVJgjfUCQKAugWviM3KXkBcFzSR9rIgjK8079+PHiqbi3vTDKZn324qK4nMrmRpjAMKsyCZ+W1FR1lh8Tz9Lu8n6ZzwrSgqtF+bM5s2b67XWnLnujjvuUIBMeuVwNQMQwkVJm43jZIBgFVmyshzykmISQCjiRIhA50XiVIlPAHkHeIF4eXiJOSkiBPg/zoAIEgAA1zImqVHpz7icPhH+CA42EQQN12NG4CVF0HDKZCxyG2BKQG2H6hoesOFiMkCNx1h8Tlw/eREAMpFqTgII8AcfEvxEnn76aaU1ESj4kZAilo2R8FQ2TPLOU/GPpFYABnjSrFkzBXHwgBBWgAF+KZia+D/JteiHBoI0vtyLeg9Wxc1I8SjW41oAAf8XzFwINUCRe4pyuwEE+EgyM0CjBfKtCq/dunVTzVJK7Y033kh+ZzFHsndgQmRPIAcJ6413Fz8h1gDFn4h6Yj/hvef+vF/4Lt1zzz1aCImka4AD5kEeFMArfkS8+9CPfQPzJ+uTtckegfkSegNC2HuoIcKeAPil4BvVX1nr7HfMic/YQ+AboAG+US4eDRjrmCRghFHjGxWuZgBCuChps3GcDBAQ/mzuqI0RCkQt8PKgPrayJ1pVHokooIIiLywbHz4C1omfFwyVMsWeeMlQX+M7wMuOMOJvXmw2T+7DqZIMjgANQAMlgz/77LPkUxhLALqzcXEi4J7ME/TPRoQQAniwgfASGw2C75eGExQ+HwhuHEhJXMWJjMRWbIokokI9ThZLaA+IoyonII+NF2FBtkv6w0PLt4NTGJsrfEIjweYPCAR4ABbZyOFbtAr8+KZE+Hu88sorMmPGDDWzWFlGccx1f2a7AATed4QjQhRtnac8IfAdwG6BB09U49BAfQIcjxHgrCcOCuwrRC3xGUCARGUISCoisj9AG5yhqe9ABBPVIlmXaKxYL0RI8R19ARYcAqArEVRorlhjOFGzDyHMcbAmqRv3ZW+haBK0B7wCFtiXuA+HEA4agFbmMHToUPUZILEb82UfQzv27LPP6twBPOFqBiCEi5I2G8fJAIGNnheLFwPUzgvOD0gbQUAYIUIDlA5C5yTJ5wgAzAN8DxJHDc3nvFQICV44Ng6QP8Kcl5//05/TKi8vp39LEwEgYQOwzBpoBwAYqCZxokRzQUU3TgpsaJwCGIcNgb8jWX7WSRoEf9X8nLZoodSwsNlrHNHpWGYFX+p5OwAE5grQ9yf8l7UPcAeEW6YBd0Ja+wMAlHefNca+wumed5O9BW0gAhpBzV6ClgFQSR/2AMAkBwXAP+88/hwIcd5zaIZGApD50Ucf6WGG77gvfb/66iuhQiXh0Jh4AK5oBRiPQwz71tSpUxVcoNlibsyL+QBAWOPsJfAOAMEe8/zzz+u17EueGiY0ilaxD7KncS3PTREsgI+ndWAAQkRfwdgN7mSAEEmqWqWYQ71HrD3kExEghMozc71nCtgBIHBCxqTnL/hj/WMuQIhHsqENREvpLZkToBXAwMHE0sxgouBAg/Yr1AaoYA4AFl9AGg0GZbDdG5oYqjpS/tm9GYAQKodser3TAQKIGhW9q5Mhixm1My8jiJ+GhoHTBxsLLxP1EKwQR14MNhFUkrxcljczY6Cm44TvWpaZcdgIuDcnA75nTMwImDjQIFj3YyzU2wAFNBjUc4hmLQADEGz6YsbhtGINELDrM4dABSqRLrzH1l5gkZ48KbzDmAj9abzLCHoEPCYuQIcvrYs/41p9MHdhjnBtaBgaN26sWk7uHWqpajSfmE28NUx0OG26mz0NQAiEk3HU18kAgRcG9RtmAjYBbJIsfoQ2NkjMBvwNKLDUfWwUfM7mgA8CC5/ERaj4UOsh7FE3YlogcRHXo1Lkc8wGAAM2GswRgAleXJIwYZLABwIAwKbDWKB5/A+wl9IYg2sZEx+JaDQDEKJB5cS4R6wBAjZ5/AWCEcr4EOEf4Nr69eunviqYELHhW+XgX3jhBfUV4ESOrZ+9xXJ25jdOiZgJhg0bppE1mBAwQ/CeP/fcc6raxwmWkzqHDKq1Yn7ggICDIqYMQnUZF9CBqh+TAHsGexV+CfgRsHcwDyIpMGfww75Bv2eeecZvLYrrM/Oc7G0AAMbnfuyXaBQ4+GBiWLx4sQEIifFKX3CWw4kmkMZi5ydaDcGeUiEWFjAexO6x6FZMO2geoYxDEvPmRcf2z8vEtfzG2ZCsiJzeuR9o3VLxde/eXb1+sVMCAPAk5iVhfJwcAQLcG2ciNihsfngWYwe1kh2BugEIvHRsDGRdxKsZEMLGgLaCz/nh5XQ/zUSK1gYgRIqyiTdurAECPgD+nvbduYMwtqq0Wt8BEIiGQfPHuwwAwT5PBlRyQ+CcTKgg+wbvMeAfQc67TNQMmkEiY7D98+736NFD9w1s+YyFrwRRD4RTAlBat26tBwnmgaYATQQABT8H9i7GBkCwBxGBBXBgb8Oswv/xZaIPGhT6ULE20GYBBK6zfBf4P/sYhyUDEAKlaJz3dzJAQPjj7GM5GiL4eZFR8fObFxDzAf9HwKMZsBAz4ABQwUtOf4AFLwinfL7jMzYVQt94gXnh8Ybnb3Ig8JLiBY0XMWNCZ15ahL9lynA1aTA+GgX6Yfrw5jQV7uVmAEK4KRrZ8VjP8+bN0/Vav359W0VPxDNAsMx7rtzj0EBEDM5+OP6hfudQgJkQ0IAgRxPJc7MvoIFAcOOwjMDnGgQ47z/vGWZGxuMQAg/ZnyzHaZwaMUmgSeBzDhrsTdwHjSJ7C/Ngj+B7tJXcE+CBhhJtKX2tPQaAEUz0E5E8PJ/VABmEU3766acKPgxAiOz7bbvRnQwQoklsK6lRNO8Zjns5FSDAD4AaG7qdGsCRk1mgDRBLLD0e8ABVGuD11Vdf1WQ+KUW6IIQQHuSA4ASMdzyqbsCsp4aGjJMtrUjREpI5cxY58/cZ+WXrJgW3aPOIynEvrx1rgIBWjnDkYBrRTiTLSvSGFoJDjWuJe1eaGICQYCvEAIQEY7jb4zoVIDw1oodkanFA0mX2P3NepFcCJ7+jW85I+c0dpWPbzn7fDk2WlczL/SJOiai5iYf31rBZk8vAyhZKP7RlJBHCRObeOAFv2rRZ3v3gc3nr9edl565fJXeevNKjVz956rFeqt3iNO3uDR9rgIANnpNzMD4ImAQx+Zkm6vSIydZTMwAhwVaIAQgJxvAEAAifLh0oh6osl1RpkgJm7tkz5+Srp9dLw2dLS1LqJDm87bismbBHyncsIFeUziY/DP9Vdiw7LKlSJ0nZtgXk10WHJF+57FKufQG/73Xq4L9yuwyUqy8v4tc1CC/yZLg21NTYvkm4gyYB04MnzQROcDjJYWZDy4BgxymOJFFs9vjaeAIIVWvUk1GfvS8NGreQkyeOS5WqNWXwmy9J2w63yaTxI2wJEKxsgr7C+NyfF6CEucA9s+KoUaOUpvgWAKjgAydrVP30RdNCtlSSF0XLJOjXggmxE46WmBowXwBOXRsO3J4cqE0UQ4hEt+vlBiDYlTPRmZcTNQhDtj4g/xTbHxQBp/VZI8CKEk2ukO0Lf5e8JTLLxpn75epqueTqGrnkz32nJE/xzDLzifVy86vXyrmzItu++01qP+R/1Mm5s+fl2p86ys1V/HMOJqIGb3mEEEIJdTglvymeZJlQtmzZ4nHjxpO+Z8+eSguuxYGOLJ8IAQQpJgf3VrVqNalVu6ECgowZM0mmTJdJn0efkWefelhq1KojK39YbEuAgOmDky++AP46+bL+MUV5EnpWiXhoTG4FwBTAAN8lIgdwiGzSpElQ68xpFxmA4DSO/vc8TgcIVkEUfxx2XAsoubLb2+dOWBKOBAjr+sg/ZXcHxZ7x3VZItbsLy7xXNklSkkjVuwrLXwdOy8LBW6VwrdzS7sNK8t2ATVLspryS/arL5NOWi+W+b2+U9AGYMtBSNNjXRyoVvlS972nSOMJx2qdxgnv00Uc1+x++BTQcFgmn9aRa//jjj+Wuu+7SfnjR41uAxzs+DWTbQ/Pg3tA4NGvdWV54+hH9ql2H2+SLiaPVRNGwcQtZtOBrWwIEKwkRwhsnP1+nekwiZC/EPONpfwA84WwIzajbQUQByY4Yn/fm8ccfV3U8EVGEPBIK2KdPn4hmPg1qUUfhIgMQokDkWNzCyQCBDRRPZE4WqGh9FWexIhssPhCZYHn0+nsiiQUPQ7mnEwHCyo1LZdw/z8kV5S8kwQqknTr6t2z79jfJmDOdZMqZTi4vk002z94vGbKllTN/nZUidfPI+qn7FBBkuTyDHN11UrJckUGuuSG337fZMvKEvNl2nGS5zL/5Icg4weL5TgMIWKpfK4Uu6Xg9NeqD4L+AtgAvdIAEp2XydBDejBrdveGDkDbdZZIzdx75auYUqXdTU/l23iypV7+xpE6dRr5f+I2tAQLvPaYVnCh5dk+N2hJEGZD3JKXDA6CIH6u6olXXwTo08LfVh/t4qvvg98KI444GIMQx81KaupMBAmpUHJfwTibRERsHIUecnAADZB3Da5fwRzInktecsB7ik/HWZhPlJELiEvojTAk3YgwARzDe6HZbRk4ECNB4868bZe7miZI+ZyrbkPzcv+cl/R85pWOd7l5T7nqbLO8pUQgk5yLnPkIN4UYlwb59+6qN3Fsj8oHYfda01QABU6ZM0ROxJ4BAeF658pWlYuVq8tvB/XJlvoKyft0qWb50kc7djk6K7mmMAUOEAwISOCQgvPkM+uGc6Z43xTYLJQ4nYgBCHDLNnyk7HSCwoXJiQgXIaYuYYvIWkGGRUxgZzzgBkEoZwc/3qBZxRKLeAglK2GSIOccWTKIS4pXpi+NXvDenAoR454un+ZN/g4yf5MzA4ZDYeYSfP6dWtAfk0Sc88dZbb1XtgTdQQbIeQLG3xnuEKt1dIxfrKAZvdQ6cuBbs9kwGINiNI2Gaj5MBAosW5y2EORkM2VytOghoDjg9YYMlNp1Nlh9OWdgciRHnlIYdkx82TJyT2FQxN/CdvwVhwsSqiAxjAEJEyBqRQVnPVNnDJwHtV69evS7JRZDSjRHgpPsF5KZ0ep44caKWLvfWeB/QXLgLZAMQIsL2uBjUAIS4YFPgk3QyQAicGiIUfAEk+PJXCGZsO17jRIDwv/bOBLqq6urjOyHMCdYGkLEyDwGZAoR5kiEgQxlERBBQ+agurMOHs1Us2i4sCLb9KloIk6tUAiIFEYUARRkrigISRUCEgAUhzENIwrd+By6El/fyxrx338vea7kiybnn3LvPuff8zx7+++tt26R0RoaU9ELhFIA+V7WqNEtM9OKq4DWFBAhAADunJaxRAuXg9S/IxQBNLnS+ZC/gZsMCQFYE/AmQ4jgK7gdcDPUbNJa69RoYpkBM9Ad+2Cc7d3wZNi6G4M2OjqQAIULXQKQCBDa+HIcc3gidQomKjvbZnxppAGHr+vVybsYMiYuOlmJRUdKofHn577lzciEnR8rExEjV2Fj5+tgxiY6KkgvZ2dKkQgXZ+tNPUj02lmpZIuPHS82EBFstFaLkcXU5CgCBzRsuBFxlroQ0R9wGtCdlz7KK9enTx8QhOAMIWdlXpH79RvLp+jSpUL6inMg8Lq2S2kvmieOy7T8bbReDgPXPk0wlW01shNwMuieOC6usrxKVkZFxxdeL816H740gE7tRqAbi2ULRR6QChJ+PHpXORYQZ7e8pKdLOCSOeJ+spkgACG+CX48fLHWXLyqcZGXLo9GkpX6aMnL18WZZ+/71M7tRJShUrJik7dxrgsPHwYRnZsKGUK1lSZu7YIX/o0EHeP3xYBsyf7xMbnyf69qUNhX9IbcwrkCRZFMpk2ljUyI794yrASsAJj3S+mTNnyujRo016H0KcjaO7AQtC7373yB8nPSddu/eWz7dslImvviHP/O846dm7v6xZtcJ2AAF3ny8Mir7Mh15zswYACLhuFSBE4MqIVIBwKjNT+iQnR+CM5X+kKdOmSVuHUrWePngkAQQ4L0pPnixxUVHy2ubN8lxSkkzavFm6VK8ui7/7TrYfOyaPNG0qPWvUkD2ZmfLvQ4fkicREmbhxoyTXrCkdq1aVrUeOSP2//c1WGSpkL0CVzEbftGlTEzdD2iIVQhGCZV19nCn+A68Bwkf8tddek+eff95YHhCKFFl/t9ZMUlIbadcRoqRJ5leJLdtIrdr1ZdHCeYYo6cttm20HEMgu0iBFT9969+1wS6HTC+fPS+kyZdxeoC4GtyoKzwYKEMJz3vLetQKEq7UF+KAtHT9eusXEyJTPP5dJ7dvLsr17pU3lyvI/q1ZJ9bg4aV2pktxdr54M+/BDqVK2rPSrXVve/uor6VStmjyWmCiLc3Jk6PTptjJXW0yKzDkAgSBDAgmt2goUcXr77bedLmQsBFQHhYbYYgP87W9/KzAsEmvD3wEOeQULQpv2PWTWO29KVtYl6TdgqCz/V6oUL15CBg25T5YuWaAAIfw/GwU+wfy5cyW5Tx85nJEh9Rs0MJkzWGmwFpw7e1bKlC17k+VJAUKELggFCOE/sQoQrgIETtWceFY9/rjcFRtr4gxyIbm59hMK5ZwrVyQmOtr8RGBJyBUx9MrLz56VntOne3RiCuaqYXPHjUBGjqPAxUE9AFeEQLT//e9/Ly+//PJ1giUrY2fYsGEuiZK+37tP3vhzikx88Qkz5PGfj8mLE1+XKZMnyqWL5xUgBHMBhGCs1Pfek+hixcy6wsrYqnVr+TY9Xfbv22fc+7Xr1jVVQS1RgBCCSQrGkAoQgqHlwh1DAcINgICmIcg6fuSIXLlWFtkT7RcrXlziK1c20fp2FAh+pk6dKjAAkqpImiNxCGPGjDG1BwriQuCD/vrrr8sbb7xhPva0feyxx+R3v/udsbo4ipXFgE+fTIZbfxkv586dld27vpaLFy9oFoMdF0iA72lRaqr0Sk6WdWvWSI2aNSXr0iWJjYuTgz/+KC1atpT9e/dKYqtWChACrHfbdacAwXZT4vUNKUC4GSB4rcAwuYCgRLg8LFIv3A1weHgqkCURqxAfH2+izl0J/mdOhK6EbAGAhSMosRMPAve/Z88egVyKQE3LzUJhpnr16pkYE36n4lwDAIISJUsaMjmyXgCWBAGjV4AjP/PWulALQoSuJAUI4T+xChBuAAT88kuWvi3RpZZJqdI3qIUDOctnTpWSWtUmSIvmHYMaqzB37lyTiYA/GIEhlOqFUIS7Ez70FBmiUNPw4cOvk4M5u+7hhx82mysCGAAI5OZSkwBnjBhfNJUkHanG7QIQCFYlJuPBBx90WTiJUsaUb4YPQtMj3a0e939XgOBeR2HZQgFCWE7bTTetAOEGQEiZ97z0GrBbSpdxXoPhs3XHpMJtJaV+w3JyYP85qVy1tKxe+ZP06V9FTpzIklIlo+WjZUek/+Cq8sXnmVI8JkpatMp/2j6ZmSOZGWMksblr/oFAriwIkXAxWEWarL5h9QQk5PUHO45L0TGKOWE9sAoPdezY0fAnOLMk4GLYvn279Pv1UImLu0WOHD4o5ctXNL7nFcsX29rFgH7Y+Hk+d2mPnIrXr18v3bp1iwhW1ECuN2/7UoDgrcbCpL0ChDCZqAJuUwHCVYCAyfPgiTFS/fYYp9o6fz5bHhnzuQEGy9d2lkULDspXX5yUKtVKyxPP1Je/TP1OsrJyJSYmSs6dzZbs7CvyzY5T8u77baVkyWL5+vxmey3p0OpPhb6AXBElkZ5IgCK04FQvdLYh4i7AFQEwIDaDWAaKPFGaGD6EGTNm5Lt/AMIv4yvLsWP/ldwruVKpUhWTBXH27BnDrLjsg4W2DFKEI4faKz169HALDqyHJpMD1sjWrVs7nUdSSgFRuGcc3Tl8O4kFwRqB1YL6LVb8RmxsrJkXd8K8UFIaK5DFagmnBXMWKiEYloJ1PBdWISwsAFHq1GBxcVZGWwFCqGarkMdVgFDICg5C9woQrgIETOFHTj8kVao5tx6w4Q/p85mcP58jL05qJMWKiTw27gvpkVxJktrHy47tp+S5iQky4dEv5YWJCdjXZdZbe+XZl50zK377dS1pm1j4AAGaZZgSLUIaTr64CfCvf/jhh2aF4RKoU6dOvtWGWwIggOA62LRpk/ngsymyKRHP4CgAjx7Jg2TyH16UhMZNJf2bHSaj4eknx0nb9p1l6+ZPbQkQiNFgwy0ovsLZ67hy5UoT6OmspPuCBQvMZk3sAq4dNk1AFgGigLJRo0YZ//x7771nSsuTLbJixQpTu6Vt27bGDURKKrp/5513zDyStgoXBaACjguAHcWzAAiU3yY2YuTIkaYCLWmolK3u0KGDyWLhWqi1caHQnkwUCtFhDWLzJoA1PT3dUHCTvTJw4EBplSeY0N3nCP0Ro0GsizMh0PWJJ65mtuQVBQjuNBumf1eAEKYTl+e2FSBcBQh8SGfPmyR33f2lFC+eHyScPn1ZhvXfaHIaa9UuK9PeaiGvvbRLPvv3z9K1e0UZMaaGTHv9W9mx/aR06X6bzJu5X1q0vlUmT2smNWqVvWmhXLqUIz/sGiVtkwYW+gJi44EWmZMbH2fIj9hUVq1adZ0LgZMuZcwdhXoL1GFAKFGOK4KMBoSNlA3IUdhQOnfrK1Nfn2j+1KfvIDl48AfZ8dUX0qFjN9n2+SZbAgSIo5KTk52ecAuaJDZqCmABEhxl+vTpZsNkfQHUiLtg08cFM2jQILNxI5TcZmziPHr16mWAxNq1aw2JFVYKfsfmO3v2bAMAqKhpWXfY7Pkdp/YpU6YYQNG/f3957rnnzDyTqQJQYWxcKPTJaZ7icbiNAHvEptAeiwZzzM9//vOfpl8yVjwVStxT2M6VsIbWrVuXL25DAYKnGg6zdgoQwmzCnNyuAoSbgxQ3bU2RUnG7JTvnYj5tXc7KlejoKPnvTxeNa+FK7hXjSsg8kSUVK5WSnOwrJiAvKkrkGlWCxBSH5/9GVyViysmF062kTevgBLhRoIkNgY0MUqOhQ4eaqo78G6EUOWDBWbAdTIls+FgLOCFjabjnnntk0aJF5mSMv95RMJM3aNRCPlq+RE6ePCFd7+wta9NWSnx8eek74G5ZuGC2LQECKaDEWvgiAARncRzEb0BMdeDAAVMoiwwQQAGWGYinAKUI84FVh9RRrAW4GygTj1UHKuvatWsbCwRWADZ6rDSAM9wJgAnmh00WAMC8AiiwSrDBN27c2FgOqMfBNdwPLg+uYUxO9fSDRYkA0oSEBFOplrmHx4DrPRWAT/Pmzc1aYl2xZgA2xLngosIqsmHDBgUInio03NspQAj3GRRRgBD5aY6cBh944IHrFMnWqmUDYRMr6NRHNH9KSspNCx2+h3fffVcGDx7sFCDsTk+Xp56dJGtXr5DMzOOGRfHOnnfJ//15siGVYsOEmCqvhDqLAdO+s+fx5A1nM/fUFL948WK54447jGUhlMK8Y00I5H1YAIHnIuaCuA4AAvsE4EUBQihnPARjK0AIgdIDPKQChMgHCCwZfN74uD/44ANzUnzyySeNaZtTbUGCb57iTJig8ZcDKrAgEJjnzOpgBdrxt7hyt0jJEiUl63KWnDl9WnJzc2ybxYALAOuIL7J161aXgYqO/bFRMhfoCSEmwdu4B1/u0fEaLA0FEWT5MkZegMD13bt3l3vvvdfEPWDpUIDgi1bD+BoFCGE8edduXQFC0QAI1kq1yGu8zd8nE4FTPr7rgq6lf6vOg6u3A5+8o4TagoCZHfM44Mkb4Xnx4zuzIGC5wY2AqX7Lli1mw8TcTmDg2LFjjT53795tYgX69u3rzbC2bHv06FG57bbbrt8bFgTcWrg0ACQKEGw5bYV3UwoQCk+3wepZAULRAgjBWlfejhNqgIAPn8C/6tWre3XrS5YsMZu7M9BDdgAnZ3z6p06dMlwQbJK4Z4gtIFuAGIBx48YJqY2RIARbAoKciQYpRsIMe/EMChC8UJZNmypAUIBgh6UZaoBAuWcC+8gucLbZO9MRVhUi98lMcCaUxwZ00AZeA07XvXv3NhkCBAkSMEpqITEJkSJkXbAvkKqJfizBnUGApBWYmfd5NYshUmbf4TkUIIT/xCpAuFqgCbOvSug0QH0Gsi1CIYwNQMAMDjti+/bt3YIEuA1ID23ZsqVLX/4//vEPY13A1I6ZnTEwuQOG+B2umqysLFOnoCiLAoQInX0FCOE/sQoQvLMgULyHkxFrn7QxIvqtNEJOhd769sN/BQXmCexgQeBJAAlpaWkmboAof1wBeYU5xyLAxp6UlBSYhy/ivShAiNAFoAAh/CdWAYJnAMHK58afTK64o+Bf/utf/yrjx4+PGH9yMFe3XQBC3mcmO4GMA0ABwAEyKUABpnKVwGlAAULgdGmrnhQg2Go6fLoZBQjuAQJ+VTjvMSe7MwezocBaCDGNiucasCNA8PzutaU/GlCA4I/2bHxtpAKEQwcPShsvOMhtPEVub+3dBQukS9eubts5a0BefOfOnQtMDfP35ffpxry8iKA0R+IeqwvS2KArpogP7gRPhHxwihp52t6TPiO9TSgBgiepmZGu/1A/n6eBoc7uMyojI+NKIB6AwJCMjAyTbqLivwYiFSAQtJY3Atd/Tdm3B/K+CZzyRYoCQCDK3FtrAO6IWbNmCSyEGpPg2coKJUAgwj7QpEGePbW2QgO8LxwkfBUFCL5qrpCvi1SAUMhqi5juiwJAgJLWKqrjzcRxEGHTwd1Aahd58NfvMgoAAA+1SURBVN5UC6RyYpMmTfK5NOiHj6kv7HuegB2yOQrysROghy/eWdleb/Tj2DaUAMHKYvDn/vVa3zXgr5VRAYLvui/UKxUgFKp6bd95UQAIpL1B8OKLUHOAAjsdO3aUl156yQANiHKIU6AIDqyEVO0jroE8eVj1KNDDmFTaAyDAlQ/LHy4LguX2799vivWwSX/yyScGfGAFIo2OgkGk0lHZj+I75OeTise4FBSiZgBBlMRTULGPeyMDg/cYlj/6oQQ0mz9BefRt9UsVSFwmFHaiwp8nxD7/WrpUunTpIjt37pQ6devKhfPn5RekFJYqJRcuXjTpfnD2IwoQfFlh9r1mUWqqWaesw4YJCfLjgQNS5VrF0OzLl6VU6dLXXXAKEOw7j37dmQIEv9QX9hcXBYDgqwWByQUgQBjz/fffm82Y1Dk2eMtl0a1bN1M1j02cGAcq3bHxQt3LqZbTOqWa4eunwh9AAqY6PqjWSZ7MCYInrdx9qv3h3uA66i6MHj1ayMenHDEVBfft22eY/QAjZGMwNhYDrmdMahJA/QvDH1UBqXAIoNm7d6/5PQGbv/nNbzxyS23csMHUYOC+y91yi8n9J9YjPT1dcrKzjRuvR69eChDC/kuQ/wEWp6bK7TVqmLXKd6JR48ayZdMmiStXTk6fOiV3NGkiNWvVMi44BQgRuAB4JAUIETqxHj6WAoSCFcWmTsnbIUOGGHpdih5R5Ij0ubvuusuw6VHil00dKwPlkzl1sXljXeBaiiV98803pnwuP7EisEFz2n/11VfNpkufAAA2cIopTZgwwVgA2PixRAwbNsywBAI07rvvPlm2bJmxHDAuhD87duyQF154wVR1hDp4zpw5BhCMGjXKFDDCesA9AyxwbfTv39+jAMxv09MNCDh18qSUjY01oKJ2nTry8UcfGUsCmwTPqRYED1+4MGoGQEju3VvmzpljrGV169eX7V98YZ7gV7ffLum7d8vga+W1FSCE0cR6c6sKENxriw+8Of0RCBhFsduCZc933xlUjUnWlWCiK1GypDEzh1IUILjWvkU5y6bKJsmGzu/YxDHbs/kTT8DmTKEfNnrWCu3Y3BHaEmEPKQ+/J4aB//g98Q205zraWzEBFjsf1/M3ArKxShB4SxvLHcGp3urLasM1jMd9WoF7jEX//M4KuPS0oBHPzZj8zM3JkYuXLhkLAu4E+sqb5aEuhlC+yYEfGysBViPWFsAQoMrcs45Yl8y35aZSgBB4/duiRwUIrqeBjy/m5bKlSknPHj2uf8B5YRamphr+df7fMjlzOmQzefvvf5cRw4dLt65dZc7cuaZ4zI8HDxrfckLDhtKubVszKL9btXq13F6zpvlbKKQoAAQ2cF+48jHrw7XPBqviXgN2AwhsWrBmIgScAmaIyQAsUVNBsx7cz6mnLRQgeKqpMGunAMH1hGUQHNaunVSpXPmmRpiPCRDjg/OnqVPlmaeeklcmTZJ7hg6V1/74RxOM1qZ1a2mTlGQAxpfbt0v7du2M9YFAM9pZwsdq1uzZUqtOHY9MvoFeXkUBIHDKX7dunQwYMMBj9XFa4iQeaguPxzdsg4Z2AgjMH9wXFG7iPbXAABsZVpvVq1cblw8uGhX/NaAAwX8d2rIHBQjOp4WNMyo3V3p0756vAeVfV6elGX8vgWaYmwEMdzRuLHPmzZPbofJt2NBE/rI57dmzRxrDyhcVZaLBu3bpkq/PhYsXS9Vq1YK+RooCQECp+OOR2rVru9Xx0aNHTeEnYgpUPNeAXQACQaMEaxJQ6orDAmDOu8jffbEuea6VotFSAUKEzrMCBOcTS7T4sCFDgjbr73/wgdzmYKkIxuBFBSCgS1wNbGJE/jtL8eMjR6wJp08CBlW804AdAALZI1gFCB71ROCVoL1aijzRlus2ChD8059tr1aA4Hxq8F3+um/foM3bJ6tWSdly5YI2njVQUQIIPDNxJWvWrDGpgqQbEh+CyZmsAP42cOBAt2WCgz5JYTJgqAECmxTWHywH3ghpoWR1qPiuAQUIvuvO1lcqQHA+PUcOH5YhAwe6nbs1a9caN0KtmjWlQsWKUj4+XubOny+dOnSQf69fb35HLn3nTp2kebNmLvv71/LlEl+hgtvxAt2gqAEES3+YmEkZJDof/zSpf55G9gd6DiKlv1ADBLgqAAfuinE56pt1AJcEpFaOAuDg/aVveCkgwOrXr5/bKYNcCCuko/uC9QbHxSOPPOK2D8cGHFogyCooloY03LFjx7rsm+dh7VvkVs4act/z5883YIu2uGHIYoCsi9ReZ6IAwevpDI8LFCA4n6fMzEypXrmyNG3a1OVEkrr25IQJUrlSJfMSNW3SRE6dPi3x8fFCsR/SGPnwkLUweNCgAhdE6pIlUqVKlaAvmqIKEIKu6CIwYKgBwtKlSw1fhC8CLTYMmY5CSt8rr7xi2AR79uxpXFCk+JEFgbWJjZRMphYtWhjuCzbUihUrms3VYsgkPRWuCrgEcHMRDzNt2jQTKEkME+yZWLD4hjz99NOGeAtXCSRXK1euNO4wUmoBKfTPvwFBZNew0dMfljCIuuDCQAcAicGDB5v7A/jC7sn1uNeIl3JFxY0VrXnz5ob505nMmDFDxo0bl+9PChB8WXVhcI0CBNeThH/ynsGDrxPBOGv51DPPGBCR1Lq1vDVjhgy9+27JPHlSzp45Y9jHeHlbJCaarAZeTEfhhUxbu1ZyrlzxiPo20EtKAUKgNVp0+ws1QFi+fLlhjfRF2JRhs3Qmjz/+uDz00EMyc+ZM45aCHjsuLs4AB4iuHn30UWMVgGkTYHDvvfeaCqls1G+++aY8++yzBhywub/88svmv6lTp5r/oM3G5XXmzBlZsWKFIbhKTU01mztggt8TFA1J1uTJkw2wALQQNwG19/Dhww1jJvwE999/vwEIjA1A4G8ADcDN+++/b0AM10DJ7eowgrUEAi5XAmU5NOCOogDBl1UXBtcoQHA9SbzQP+zfL82aNDEZCs6E0wGWBF5YfNmkVPFC8wExFc5yc6V4TIwhmCkXF3dTF6TRvZeaKrfcequJug6FKEAIhdYjc8xwBgiwTMJm6UzYZDl5f/zxx+aUzgZONgzU1hMnTjTvPpTb1LjAuoApnhoaBLtiOcCtwHeWDRoqbiyMAIAtW7YYq0PXrl2Nu4sDyYgRI8zvYOQkRRPQQ/9YJfg9wZf0yb9xi8HauWDBAgMQuDcsEVg3YM7EFcG4zAtuNLKpGAvrg6tCYVByc+DBmgGowbXAdxCLAt85rCw8g2N2iAKEyHynlWrZg3nF94dFgM2/WHS0B1e4b5J1+bJcysoyqZKhJOIpKgCBjzQmVj5y/D+16/mYQxMMuZWK/xoINUBgA2dT9KU8tysXgzut4AKgmFVeRkl319j577hGcTGgQwANAIGDDhYWDkAKEOw8e4Vwb2pBKASlhlGXRQEgcHLi9EWAlWOJYz6ICAFqeZn14Lbg3xQqihS5ImKsWFHR0V4H8nmig1ADBMzxgD5vyY+IK2AT9DQ10hNdhGsby4Jg3T+VSLFSkOnBtyIsAAIvL4hGxX8NEEiDecwb4UXkv2AJ5rCCEDovN6cHzPoq3mkg0gECfmGsBphLXQnfE6wLnJiQzz79VKpXrSq3/uIXEUfHiyn48JEjJqXWspwQSLt1yxaJLVvWu8UjYoJyeyUnmyC6UAMELHGc6D3JMrAeFH1gPcAtoCLGLZI3w4EAR2jgeUdwNYQFQGBTUwmdBhQghE73gR450gEC1NZEibsT/MHNmjUzUeUlY2LkV9Wru7skrP++afNmqdewofF9Z124II0SEjx6nmM//yxlSpe+boGw/NO3xMebIFyyf0IhxPCwkQF2iAFiLt0J907AHSdkAI7KVQ2QPUEgpjOBQIzy6baOQVCAENqlrAAhtPoP5OiRDBCwLJHT7UmMAf5Vgq8O7N8vD4weHUgV27av9Rs2mDLO/a7ltqMvAFLxEiUkLjZWfj5+3Pzk9BhTvLiJlQFwtUxMzKfT/2zbJo2bNAk5QEDZWIMoqU2wnSvLI0CGwDsCDYlHUbmhASxuZEFgTWBN5BWCNZ3xRdgqSFEBQmiXswKE0Oo/kKMrQLihTSLAM48fl/tHjAikim3b14KFC6V7t25S4ZpFlrUAr8fD48aZKqNE6u/ctcsUGvvbW2+ZFD/qjDSoXz8fQPh6xw6p26CBLQACCmeTI74EwEN0P8GoCDFXzDMnYYqqhTJA2LYLw4cbU4Dgg9Ii9RI7AoSUlBTjI1PxTgME4o0cOdIEd7kSf19+7+7It9acAkn1yiucftzldVvtMUsTrPbt7t0yfNgwnyLhfbvz0FxFiu2qtWulYny8JF6LvcCKkjJ7tuBGIE8+JztbSpUubQDBn6ZMkaSkJBOTMXTIkHwAYftXX0n9hATbAARLq3AGkBYIYODesSho3YXArzl/vxFRGRkZN9sqfLxHPmRqQfBReQG6zG4AIUCPpd240IC/L38wFOsMIDAu1LhUZXSX+kY7SGAglTn044/S2EOffDCeLdBjAJxWpaVJh06dZE1amvS8887rABFWQHTFRkqpcvLt+Td8H6S8Ybrn+5s3GwSq8b0HDhgSnlDHIARaV9qfZxrw9xuhAMEzPYdFKwUIYTFNAbtJf1/+gN1IAR25AghsbGlpaQVGtmdkZBhg0IiS3CKSnp4u6bt2ya8HDAjGrQd1DLIOZqWkyINjxxqzOyfseXPnSu9evaSKD9VEDx46JLvS001gGxYIBQhBnU7bDObvN0IBgm2m0v8bUYDgvw7DqQd/X/5gPKsrgMDYnHrxR8NulzdgEbcCed9QyzpWALTY79hAI0Usy0C1atXyPRK+eWIQHIPSCnp2+iO1GOY+JNRpjmQxqIRGA/5+IxQghGbeCmVUBQiFolbbdurvyx+MBysIIFjjE91OGpxFiMQJuqBiXMG470gaQwFCJM2md8/i7zdCAYJ3+rZ1awUItp6egN+cvy9/wG/ISYeeAIRg3EdRHkMBQtGdfX+/EQoQImjtKECIoMn04FH8ffk9GMLvJgoQ/Fah3x0oQPBbhWHbgb/fiIABBPxemrsa2nVEOiELIlhCxHRenvxgjavj3NCA3X3x+l0I/WoN9nch7xPrNyL08+/PNyJgACH0atA7UA2oBlQDqgHVgGogUBpQgBAoTWo/qgHVgGpANaAaiCANKECIoMnUR1ENqAZUA6oB1UCgNKAAIVCa1H5UA6oB1YBqQDUQQRpQgBBBk6mPohpQDagGVAOqgUBpQAFCoDSp/agGVAOqAdWAaiCCNKAAIYImUx9FNaAaUA2oBlQDgdKAAoRAaVL7UQ2oBlQDqgHVQARpQAFCBE2mPopqQDWgGlANqAYCpYH/B1il5Ns7qYWQAAAAAElFTkSuQmCC;" vertex="1" parent="1">
                    <mxGeometry x="60" y="-1950" width="3953.2" height="1969" as="geometry"/>
                </mxCell>
            </root>
        </mxGraphModel>
    </diagram>
</mxfile>